<?xml version="1.0" encoding="UTF-8"?>
<!DOCTYPE svg PUBLIC "-//W3C//DTD SVG 1.1//EN" "http://www.w3.org/Graphics/SVG/1.1/DTD/svg11.dtd">
<!-- Creator: CorelDRAW X7 -->
<svg xmlns="http://www.w3.org/2000/svg" xml:space="preserve" width="22.2183mm" height="13.6515mm" version="1.1" style="shape-rendering:geometricPrecision; text-rendering:geometricPrecision; image-rendering:optimizeQuality; fill-rule:evenodd; clip-rule:evenodd"
viewBox="0 0 49 30"
 xmlns:xlink="http://www.w3.org/1999/xlink">
 <defs>
  <style type="text/css">
   <![CDATA[
    .str0 {stroke:#2B2A29;stroke-width:0.168317}
    .fil3 {fill:none}
    .fil6 {fill:none;fill-rule:nonzero}
    .fil0 {fill:none}
    .fil2 {fill:#D52736}
    .fil1 {fill:#FAB60F}
    .fil4 {fill:#D52736;fill-rule:nonzero}
    .fil5 {fill:white;fill-rule:nonzero}
   ]]>
  </style>
     <clipPath id="id0">
      <path d="M2 0l47 0 0 24 -47 0 0 -24z"/>
     </clipPath>
     <clipPath id="id1">
      <path d="M2 0l47 0 0 24 -47 0 0 -24z"/>
     </clipPath>
 </defs>
 <g id="Layer_x0020_1">
  <metadata id="CorelCorpID_0Corel-Layer"/>
  <g id="_920353616">
   <g>
    <g style="clip-path:url(#id0)">
     <polygon class="fil0" points="2,0 49,0 49,24 2,24 "/>
    </g>
    <g style="clip-path:url(#id1)">
     <g>
      <path id="1" class="fil1" d="M45 12l0 0 0 0c0,0 0,1 0,1 0,1 0,2 -1,2 0,1 0,1 -1,2 -1,-2 -2,-4 -3,-5 1,-1 2,-1 2,-1 1,0 1,1 2,1 0,0 1,0 1,0l0 0z"/>
      <path class="fil1" d="M37 4l0 0 0 0c0,0 0,1 0,1 0,1 1,1 1,2 0,0 0,1 -1,2 -1,-1 -3,-2 -5,-3 0,-1 1,-1 2,-1 0,-1 1,-1 2,-1 0,0 0,0 1,0l0 0z"/>
      <path class="fil1" d="M44 20c1,0 2,1 2,1 1,1 1,1 1,2 1,0 1,0 1,1l-4 0c0,-2 0,-3 0,-4z"/>
      <path class="fil1" d="M14 4l0 0 0 0c0,0 1,0 1,0 1,0 1,0 2,1 1,0 1,0 2,1 -2,1 -4,2 -6,3 0,-1 0,-2 0,-2 0,-1 0,-1 1,-2 0,0 0,-1 0,-1l0 0z"/>
      <path class="fil1" d="M6 12l0 0 0 0c0,0 1,0 1,0 1,0 1,-1 2,-1 0,0 1,0 2,1 -1,1 -2,3 -3,5 -1,-1 -1,-1 -2,-2 0,0 0,-1 0,-2 0,0 0,-1 0,-1l0 0z"/>
      <path class="fil1" d="M3 24c0,-1 0,-1 1,-1 0,-1 0,-1 1,-2 0,0 1,-1 2,-1 0,1 0,2 0,4l-4 0z"/>
      <path class="fil1" d="M25 1l0 0 0 0c1,0 1,0 1,1 1,0 1,0 2,1 0,0 0,1 1,2 -1,0 -3,0 -4,0 -1,0 -2,0 -3,0 0,-1 1,-2 1,-2 1,-1 1,-1 1,-1 1,-1 1,-1 1,-1l0 0z"/>
      <path class="fil2" d="M22 24l1 0c0,-2 0,-3 -1,-2 -1,0 -2,1 -3,2l2 0c0,-1 0,-1 0,-1 1,0 1,0 1,1l0 0z"/>
      <path class="fil2" d="M28 24l2 0c0,-3 -1,-5 -2,-7 0,-1 -2,-2 -4,-3 -2,0 -5,1 -8,3 -2,2 -4,4 -6,7l2 0c2,-3 7,-8 11,-8 1,0 2,0 3,1 0,1 1,2 1,3 0,0 0,0 -1,0 0,0 0,0 -1,-1 0,-1 -2,-1 -3,-1 -1,0 -3,1 -5,2 -1,1 -2,2 -3,4l3 0c1,-2 2,-3 3,-3 0,-1 1,-1 1,-1 2,0 3,0 3,1 1,1 1,1 1,2l0 1 1 0 0 -1c0,0 0,0 0,-1 0,0 1,-1 1,-1 1,0 1,2 1,3l0 0z"/>
      <path class="fil2" d="M32 24l1 0c0,-2 0,-5 0,-7 0,0 -1,0 -1,-1 0,-1 -1,-1 -1,-2 -1,-1 -2,-2 -3,-2 0,0 0,-1 -1,-1l0 0c0,0 0,0 0,0l0 0c-4,-1 -7,0 -10,1 -1,0 -1,1 -2,1 0,1 -1,1 -1,1l0 0 0 0 0 0c-1,1 -2,1 -2,2 0,0 -1,0 -1,0 0,1 -1,1 0,2 0,0 0,0 0,0 1,0 1,0 1,-1 1,0 1,0 2,-1 1,-1 3,-2 4,-3 1,0 1,0 2,0 0,0 0,0 1,0l0 0c3,-1 6,-1 8,2 2,2 3,5 3,9l0 0zm-22 -3c0,0 0,-1 0,-1 0,0 0,-1 0,-1 0,0 0,0 0,0 0,0 0,0 0,0 0,0 -1,0 -1,0 0,0 0,1 -1,2 0,0 0,0 0,0 0,0 0,0 0,0l0 0 0 0c1,0 1,0 1,0 0,0 0,0 0,0 0,0 0,0 0,0l0 0 0 0c0,0 0,0 1,0l0 0z"/>
      <path class="fil2" d="M36 24l0 0 0 0c0,0 1,-1 1,-1 0,0 0,0 0,0 0,0 0,0 0,0l0 0 0 0 0 0c0,-5 -2,-9 -4,-12 -1,-1 -1,-1 -2,-2 0,0 -1,0 -2,-1l0 0 0 0 0 0c-2,-1 -4,-1 -7,-1 0,0 0,0 -1,0 0,0 -1,0 -1,0l0 0c-3,1 -5,3 -7,5 0,0 -1,0 -1,1 0,0 0,0 0,0 1,-1 2,-2 4,-3 0,0 0,0 1,0 0,0 0,0 1,-1l0 0 0 0c1,0 2,0 4,-1 1,0 2,0 4,1 0,0 1,0 2,0 0,0 0,0 1,0 0,1 0,1 0,1l0 0 0 0 0 0c3,1 5,5 6,8 0,1 0,2 0,2 0,1 0,2 0,3l0 0 0 0c0,0 0,0 1,0 0,0 0,1 0,1l0 0c0,0 0,0 0,0l0 0z"/>
      <path class="fil1" d="M31 7c7,2 12,9 12,17l-4 0c1,-7 -2,-13 -8,-17z"/>
      <path class="fil2" d="M11 29l-2 0 0 1 -1 0 1 -4 2 0 1 4 -1 0 0 -1zm-1 -1l1 0c-1,-1 -1,-1 -1,-2l0 0 0 1 0 1zm6 1l-1 0 -1 1 -1 0 2 -4 1 0 1 4 -1 0 0 -1 0 0zm-1 -1l1 0c-1,-1 -1,-1 -1,-2l0 0 0 1 0 1 0 0zm3 2l0 -4c1,-1 1,-1 2,-1 1,0 2,1 2,1 0,0 1,1 1,2 0,0 -1,1 -1,2 -1,0 -1,0 -2,0 -1,0 -1,0 -2,0l0 0zm2 -4l0 3c0,0 0,0 0,0 0,0 1,0 1,0 0,0 1,-1 1,-1 0,-1 -1,-1 -1,-1 0,-1 0,-1 -1,-1 0,0 0,0 0,0l0 0zm4 0l1 0 0 1 2 0 0 -1 1 0 0 4 -1 0 0 -2 -2 0 0 2 -1 0 0 -4zm8 3l-2 0 0 1 -1 0 1 -4 2 0 1 4 -1 0 0 -1 0 0zm-2 -1l1 0c0,-1 0,-1 0,-2l0 0 0 1 -1 1 0 0zm7 1l-2 0 0 1 -1 0 1 -4 2 0 1 4 -1 0 0 -1 0 0zm-2 -1l2 0c-1,-1 -1,-1 -1,-2l0 0 0 1 -1 1 0 0zm4 2l0 -4c1,-1 1,-1 2,-1 0,0 1,1 1,1 0,0 1,0 1,1 0,0 0,0 -1,0 0,1 0,1 0,1l0 0c0,0 0,0 0,1 1,1 1,1 1,1l-1 0c0,0 0,0 -1,-1 0,0 0,0 0,-1 0,0 0,0 0,0l-1 0 0 2 -1 0 0 0zm1 -4l0 2 1 0c0,0 0,-1 0,-1 1,0 1,0 1,0 0,0 0,0 -1,-1 0,0 0,0 0,0 0,0 -1,0 -1,0z"/>
     </g>
    </g>
    <polygon class="fil3" points="2,0 49,0 49,24 2,24 "/>
    <path class="fil4" d="M5 30l-1 0 -1 -1 -2 0 0 1 -1 0 2 -5 1 0 2 5zm-2 -2l-1 -2 0 2 1 0zm7 2l-1 0 -1 -1 -2 0 0 1 -1 0 2 -5 1 0 2 5zm-2 -2l-1 -2 0 2 1 0zm2 -3l2 0c0,0 1,0 1,0 0,1 0,1 1,1 0,0 0,0 0,1 0,0 0,0 0,1 0,0 0,1 0,1 0,0 0,0 0,1 -1,0 -1,0 -1,0 0,0 -1,0 -1,0l-2 0 0 -5zm1 1l0 3 1 0c0,0 0,0 1,0 0,0 0,0 0,0 0,0 0,0 0,0 0,-1 0,-1 0,-1 0,-1 0,-1 0,-1 0,0 0,0 0,-1 0,0 0,0 -1,0 0,0 0,0 0,0l-1 0zm4 4l0 -5 1 0 0 2 2 0 0 -2 1 0 0 5 -1 0 0 -2 -2 0 0 2 -1 0zm9 0l-1 0 0 -1 -2 0 0 1 -2 0 2 -5 1 0 2 5zm-1 -2l-1 -2 -1 2 2 0zm6 2l-1 0 0 -1 -2 0 -1 1 -1 0 2 -5 1 0 2 5zm-2 -2l0 -2 -1 2 1 0zm3 2l0 -5 2 0c0,0 1,0 1,0 0,1 0,1 0,1 1,0 1,0 1,1 0,0 0,0 -1,1 0,0 0,0 -1,0 1,0 1,0 1,0 0,1 0,1 0,1l1 1 -1 0 -1 -1c0,0 0,-1 0,-1 0,0 -1,0 -1,0 0,0 0,0 0,0l0 0 0 2 -1 0zm1 -3l0 0c1,0 1,0 1,0 0,0 0,0 1,0 0,0 0,0 0,0 0,0 0,-1 0,-1 -1,0 -1,0 -1,0 0,0 0,0 -1,0l0 0 0 1zm3 2l0 -1 2 0 0 1 -2 0zm3 1l0 -5 1 0c1,0 1,0 2,0 0,0 0,1 0,1 0,0 1,0 1,1 0,0 -1,0 -1,1 0,0 0,0 0,0 0,0 0,0 -1,0 0,0 0,0 -1,0l0 0 0 2 -1 0zm1 -4l0 2 0 0c1,0 1,-1 1,-1 0,0 0,0 0,0 0,0 1,0 1,0 0,0 -1,0 -1,-1 0,0 0,0 0,0 0,0 0,0 -1,0l0 0zm7 4l-1 0 0 -1 -2 0 -1 1 -1 0 2 -5 1 0 2 5zm-2 -2l0 -2 -1 2 1 0zm3 2l0 -2 -1 -3 1 0 1 2 1 -2 1 0 -2 3 0 2 -1 0z"/>
    <g>
     <path class="fil5" d="M37 9l10 0 0 0c-1,1 -1,1 -1,1l-3 0c0,1 1,1 1,2l3 0c0,0 0,0 0,0 -1,1 -1,1 -1,1l-2 0c0,0 0,1 -1,2 0,0 -1,1 -1,1 -1,0 -2,1 -3,1l0 0c0,0 2,2 6,6l-3 0c-3,-4 -5,-6 -5,-6l0 -1 0 0c0,0 0,0 1,0 2,0 3,-1 4,-2 0,-1 0,-1 0,-1l-6 0c0,0 0,0 0,0 1,-1 1,-1 1,-1l5 0 0 0c-1,-1 -1,-1 -2,-2 0,0 -1,0 -1,0l-3 0 0 0c1,-1 1,-1 1,-1z"/>
     <path id="1" class="fil6 str0" d="M37 9l10 0 0 0c-1,1 -1,1 -1,1l-3 0c0,1 1,1 1,2l3 0c0,0 0,0 0,0 -1,1 -1,1 -1,1l-2 0c0,0 0,1 -1,2 0,0 -1,1 -1,1 -1,0 -2,1 -3,1l0 0c0,0 2,2 6,6l-3 0c-3,-4 -5,-6 -5,-6l0 -1 0 0c0,0 0,0 1,0 2,0 3,-1 4,-2 0,-1 0,-1 0,-1l-6 0c0,0 0,0 0,0 1,-1 1,-1 1,-1l5 0 0 0c-1,-1 -1,-1 -2,-2 0,0 -1,0 -1,0l-3 0 0 0c1,-1 1,-1 1,-1z"/>
    </g>
   </g>
  </g>
 </g>
</svg>
