<?xml version="1.0" encoding="UTF-8"?>
<!DOCTYPE svg PUBLIC "-//W3C//DTD SVG 1.1//EN" "http://www.w3.org/Graphics/SVG/1.1/DTD/svg11.dtd">
<!-- Creator: CorelDRAW -->
<svg xmlns="http://www.w3.org/2000/svg" xml:space="preserve" width="0.641209in" height="0.641209in" style="shape-rendering:geometricPrecision; text-rendering:geometricPrecision; image-rendering:optimizeQuality; fill-rule:evenodd; clip-rule:evenodd"
viewBox="0 0 0.0948176 0.0948176"
 xmlns:xlink="http://www.w3.org/1999/xlink">
 <defs>
  <style type="text/css">
   <![CDATA[
    .str0 {stroke:#1F1A17;stroke-width:0.00044362}
    .str1 {stroke:black;stroke-width:0.00044362}
    .fil1 {fill:#D52736}
    .fil0 {fill:#FAB60F}
    .fil4 {fill:white}
    .fil2 {fill:#D52736;fill-rule:nonzero}
    .fil3 {fill:white;fill-rule:nonzero}
   ]]>
  </style>
 </defs>
 <g id="Layer_x0020_1">
  <metadata id="CorelCorpID_0Corel-Layer"/>
  <g id="_81866696">
   <path id="_188182912" class="fil0" d="M0.0760336 0.0428291l0 0 0 0c-0.00034756,0.000526289 -0.000474475,0.0011597 -0.000580432,0.00181989 -0.000130408,0.00080457 -0.00026722,0.00157596 -0.000551905,0.00233337 -0.000341739,0.000905869 -0.000915184,0.00191711 -0.0019142,0.00270771 -0.00103744,-0.00280959 -0.00254819,-0.00539039 -0.00443387,-0.00764691 0.00118997,-0.000476804 0.00235724,-0.000468653 0.00331842,-0.000310301 0.000797584,0.000132154 0.00153404,0.000399374 0.00229553,0.000688717 0.000624677,0.000238111 0.00123713,0.000445366 0.00186646,0.000407525l0 0z"/>
   <path id="_187367712" class="fil0" d="M0.064446 0.0312408l0 1.16436e-006 0 -1.16436e-006c-3.84238e-005,0.000630499 0.000168832,0.00124237 0.000406943,0.00186646 0.000289343,0.000762071 0.000556562,0.00149911 0.000688717,0.00229669 0.000158935,0.000961176 0.000165339,0.00213077 -0.000310883,0.00332133 -0.00226002,-0.00188335 -0.0048443,-0.00339061 -0.00765681,-0.00442514 0.000792344,-0.001006 0.00180766,-0.00158411 0.00271877,-0.00192701 0.000757414,-0.000284685 0.00152822,-0.000421497 0.00233395,-0.000551905 0.000659608,-0.000105374 0.00129244,-0.000231707 0.00181931,-0.000580432l0 0z"/>
   <path id="_187362840" class="fil0" d="M0.0742073 0.0542398c0.00125983,0.000185715 0.00226234,0.000773133 0.00301103,0.00138733 0.000624677,0.000514063 0.00112943,0.00111371 0.00164407,0.00174479 0.000422079,0.000518721 0.000847651,0.00100426 0.00141236,0.00128603l-0.00568672 0c-1.16436e-006,-0.00150726 -0.000132154,-0.00298192 -0.000380744,-0.00441815z"/>
   <path id="_187362696" class="fil0" d="M0.0327865 0.0312408l0 1.16436e-006 0 -1.16436e-006c0.000526871,0.000348725 0.0011597,0.000475057 0.00182047,0.000580432 0.00080457,0.000130408 0.00157537,0.00026722 0.00233279,0.000551905 0.000911109,0.000342903 0.00192643,0.000921006 0.00271877,0.00192817 -0.0028125,0.00103337 -0.00539679,0.00254063 -0.00765681,0.00442397 -0.000476222,-0.00119055 -0.000469818,-0.00236015 -0.000310883,-0.00332133 0.000132154,-0.000797584 0.000399374,-0.00153462 0.000688717,-0.00229669 0.000238111,-0.000624095 0.000445366,-0.00123596 0.000406943,-0.00186646l0 0z"/>
   <path id="_187359240" class="fil0" d="M0.0211989 0.0428291l1.16436e-006 5.82178e-007 -1.16436e-006 -5.82178e-007c0.000630499,3.78416e-005 0.00124179,-0.000169414 0.00186646,-0.000407525 0.000762071,-0.000289343 0.00149911,-0.000556562 0.00229669,-0.000688717 0.000960012,-0.000158352 0.00212844,-0.000165339 0.00331725,0.000310301 -0.00188567,0.00225652 -0.00339526,0.00483732 -0.00443387,0.00764807 -0.000999018,-0.000791762 -0.00157246,-0.00180184 -0.0019142,-0.00270887 -0.000284685,-0.000756832 -0.000421497,-0.0015288 -0.000551905,-0.00233337 -0.000105956,-0.00066019 -0.000231707,-0.0012936 -0.000580432,-0.00181989l0 0z"/>
   <path id="_187369944" class="fil0" d="M0.0169583 0.0586579c0.000564713,-0.000281774 0.000990285,-0.000767311 0.00141295,-0.00128603 0.000514645,-0.000631081 0.00101881,-0.00123072 0.00164407,-0.00174362 0.000748681,-0.00061478 0.00175003,-0.00120278 0.00301044,-0.00138849 -0.00024859,0.00143623 -0.000378998,0.00291205 -0.000380744,0.00441815l-0.00568672 0z"/>
   <path id="_187359312" class="fil0" d="M0.0486165 0.0269997l0 1.16436e-006 0 -1.16436e-006c0.000281774,0.000564713 0.000767311,0.000991449 0.00128603,0.00141295 0.000631081,0.000515228 0.00123189,0.00101881 0.00174479,0.00164349 0.000618273,0.000754503 0.00120977,0.00176342 0.00139141,0.00303431 -0.0014374,-0.000246261 -0.00291438,-0.000376669 -0.00442223,-0.000376669 -0.00150784,0 -0.00298483,0.000130408 -0.00442223,0.000376669 0.00018164,-0.00127089 0.000773715,-0.00227981 0.00139141,-0.00303373 0.000514063,-0.000625259 0.00111371,-0.00112884 0.00174479,-0.00164465 0.000518721,-0.000420915 0.00100426,-0.000847651 0.00128603,-0.00141236l0 0z"/>
   <path id="_187373160" class="fil1" d="M0.043335 0.0586638l0.00195437 -5.82178e-006c0.000256158,-0.00165106 -0.000245679,-0.00292137 -0.00191537,-0.00261747 -0.00140596,0.000254994 -0.00291846,0.0016528 -0.00383131,0.00261747l0.00257672 -1.16436e-005c0.000287014,-0.000188626 0.000848816,-0.000404032 0.00107936,-0.000243933 8.61624e-005,6.11287e-005 0.00013099,0.000146127 0.00013623,0.000261398l0 0z"/>
   <path id="_187376928" class="fil1" d="M0.0521224 0.0586579l0.00243758 0c0.000116436,-0.00287887 -0.00034756,-0.00585205 -0.00168599,-0.00842412 -0.00121733,-0.00233977 -0.00322934,-0.00393087 -0.00583459,-0.00431569 -0.00380279,-0.000560638 -0.00764109,0.00104908 -0.010885,0.00335276 -0.00353207,0.00250744 -0.0064482,0.00591377 -0.00899582,0.00938704l0.00322061 -4.65743e-006c0.00289866,-0.0041096 0.00956693,-0.0103482 0.0144729,-0.0103884 0.00156373,-1.22257e-005 0.00315308,0.000353382 0.00432849,0.00140247 0.000851144,0.000759742 0.00188393,0.00223498 0.0018327,0.00343194 -3.02733e-005,0.000710839 -0.00066019,0.000927992 -0.00126391,0.000708511 -0.000469818,-0.00017116 -0.000801659,-0.000599643 -0.00112943,-0.00105083 -0.00106771,-0.00146592 -0.00273274,-0.00218259 -0.00455845,-0.00193283 -0.00217851,0.000297493 -0.00487865,0.00198872 -0.00661937,0.00352684 -0.00150202,0.00132737 -0.0028812,0.00277874 -0.00418062,0.00430695l0.00346221 0c0.00126915,-0.00153171 0.00260874,-0.00283812 0.00433141,-0.00391165 0.000544919,-0.00033941 0.00121617,-0.000697449 0.00192177,-0.000940218 0.0017803,-0.000612451 0.00355187,-0.00045701 0.00433839,0.00175876 0.000309137,0.000871521 0.000354546,0.00163592 0.000264309,0.00303664l0 5.64713e-005 0.00235433 0 5.82178e-006 -7.16079e-005c2.32871e-006,-0.000766729 -1.45545e-005,-0.0012837 5.41426e-005,-0.00204403 5.93822e-005,-0.00065495 0.000263145,-0.00133377 0.000872103,-0.00141528 0.00129244,-0.000270131 0.00123072,0.00260699 0.00125634,0.00353091l0 0z"/>
   <path id="_187349424" class="fil1" d="M0.0571233 0.0586579l0.00245796 0c0.000119347,-0.00267045 -0.000109449,-0.00583517 -0.000973402,-0.00859819 -0.000171743,-0.000544919 -0.00036619,-0.00107412 -0.000587418,-0.00157945 -0.000522796,-0.00119405 -0.00122723,-0.00227515 -0.00206673,-0.00327417 -0.000932649,-0.00111021 -0.00204461,-0.0021069 -0.00329804,-0.00289284 -0.000369101,-0.000232289 -0.000752756,-0.000446531 -0.00114864,-0.000640396l0 0c-0.00039297,-0.000191537 -0.000799913,-0.000363861 -0.00121792,-0.000512317l-5.82178e-007 0c-0.00478725,-0.00169996 -0.00962864,-0.000491358 -0.0136899,0.00171743 -0.000791762,0.000431394 -0.00155442,0.000898883 -0.00227923,0.00139141 -0.000725394,0.000491358 -0.00141586,0.00100775 -0.00206615,0.0015352l0 0 0 0 -5.82178e-007 1.16436e-006c-0.000771386,0.000625259 -0.00173547,0.00148048 -0.00269025,0.00249172 -0.000188044,0.000199687 -0.000373758,0.000402285 -0.000554234,0.00060663 -0.000483208,0.00054783 -0.00122781,0.0013163 -0.00100659,0.00210981 0.000174653,0.000629335 0.000987374,0.00044362 0.00126973,0.000227049 0.000434887,-0.000232871 0.000911109,-0.000602554 0.00131922,-0.000948368 0.000553069,-0.000467489 0.00107587,-0.000970491 0.00162253,-0.00144497 0.00221402,-0.00191944 0.00452061,-0.00339876 0.00679402,-0.0044001 0.000494851,-0.000218317 0.000990867,-0.000415093 0.00148514,-0.000589164 0.000492523,-0.000172325 0.000981552,-0.000321945 0.00146825,-0.000448277l1.74653e-006 -1.16436e-006c0.00422894,-0.00109799 0.00882407,-0.000386566 0.0117658,0.00306226 0.00283521,0.00332133 0.00335218,0.00776858 0.00339585,0.0121867l-5.82178e-007 0zm-0.0304997 -0.00375505c0.000264309,-0.000246261 0.000533275,-0.000568206 0.000813885,-0.000924499 0.000392388,-0.00049718 0.000431976,-0.000979806 0.000277117,-0.00132737 -5.76356e-005,-0.000129826 -0.000143798,-0.000241604 -0.000246844,-0.000328348 -0.000102463,-8.55802e-005 -0.000223556,-0.000147291 -0.000355129,-0.0001764 -0.000319616,-7.33544e-005 -0.000702689,4.13346e-005 -0.00102638,0.000436634 -0.000367937,0.000445948 -0.000875014,0.00121035 -0.000978641,0.00188567 -1.86297e-005,0.000126915 -2.44515e-005,0.000249754 -1.10614e-005,0.000365026 1.22257e-005,0.00011236 4.2499e-005,0.000219481 9.31485e-005,0.000317287l0 5.82178e-007 0 0c8.32515e-005,0.000158935 0.000222392,0.000241604 0.000408107,0.000249754 3.90059e-005,1.16436e-006 8.15049e-005,-1.16436e-006 0.000126333,-5.82178e-006 4.30812e-005,-5.2396e-006 9.02376e-005,-1.39723e-005 0.000139723,-2.44515e-005l1.16436e-006 0 1.74653e-006 -1.16436e-006c0.000250919,-5.93822e-005 0.000501255,-0.000228214 0.000756832,-0.000466907l0 0z"/>
   <path id="_187377456" class="fil1" d="M0.0632734 0.0586591l1.74653e-005 0 8.73267e-006 0c0.000256741,1.33901e-005 0.000703853,-0.000104792 0.000961176,-0.000539097 5.06495e-005,-8.73267e-005 9.4895e-005,-0.000186297 0.000128079,-0.000298657 3.43485e-005,-0.000114689 5.76356e-005,-0.000244515 6.75327e-005,-0.000391224l0 0 1.74653e-006 -2.96911e-005 0 0c0.000196194,-0.00682779 -0.00189557,-0.012479 -0.00544453,-0.0163185 -0.000690463,-0.00074577 -0.00143565,-0.00142401 -0.00223149,-0.00202947 -0.000794673,-0.000604883 -0.00163708,-0.00113699 -0.00252316,-0.00159051l0 0 -1.33901e-005 -6.98614e-006 -1.16436e-006 -5.82178e-007c-0.00298366,-0.00152472 -0.00636786,-0.00211098 -0.00968919,-0.0018292 -0.000647964,5.47247e-005 -0.00129302,0.000142051 -0.00192876,0.000262562 -0.000638067,0.000119347 -0.00127031,0.000271877 -0.00189383,0.000455845l-8.73267e-006 2.91089e-006c-0.00341622,0.00101008 -0.00659491,0.00301626 -0.00918502,0.00564771 -0.000505331,0.000512899 -0.000987956,0.00104908 -0.00144264,0.00160507 -0.000227049,0.000275952 -0.000448277,0.000557727 -0.000661354,0.000843576 0.00181581,-0.00156781 0.00376553,-0.00294291 0.00580373,-0.00403508 0.000459339,-0.000245679 0.000921006,-0.000477386 0.00138384,-0.000691045 0.000463996,-0.000215406 0.000933814,-0.000415093 0.00140829,-0.000599643l1.16436e-006 -1.16436e-006 1.74653e-006 0c0.00180068,-0.000699778 0.00357574,-0.00114689 0.00535196,-0.00134541 0.00177623,-0.000199687 0.00355362,-0.000152531 0.00535837,0.000133901 0.0012837,0.000204345 0.00253713,0.000541426 0.00366656,0.00101066 0.000219481,9.19841e-005 0.000434305,0.000189208 0.000646218,0.000291089 0.000207255,0.000101881 0.000412764,0.00020842 0.000613034,0.000321945l1.16436e-006 0 2.91089e-006 1.74653e-006 0 0c0.00397511,0.00217735 0.00673813,0.00664382 0.0079543,0.0116878 0.000236946,0.000984463 0.000415675,0.00198872 0.000533275,0.00300113 0.000116436,0.00101124 0.000173489,0.00203471 0.000166503,0.00305527l0 1.16436e-006 -1.16436e-006 5.88e-005c2.09584e-005,0.000546083 0.000207838,0.00100309 0.000528618,0.0012086 5.99643e-005,3.78416e-005 0.000124004,6.81148e-005 0.000192701,8.67445e-005l1.16436e-006 0c7.04436e-005,2.09584e-005 0.000144962,3.08554e-005 0.000222974,2.96911e-005l1.16436e-006 0z"/>
   <path id="_187373256" class="fil0" d="M0.0561645 0.0359064c0.0095582,0.00315657 0.0164675,0.0121466 0.0165077,0.0227515l-0.00472962 0c0.000312047,-0.0092642 -0.0037306,-0.0176266 -0.011778,-0.0227515z"/>
   <path id="_187373520" class="fil2" d="M0.0201393 0.0678179l-0.00146825 0 -0.000583342 -0.00151774 -0.00267162 0 -0.000550741 0.00151774 -0.00143099 0 0.00260234 -0.00668224 0.0014275 0 0.00267511 0.00668224zm-0.00248357 -0.00264309l-0.00092217 -0.00248066 -0.000901212 0.00248066 0.00182338 0zm0.00922461 0.00264309l-0.00146825 0 -0.000583342 -0.00151774 -0.00267162 0 -0.000550741 0.00151774 -0.00143099 0 0.00260292 -0.00668224 0.00142692 0 0.00267511 0.00668224zm-0.00248357 -0.00264309l-0.00092217 -0.00248066 -0.000901212 0.00248066 0.00182338 0zm0.00319499 -0.00403915l0.00246552 0c0.000555398,0 0.000978641,4.19168e-005 0.00127148,0.000127497 0.000392388,0.000115853 0.000728305,0.000320198 0.00100659,0.000616527 0.000279446,0.000294 0.000493105,0.00065495 0.000639232,0.00108169 0.000144962,0.000427319 0.000218317,0.000953026 0.000218317,0.00158003 0,0.000549576 -6.92792e-005,0.00102347 -0.000206091,0.00142168 -0.000165921,0.000486119 -0.000403449,0.000879671 -0.000716079,0.00117949 -0.000232871,0.000228796 -0.000548412,0.00040636 -0.000946622,0.000533857 -0.000297493,9.4895e-005 -0.000695121,0.000141469 -0.00119521,0.000141469l-0.00253713 0 0 -0.00668224zm0.00134949 0.00113117l0 0.00442455 0.00100542 0c0.000376669,0 0.000649129,-2.03762e-005 0.00081796,-6.34574e-005 0.000217152,-5.41426e-005 0.000398792,-0.000146709 0.000543754,-0.000277117 0.000144962,-0.00013099 0.000261398,-0.000346978 0.0003528,-0.000645636 9.08198e-005,-0.000298657 0.000136812,-0.000707929 0.000136812,-0.00122374 0,-0.000516974 -4.59921e-005,-0.000911691 -0.000136812,-0.00118881 -9.1402e-005,-0.000277117 -0.000219481,-0.000493105 -0.000381909,-0.000647964 -0.000165339,-0.000155442 -0.000373758,-0.000259069 -0.000625841,-0.000313794 -0.000187461,-4.36634e-005 -0.000556562,-6.40396e-005 -0.0011073,-6.40396e-005l-0.000604883 0zm0.0053997 0.00555107l0 -0.00668224 0.00135007 0 0 0.0026297 0.00264367 0 0 -0.0026297 0.00134832 0 0 0.00668224 -0.00134832 0 0 -0.00292137 -0.00264367 0 0 0.00292137 -0.00135007 0zm0.0127625 0l-0.00146767 0 -0.000583925 -0.00151774 -0.00267162 0 -0.000550741 0.00151774 -0.00143099 0 0.00260292 -0.00668224 0.0014275 0 0.00267453 0.00668224zm-0.00248357 -0.00264309l-0.000921588 -0.00248066 -0.000901794 0.00248066 0.00182338 0zm0.00922461 0.00264309l-0.00146767 0 -0.000583925 -0.00151774 -0.00267162 0 -0.000550741 0.00151774 -0.00143041 0 0.00260234 -0.00668224 0.0014275 0 0.00267453 0.00668224zm-0.00248357 -0.00264309l-0.000921588 -0.00248066 -0.000901794 0.00248066 0.00182338 0zm0.00320314 0.00264309l0 -0.00668224 0.00284103 0c0.00071375,0 0.00123189,6.11287e-005 0.00155558,0.000181057 0.000323109,0.000119929 0.000583342,0.000332424 0.00077779,0.000638649 0.00019503,0.000307972 0.000291089,0.000658443 0.000291089,0.00105316 0,0.000501255 -0.000148455,0.000916348 -0.000442455,0.00124295 -0.000294,0.00032602 -0.000735291,0.000532693 -0.00132213,0.000616527 0.000292836,0.00017116 0.000533857,0.000357457 0.000723647,0.000562384 0.000190372,0.00020318 0.000444784,0.000564131 0.000767311,0.00108343l0.000816214 0.00130408 -0.00161263 0 -0.000976313 -0.00145428c-0.000346978,-0.000520467 -0.000583342,-0.000846487 -0.000710257,-0.000982135 -0.000127497,-0.000135648 -0.000263727,-0.000227049 -0.000405778,-0.000278281 -0.000143798,-4.94851e-005 -0.000369101,-7.45188e-005 -0.000681148,-7.45188e-005l-0.000271295 0 0 0.00278922 -0.00135065 0zm0.00135065 -0.00385693l0.000996107 0c0.000648546,0 0.001052,-2.6198e-005 0.00121384,-8.03406e-005 0.000160681,-5.53069e-005 0.000286432,-0.000149038 0.000378998,-0.000284103 8.90733e-005,-0.000133319 0.000136812,-0.00029924 0.000136812,-0.000500673 0,-0.000225303 -6.11287e-005,-0.00040636 -0.000181057,-0.000544337 -0.000119929,-0.000137976 -0.000289343,-0.000225885 -0.000508824,-0.000263145 -0.000108867,-1.39723e-005 -0.000436634,-2.15406e-005 -0.000983881,-2.15406e-005l-0.001052 0 0 0.00169414zm0.00523203 0.0020743l0 -0.00128021 0.00251559 0 0 0.00128021 -0.00251559 0zm0.00326311 0.00178263l0 -0.00668224 0.00216396 0c0.000819707,0 0.00135473,3.37663e-005 0.00160507,0.000101881 0.000381909,9.95525e-005 0.000704436,0.000316705 0.00096234,0.000652622 0.000257905,0.000335917 0.000386566,0.000770222 0.000386566,0.00130059 0,0.000410436 -7.45188e-005,0.000756832 -0.000223556,0.00103511 -0.00014962,0.000280028 -0.000337081,0.000499509 -0.000568206,0.000659026 -0.000228214,0.000158352 -0.000461085,0.000264891 -0.000697449,0.000315541 -0.000322527,6.46218e-005 -0.000789434,9.72237e-005 -0.00140014,9.72237e-005l-0.000879089 0 0 0.00252025 -0.00134949 0zm0.00134949 -0.00555107l0 0.00189557 0.00073762 0c0.000531529,0 0.000887822,-3.49307e-005 0.00106655,-0.000105374 0.000178729,-6.8697e-005 0.000319034,-0.000178729 0.000421497,-0.000327766 0.000100717,-0.00014962 0.000153113,-0.000322527 0.000153113,-0.000519303 0,-0.00024335 -7.16079e-005,-0.00044362 -0.000214824,-0.000602554 -0.000141469,-0.000156606 -0.000323691,-0.000257323 -0.000542008,-0.000295746 -0.000161846,-3.02733e-005 -0.000484954,-4.48277e-005 -0.000970491,-4.48277e-005l-0.000651457 0zm0.0102102 0.00555107l-0.00146825 0 -0.000583925 -0.00151774 -0.00267103 0 -0.000551323 0.00151774 -0.00143041 0 0.00260234 -0.00668224 0.0014275 0 0.00267511 0.00668224zm-0.00248415 -0.00264309l-0.000921588 -0.00248066 -0.000901794 0.00248066 0.00182338 0zm0.00409562 0.00264309l0 -0.00281308 -0.00244631 -0.00386916 0.00158236 0 0.00157188 0.00264309 0.00154044 -0.00264309 0.00155442 0 -0.00245679 0.00387847 0 0.00280377 -0.001346 0z"/>
   <path id="_1873662241" class="fil3 str0" d="M0.0648209 0.0381286l0.0131182 0 0 2.73624e-005c-0.000773133,0.00119172 -0.00121035,0.00182513 -0.00130815,0.00190838l-0.00350529 0c0.000479133,0.000563548 0.00080981,0.00125285 0.000982135,0.002058l0.00373351 0c4.59921e-005,9.89703e-006 6.98614e-005,2.73624e-005 6.98614e-005,5.58891e-005 -0.000837754,0.00125634 -0.00126158,0.00188102 -0.00128021,0.00188102l-0.00243001 0c-5.06495e-005,0.0006468 -0.000363279,0.00142343 -0.000926828,0.00233162 -0.000744606,0.00092217 -0.00145719,0.00151774 -0.00214125,0.00178787 -0.00127089,0.000610123 -0.00249056,0.000912273 -0.00365375,0.000912273l0 2.85267e-005c0,9.31485e-005 0.00263028,0.00321653 0.00789492,0.00937016l-0.00347793 0c-0.00512491,-0.00597257 -0.00768999,-0.00897486 -0.00768999,-0.00900338l0 -0.00181057 2.73624e-005 -7.04436e-005c0.000452352,6.57861e-005 0.000987956,9.78059e-005 0.00159226,9.78059e-005 0.00287712,0 0.00466034,-0.00093556 0.00536302,-0.00279678 0.000106539,-0.000274788 0.000163592,-0.000553651 0.000163592,-0.000847069l-0.00780293 0c-3.66772e-005,0 -5.53069e-005,-1.86297e-005 -5.53069e-005,-5.12317e-005 0.000865699,-0.0012575 0.00130815,-0.00188567 0.00132678,-0.00188567l0.00619146 0 0 -2.85267e-005c-0.000353964,-0.000716079 -0.00104268,-0.00127497 -0.00206266,-0.00167551 -0.000725976,-0.000237529 -0.00138267,-0.000353964 -0.00196427,-0.000353964l-0.00346338 0 0 -6.92792e-005c0.000837754,-0.00124295 0.00127031,-0.00186646 0.00129884,-0.00186646z"/>
  </g>
  <path class="fil4 str1" d="M0.0474085 0.00022181c0.026056,0 0.0471873,0.0211313 0.0471873,0.0471867 0,0.026056 -0.0211313,0.0471873 -0.0471873,0.0471873 -0.0260554,0 -0.0471867,-0.0211313 -0.0471867,-0.0471873 0,-0.0260554 0.0211313,-0.0471867 0.0471867,-0.0471867zm0 0.00188276c0.0250162,0 0.0453045,0.0202877 0.0453045,0.0453039 0,0.0250162 -0.0202883,0.0453045 -0.0453045,0.0453045 -0.0250162,0 -0.0453039,-0.0202883 -0.0453039,-0.0453045 0,-0.0250162 0.0202877,-0.0453039 0.0453039,-0.0453039z"/>
 </g>
</svg>
