<?xml version="1.0" encoding="UTF-8"?>
<!DOCTYPE svg PUBLIC "-//W3C//DTD SVG 1.1//EN" "http://www.w3.org/Graphics/SVG/1.1/DTD/svg11.dtd">
<!-- Creator: CorelDRAW -->
<svg xmlns="http://www.w3.org/2000/svg" xml:space="preserve" width="0.641209in" height="0.641209in" style="shape-rendering:geometricPrecision; text-rendering:geometricPrecision; image-rendering:optimizeQuality; fill-rule:evenodd; clip-rule:evenodd"
viewBox="0 0 3.01861 3.01861"
 xmlns:xlink="http://www.w3.org/1999/xlink">
 <defs>
  <style type="text/css">
   <![CDATA[
    .str0 {stroke:black;stroke-width:0.014123}
    .fil3 {fill:#C5DC0E}
    .fil0 {fill:white}
    .fil2 {fill:#BFD71D}
    .fil1 {fill:#383431;fill-rule:nonzero}
   ]]>
  </style>
 </defs>
 <g id="Layer_x0020_1">
  <metadata id="CorelCorpID_0Corel-Layer"/>
  <path class="fil0 str0" d="M1.50929 0.00706152c0.829516,0 1.50225,0.672735 1.50225,1.50223 0,0.829516 -0.672735,1.50225 -1.50225,1.50225 -0.829497,0 -1.50223,-0.672735 -1.50223,-1.50225 0,-0.829497 0.672735,-1.50223 1.50223,-1.50223zm0 0.0599396c0.796414,0 1.44231,0.645879 1.44231,1.44229 0,0.796414 -0.645898,1.44231 -1.44231,1.44231 -0.796414,0 -1.44229,-0.645898 -1.44229,-1.44231 0,-0.796414 0.645879,-1.44229 1.44229,-1.44229z"/>
  <g id="_82228032">
   <path id="_82228080" class="fil1" d="M0.311096 1.49699c0.0214626,0 0.0281164,-0.00237238 0.029525,-0.0161803l0.00908175 -0.08674 0.0304887 0c0.0395705,0 0.067242,-0.00524517 0.08674,-0.0209807 0.0228897,-0.0185898 0.0343253,-0.064814 0.0343253,-0.103421 0,-0.0595689 -0.0300439,-0.071023 -0.08674,-0.071023 -0.029525,0 -0.0590684,0.00142713 -0.0838672,0.00429993 -0.0114356,0.0014086 -0.0171812,0.00522664 -0.0185898,0.0185898l-0.0257069 0.251657c-0.000518957,0.0042814 -0.000963778,0.00997139 -0.000963778,0.0118989 0,0.010027 0.00665377,0.0118989 0.0257069,0.0118989zm0.0538789 -0.250656c0.00952657,-0.000963778 0.023835,-0.00190902 0.0366977,-0.00190902 0.0304887,0 0.0414795,0.00619042 0.0414795,0.0314525 0,0.0195536 -0.00383658,0.0504871 -0.0143269,0.0605326 -0.00856279,0.00856279 -0.0228712,0.0123994 -0.0414795,0.0123994l-0.0328611 0 0.0104903 -0.102476z"/>
   <path id="_822280801" class="fil1" d="M0.714808 1.43555c0,-0.0228897 0.0157355,-0.148236 0.0157355,-0.1616 0,-0.00906322 -0.00429993,-0.0118989 -0.0233531,-0.0118989 -0.0224264,0 -0.0271526,0.00378097 -0.0290801,0.0171441l-0.0014642 0.00856279c-0.00568999,-0.0152166 -0.019498,-0.0304887 -0.0590684,-0.0304887 -0.0362343,0 -0.0614779,0.0118989 -0.0758048,0.0514694 -0.0114356,0.0319529 -0.0185342,0.107702 -0.0185342,0.133909 0,0.0443523 0.021407,0.0592167 0.0576598,0.0592167 0.039552,0 0.0662226,-0.0158282 0.0833668,-0.0482259l0.00381804 0.0276159c0.00192756,0.0123994 0.0042814,0.0157355 0.0242983,0.0157355 0.0209622,0 0.0267078,-0.00429993 0.0267078,-0.0128627 0,-0.00856279 -0.0042814,-0.0376429 -0.0042814,-0.0485781zm-0.106757 0.0199984c-0.0185898,0 -0.0281164,-0.00619042 -0.0281164,-0.0281164 0,-0.0276715 0.00568999,-0.079141 0.013808,-0.0996027 0.0071542,-0.0185898 0.0200169,-0.023835 0.0405157,-0.023835 0.0281349,0 0.0357524,0.00902615 0.0357524,0.0247431 0,0.0071542 -0.000518957,0.0148273 -0.00524517,0.057215 -0.0042814,0.0391071 -0.0228897,0.0695959 -0.0567146,0.0695959z"/>
   <path id="_8222808012" class="fil1" d="M0.964056 1.27441c0,-0.00902615 -0.00478182,-0.0123623 -0.0262073,-0.0123623 -0.0228897,0 -0.0286353,0.00237238 -0.0324163,0.0142713 -0.0057456,0.0191087 -0.0309892,0.103421 -0.0538789,0.174444l-0.00568999 0c-0.00856279,-0.0547871 -0.0209622,-0.162489 -0.0224264,-0.174444 -0.0014086,-0.0118989 -0.00568999,-0.0142713 -0.0276159,-0.0142713 -0.0123994,0 -0.0200169,0.000963778 -0.0242983,0.00333615 -0.00524517,0.00237238 -0.00670937,0.0071542 -0.00670937,0.013808 0,0.0042814 0.0014642,0.0143084 0.00337322,0.0271711l0.0276345 0.164917c0.00331762,0.0204617 0.0109352,0.0257996 0.0400153,0.0257996 -0.00190902,0.00524517 -0.00333615,0.0104903 -0.00524517,0.015717 -0.00761755,0.0233531 -0.0176445,0.0300439 -0.0419243,0.0300439 -0.0152351,0 -0.0310077,-0.0028728 -0.0366977,-0.0028728 -0.010583,0 -0.0139192,0.0166808 -0.0139192,0.0290801 0,0.00998993 0.0042814,0.0143269 0.0110464,0.0161803 0.00952657,0.00337322 0.0267078,0.00524517 0.0391071,0.00524517 0.0390701,0 0.0633498,-0.0128442 0.0790854,-0.0404787 0.0219259,-0.0381434 0.059124,-0.14162 0.0872404,-0.237441 0.00811797,-0.0281164 0.00952657,-0.0338064 0.00952657,-0.0381434z"/>
   <path id="_82228080123" class="fil1" d="M0.997417 1.32114c0,0.015717 -0.00665377,0.0758048 -0.0133446,0.135819 -0.00237238,0.0209807 -0.00237238,0.0252621 -0.00237238,0.0281349 0,0.010027 0.00619042,0.0118989 0.0252436,0.0118989 0.0219259,0 0.0285797,-0.00142713 0.0300439,-0.0157355l0.0118989 -0.113911c0.0042814,-0.0414239 0.0185898,-0.0623861 0.0519513,-0.0623861 0.0190531,0 0.0242983,0.00619042 0.0242983,0.0204617 0,0.00669084 -0.00568999,0.0562513 -0.0152166,0.143492 -0.000963778,0.00759902 -0.0014642,0.0147717 -0.0014642,0.0166252 0,0.00958217 0.00620895,0.0114541 0.0252436,0.0114541 0.0219259,0 0.0286353,-0.00187195 0.0300439,-0.0161803l0.0118989 -0.113466c0.004337,-0.0419243 0.0171812,-0.0623861 0.0505613,-0.0623861 0.0185898,0 0.0242798,0.00619042 0.0242798,0.0204617 0,0.018145 -0.0118804,0.100548 -0.0118804,0.125847 0,0.00761755 0.00235384,0.0262073 0.00522664,0.0342697 0.00378097,0.00908175 0.00902615,0.0114541 0.0276345,0.0114541 0.0252436,0 0.0262073,-0.00858133 0.0262073,-0.0161803 0,-0.00480035 -0.00378097,-0.0205173 -0.00378097,-0.0352891 0,-0.0262073 0.013808,-0.121065 0.013808,-0.141527 0,-0.0304887 -0.0157355,-0.0467247 -0.0576598,-0.0467247 -0.0348257,0 -0.0567517,0.0157355 -0.0705596,0.0386067 -0.00383658,-0.0267078 -0.0190531,-0.0386067 -0.0557508,-0.0386067 -0.0376429,0 -0.0610331,0.0166808 -0.0738958,0.0442967l-0.0028728 -0.0247431c-0.0014086,-0.011936 -0.00522664,-0.0143084 -0.0262073,-0.0143084 -0.0219259,0 -0.0271526,0.00524517 -0.0271526,0.015717 0,0.00524517 0.00381804,0.0338249 0.00381804,0.0429066z"/>
   <path id="_822280801234" class="fil1" d="M1.4273 1.50136c0.0286168,0 0.0557879,-0.0058012 0.0700407,-0.012455 0.00863693,-0.0042814 0.0143269,-0.00809944 0.0143269,-0.0305258 0,-0.0113985 -0.00383658,-0.0142713 -0.00908175,-0.0142713 -0.00709859,0 -0.0352335,0.0114356 -0.0671864,0.0114356 -0.0281164,0 -0.0366792,-0.0071542 -0.0366792,-0.0329167 0,-0.00568999 0,-0.0118804 0.00044482,-0.0180894 0.0519699,0 0.0800862,-0.00524517 0.0981756,-0.0143084 0.0271711,-0.013808 0.0324163,-0.0471695 0.0324163,-0.0800491 0,-0.0323978 -0.0133075,-0.0529151 -0.0733768,-0.0529151 -0.0452605,0 -0.0786405,0.0071542 -0.094858,0.0510061 -0.0109352,0.0304887 -0.0171441,0.0762682 -0.0171441,0.119601 0,0.0605326 0.0257625,0.073488 0.0829219,0.073488zm-0.0171441 -0.169755c0.00665377,-0.0223708 0.0185898,-0.0281164 0.0409791,-0.0281164 0.0242983,0 0.0276715,0.00811797 0.0276715,0.0185898 0,0.0242983 -0.00524517,0.0343253 -0.0148273,0.0390701 -0.00902615,0.00478182 -0.0252436,0.0086184 -0.0619412,0.0086184 0.00190902,-0.0143269 0.00478182,-0.0276715 0.00811797,-0.0381619z"/>
   <path id="_8222808012345" class="fil1" d="M1.58601 1.49699c0.0219259,0 0.0285797,-0.00187195 0.0300439,-0.0161803l0.0118989 -0.113911c0.0042814,-0.0405343 0.0195536,-0.0619412 0.0571965,-0.0619412 0.0190531,0 0.0247987,0.00619042 0.0247987,0.0204617 0,0.018145 -0.011936,0.100548 -0.011936,0.125847 0,0.00761755 0.00190902,0.0262073 0.00524517,0.0342697 0.00331762,0.00908175 0.00906322,0.0114541 0.0271526,0.0114541 0.0257625,0 0.0262073,-0.00858133 0.0262073,-0.0161803 0,-0.00480035 -0.00331762,-0.0205173 -0.00331762,-0.0352891 0,-0.0262073 0.013808,-0.121065 0.013808,-0.141527 0,-0.0304887 -0.015717,-0.0467247 -0.0576598,-0.0467247 -0.0433515,0 -0.0667231,0.0157355 -0.0805496,0.0442967l-0.0028728 -0.0252436c-0.0014086,-0.0123994 -0.00522664,-0.0142713 -0.0262073,-0.0142713 -0.0219259,0 -0.0271526,0.00524517 -0.0271526,0.0157355 0,0.00524517 0.00381804,0.0342697 0.00381804,0.0433515 0,0.015717 -0.00665377,0.0758048 -0.0133446,0.135819 -0.00237238,0.0209807 -0.00237238,0.0252621 -0.00237238,0.0281349 0,0.010027 0.00619042,0.0118989 0.0252436,0.0118989z"/>
   <path id="_82228080123456" class="fil1" d="M1.8686 1.50186c0.0143269,0 0.0328611,-0.0028728 0.0424433,-0.00674644 0.0104903,-0.00383658 0.0152166,-0.0086184 0.0152166,-0.0295806 0,-0.0114541 -0.00331762,-0.0152351 -0.00952657,-0.0152351 -0.00524517,0 -0.0143084,0.00283573 -0.0242798,0.00283573 -0.0114541,0 -0.0147717,-0.00187195 -0.0147717,-0.0113985 0,-0.0028728 0,-0.00619042 0.00237238,-0.0295806l0.0109352 -0.105348 0.0367348 0c0.0042814,0 0.00761755,-0.000908175 0.00952657,-0.00613482 0.0028172,-0.00717273 0.0042814,-0.0219259 0.0042814,-0.0276715 0,-0.00665377 -0.00240944,-0.00952657 -0.00906322,-0.00952657l-0.0386067 0c0.00235384,-0.0200169 0.00381804,-0.0319529 0.00381804,-0.0371981 0,-0.0109352 -0.0057456,-0.0128627 -0.0252436,-0.0128627 -0.0219259,0 -0.0267078,0.00192756 -0.0286353,0.0157355l-0.00378097 0.0343253 -0.0224264 0c-0.00378097,0 -0.0071542,0.000945243 -0.00902615,0.00619042 -0.0028728,0.0071542 -0.00431847,0.0219259 -0.00431847,0.0276159 0,0.00620895 0.00240944,0.00952657 0.00906322,0.00952657l0.0224264 0 -0.0105274 0.0996583c-0.00378097,0.0366792 -0.0042814,0.0462057 -0.0042814,0.0528595 0,0.0310077 0.0152722,0.042536 0.0476699,0.042536z"/>
   <path id="_82228368" class="fil1" d="M1.02003 1.7115l-0.00213143 0.0184971c-0.00361417,0.0348813 -0.0118433,0.0409235 -0.0360861,0.0409235 -0.0242427,0 -0.0360861,-0.00242798 -0.0360861,-0.0354744 0,-0.0203135 0.00483742,-0.0694661 0.0115468,-0.0885563 0.00695032,-0.0200169 0.0187937,-0.0221298 0.0418317,-0.0221298 0.0200169,0 0.035493,0.00548612 0.0400153,0.00548612 0.0036327,0 0.00606068,-0.00457794 0.00606068,-0.015161 0,-0.00459648 -0.00242798,-0.0058012 -0.00665377,-0.00700592 -0.0121584,-0.00333615 -0.0266707,-0.00544905 -0.0412386,-0.00544905 -0.0291357,0 -0.0500423,0.00422579 -0.0615335,0.0327684 -0.0094339,0.0230195 -0.015476,0.079419 -0.015476,0.103977 0,0.0500423 0.023038,0.0540271 0.0570112,0.0540271 0.0433329,0 0.0581973,-0.0121584 0.0633498,-0.0591797l0.00331762 -0.0324534c0.000611628,-0.00331762 0.000611628,-0.0057456 0.000611628,-0.00635723 0,-0.00422579 -0.0021129,-0.0057456 -0.0093783,-0.0057456l-0.0418317 0c-0.00457794,0 -0.00700592,0.00302107 -0.00700592,0.0157911 0,0.00483742 0.00120472,0.00604214 0.00454088,0.00604214l0.0291357 0z"/>
   <path id="_822283681" class="fil1" d="M1.18196 1.75243c0,-0.0133631 0.0102865,-0.0970265 0.0102865,-0.105237 0,-0.00392925 -0.00181635,-0.00544905 -0.010583,-0.00544905 -0.0100455,0 -0.012455,0.0015198 -0.0133631,0.00761755l-0.000908175 0.00695032c-0.00392925,-0.00911882 -0.0121399,-0.0175889 -0.038514,-0.0175889 -0.0236311,0 -0.0406084,0.00847012 -0.0497458,0.0327684 -0.00695032,0.0184971 -0.0114912,0.0582159 -0.0114912,0.0839599 0,0.027931 0.0123994,0.0382546 0.0379024,0.0382546 0.0269672,0 0.0430549,-0.0115468 0.0533229,-0.0309521l0.0021685 0.0209251c0.000611628,0.00513397 0.00242798,0.00695032 0.0114912,0.00695032 0.0094339,0 0.0115468,-0.0021129 0.0115468,-0.00604214 0,-0.0058012 -0.0021129,-0.0248914 -0.0021129,-0.0321568zm-0.06613 0.0197018c-0.015161,0 -0.0227229,-0.00513397 -0.0227229,-0.0221298 0,-0.0233345 0.00392925,-0.053675 0.00756195,-0.0655183 0.00548612,-0.0190902 0.0157726,-0.0245393 0.0342697,-0.0245393 0.0233345,0 0.0291357,0.00850719 0.0291357,0.0215182 0,0.00518957 -0.000315081,0.0109352 -0.0036327,0.0409235 -0.00337322,0.0312486 -0.0194053,0.0497458 -0.0446118,0.0497458z"/>
   <path id="_8222836812" class="fil1" d="M1.21746 1.65751c0,0.00303961 0.000908175,0.00454088 0.00392925,0.00454088l0.0178855 0 -0.00911882 0.0882042c-0.000908175,0.00817358 -0.0015198,0.01492 -0.0015198,0.0188493 0,0.0169958 0.00822918,0.0245949 0.027931,0.0245949 0.00756195,0 0.0172924,-0.00120472 0.0224264,-0.00307667 0.00695032,-0.0021129 0.00876667,-0.00452234 0.00876667,-0.0136597 0,-0.00543052 -0.00120472,-0.00724687 -0.00483742,-0.00724687 -0.00302107,0 -0.0093783,0.00181635 -0.0172924,0.00181635 -0.00845159,0 -0.0114912,-0.0015198 -0.0114912,-0.00908175 0,-0.0028172 0.000611628,-0.00765462 0.00122326,-0.0140118l0.00876667 -0.0863878 0.0273194 0c0.00181635,0 0.00331762,-0.000611628 0.00422579,-0.00272453 0.0015198,-0.0036327 0.0021129,-0.0102865 0.0021129,-0.0130481 0,-0.00302107 -0.00120472,-0.00454088 -0.00422579,-0.00454088l-0.027931 0c0.00122326,-0.0102865 0.00272453,-0.02061 0.00272453,-0.0239462 0,-0.00543052 -0.0021129,-0.00695032 -0.0114912,-0.00695032 -0.010027,0 -0.0124364,0.00120472 -0.0130481,0.00817358l-0.00242798 0.0227229 -0.0175889 0c-0.00181635,0 -0.00361417,0.000611628 -0.00452234,0.00272453 -0.0015198,0.0036327 -0.00181635,0.0103421 -0.00181635,0.0130481z"/>
   <path id="_82228368123" class="fil1" d="M1.36478 1.7937c0.0166808,0 0.033065,-0.00366977 0.0421838,-0.00759902 0.00543052,-0.00213143 0.00785849,-0.00424433 0.00785849,-0.0151795 0,-0.00513397 -0.00181635,-0.00604214 -0.00392925,-0.00604214 -0.00392925,0 -0.0209251,0.00756195 -0.0415351,0.00756195 -0.0230751,0 -0.0300439,-0.00483742 -0.0300439,-0.0263741 0,-0.00578267 0,-0.0121399 0.000611628,-0.018182l0.00604214 0c0.035493,0 0.0494492,-0.0036883 0.0600322,-0.00882227 0.0166808,-0.00785849 0.0206656,-0.0266707 0.0206656,-0.0497087 0,-0.0187937 -0.00730247,-0.030637 -0.0433885,-0.030637 -0.0260591,0 -0.0472807,0.00333615 -0.0576228,0.0327684 -0.00785849,0.0221113 -0.0111761,0.0499867 -0.0111761,0.0758048 0,0.0391071 0.0154204,0.0464096 0.0503018,0.0464096zm-0.0163842 -0.113763c0.00548612,-0.0166808 0.0148644,-0.0199984 0.0321568,-0.0199984 0.0203135,0 0.0227229,0.00544905 0.0227229,0.0139562 0,0.0212216 -0.00422579,0.0263556 -0.00997139,0.0293952 -0.00609775,0.00337322 -0.0166808,0.00669084 -0.0494492,0.00669084l-0.0021129 0c0.00150127,-0.0109352 0.0036327,-0.0212216 0.00665377,-0.0300439z"/>
   <path id="_822283681234" class="fil1" d="M1.57882 1.76911c-0.00181635,-0.012455 -0.0123994,-0.102809 -0.0139006,-0.114004 -0.000908175,-0.00821064 -0.00394778,-0.0103421 -0.0163842,-0.0103421 -0.0127515,0 -0.0163842,0.00213143 -0.0191087,0.0100455l-0.0372908 0.1143 -0.00333615 0c-0.00457794,-0.0327684 -0.0079141,-0.082162 -0.0115283,-0.117933 -0.000315081,-0.00852573 -0.00272453,-0.0094339 -0.0139748,-0.0094339 -0.010583,0 -0.0133075,0.00242798 -0.0133075,0.00821064 0,0.00272453 0.000611628,0.00908175 0.00302107,0.0293952l0.0130666 0.101901c0.000908175,0.00787703 0.0057456,0.0093783 0.0187937,0.0093783 0.0154204,0 0.02061,-0.0021129 0.0233345,-0.00973045 0.0123994,-0.0321012 0.0227414,-0.0636464 0.0351779,-0.10216l0.00181635 0 0.0142157 0.101252c0.00126032,0.00882227 0.00489302,0.0106386 0.0187937,0.0106386 0.014883,0 0.0194053,-0.0021129 0.022482,-0.00973045 0.0136226,-0.0333059 0.0290801,-0.0800306 0.0364011,-0.103365 0.00665377,-0.0215182 0.00815504,-0.0275789 0.00815504,-0.0300439 0,-0.00454088 -0.00302107,-0.0057456 -0.0115283,-0.0057456 -0.0108981,0 -0.0139192,0.000908175 -0.0160321,0.00852573 -0.010027,0.0345292 -0.0230936,0.0839599 -0.0357895,0.118841l-0.00307667 0z"/>
   <path id="_8222836812345" class="fil1" d="M1.77322 1.75243c0,-0.0133631 0.0102865,-0.0970265 0.0102865,-0.105237 0,-0.00392925 -0.00181635,-0.00544905 -0.010583,-0.00544905 -0.0100455,0 -0.012455,0.0015198 -0.0133631,0.00761755l-0.000908175 0.00695032c-0.00392925,-0.00911882 -0.0121399,-0.0175889 -0.038514,-0.0175889 -0.0236311,0 -0.0406084,0.00847012 -0.0497458,0.0327684 -0.00695032,0.0184971 -0.0114912,0.0582159 -0.0114912,0.0839599 0,0.027931 0.0123994,0.0382546 0.0379024,0.0382546 0.0269672,0 0.0430549,-0.0115468 0.0533229,-0.0309521l0.0021685 0.0209251c0.000611628,0.00513397 0.00242798,0.00695032 0.0114912,0.00695032 0.0094339,0 0.0115468,-0.0021129 0.0115468,-0.00604214 0,-0.0058012 -0.0021129,-0.0248914 -0.0021129,-0.0321568zm-0.06613 0.0197018c-0.015161,0 -0.0227229,-0.00513397 -0.0227229,-0.0221298 0,-0.0233345 0.00392925,-0.053675 0.00756195,-0.0655183 0.00548612,-0.0190902 0.0157726,-0.0245393 0.0342697,-0.0245393 0.0233345,0 0.0291357,0.00850719 0.0291357,0.0215182 0,0.00518957 -0.000315081,0.0109352 -0.0036327,0.0409235 -0.00337322,0.0312486 -0.0194053,0.0497458 -0.0446118,0.0497458z"/>
   <path id="_82228368123456" class="fil1" d="M1.92876 1.64749c0,-0.00422579 -0.00181635,-0.0057456 -0.0118433,-0.0057456 -0.00997139,0 -0.0129925,0.000611628 -0.0148088,0.00606068 -0.00518957,0.0145493 -0.0240018,0.0721721 -0.0421838,0.12101l-0.00333615 0c-0.00815504,-0.0397188 -0.02061,-0.114004 -0.0218147,-0.12101 -0.000908175,-0.00544905 -0.00303961,-0.00606068 -0.0127515,-0.00606068 -0.00544905,0 -0.0087852,0.000315081 -0.010583,0.00120472 -0.00242798,0.0015198 -0.00303961,0.0036327 -0.00303961,0.00641283 0,0.0021129 0.000611628,0.00633869 0.00272453,0.0172368l0.0227414 0.111279c0.00181635,0.00973045 0.0057456,0.012455 0.0178855,0.0128071l-0.00665377 0.0166808c-0.00670937,0.0160877 -0.0133631,0.0200169 -0.0264112,0.0200169 -0.0108796,0 -0.0184971,-0.00181635 -0.0221298,-0.00181635 -0.00457794,0 -0.00639429,0.00604214 -0.00639429,0.0127515 0,0.00513397 0.0021129,0.00695032 0.00639429,0.00815504 0.0051525,0.0015198 0.0139748,0.00272453 0.0221298,0.00272453 0.0221298,0 0.0351779,-0.0093783 0.0442967,-0.0272638 0.0157355,-0.0316008 0.040942,-0.0946541 0.0609404,-0.156243 0.00392925,-0.0126959 0.00483742,-0.0160321 0.00483742,-0.0182006z"/>
   <g>
    <path id="_82228704" class="fil2" d="M2.41009 1.1694c0.186862,0 0.338397,0.151535 0.338397,0.338397 0,0.186843 -0.151535,0.338379 -0.338397,0.338379 -0.186862,0 -0.338397,-0.151535 -0.338397,-0.338379 0,-0.186862 0.151535,-0.338397 0.338397,-0.338397zm0 0.061274c0.153018,0 0.277123,0.124086 0.277123,0.277123 0,0.153018 -0.124105,0.277123 -0.277123,0.277123 -0.153018,0 -0.277123,-0.124105 -0.277123,-0.277123 0,-0.153037 0.124105,-0.277123 0.277123,-0.277123z"/>
    <path id="_82228800" class="fil3" d="M2.23672 1.51862l0.0736734 -0.182024 -0.0173295 0c-0.042017,0 -0.0393295,0.0326758 -0.0459277,0.0710786 -0.00483742,0.0280978 -0.0104162,0.0831814 -0.0104162,0.110946z"/>
    <path id="_82228896" class="fil3" d="M2.23672 1.5793l0 0.017348c0,0.0223893 0.0114912,0.0269858 0.0278013,0.0359934l0.219241 -0.300384c-0.0120658,-0.0080809 -0.0149756,-0.017348 -0.0346589,-0.017348 -0.0326202,0 -0.0939498,0.100288 -0.112688,0.125699 -0.0113985,0.015439 -0.0996954,0.130295 -0.0996954,0.138691z"/>
    <path id="_82228992" class="fil3" d="M2.27574 1.48394l0.121343 -0.160358c-0.00850719,-0.00450381 -0.0127701,-0.008674 -0.0260035,-0.008674l-0.00865546 0c-0.0298771,0 -0.0793263,0.137431 -0.0866844,0.169032z"/>
    <path id="_82229088" class="fil2" d="M2.51674 1.52605c-0.0117877,0.000111205 -0.0416278,-0.0215553 -0.0416278,-0.0290987 0,-0.00724687 0.0494307,-0.0729506 0.0566219,-0.0783625l0.040108 0.0316935 -0.0551021 0.0757677zm-0.21963 0.135392c0.0241871,0.0128442 0.0824215,0.0652218 0.10431,0.0652218 0.0316935,0 0.0947468,-0.101641 0.114486,-0.128238 0.0166808,-0.022482 0.0978976,-0.123271 0.0978976,-0.144808l0 -0.008674c0,-0.0293396 -0.0737661,-0.0722277 -0.0938571,-0.0855909l-0.222837 0.302089z"/>
   </g>
  </g>
 </g>
</svg>
