<?xml version="1.0" encoding="UTF-8"?>
<!DOCTYPE svg PUBLIC "-//W3C//DTD SVG 1.1//EN" "http://www.w3.org/Graphics/SVG/1.1/DTD/svg11.dtd">
<!-- Creator: CorelDRAW -->
<svg xmlns="http://www.w3.org/2000/svg" xml:space="preserve" width="0.641205in" height="0.641205in" style="shape-rendering:geometricPrecision; text-rendering:geometricPrecision; image-rendering:optimizeQuality; fill-rule:evenodd; clip-rule:evenodd"
viewBox="0 0 0.221761 0.221761"
 xmlns:xlink="http://www.w3.org/1999/xlink">
 <defs>
  <style type="text/css">
   <![CDATA[
    .str0 {stroke:black;stroke-width:0.00103755}
    .fil2 {fill:none}
    .fil0 {fill:white}
    .fil4 {fill:#00895D;fill-rule:nonzero}
    .fil3 {fill:#F36700;fill-rule:nonzero}
    .fil1 {fill:black;fill-opacity:0.000000}
   ]]>
  </style>
   <clipPath id="id0">
    <path d="M0.105212 0.153959l0.0441913 0 0 -0.0441913 -0.0441913 0 0 0.0441913z"/>
   </clipPath>
   <clipPath id="id1">
    <path d="M0.105212 0.153959l0.0441913 0 0 -0.0441913 -0.0441913 0 0 0.0441913z"/>
   </clipPath>
 </defs>
 <g id="Layer_x0020_1">
  <metadata id="CorelCorpID_0Corel-Layer"/>
  <path class="fil0 str0" d="M0.110881 0.000518776c0.0609392,0 0.110362,0.0494226 0.110362,0.110362 0,0.0609392 -0.0494226,0.110362 -0.110362,0.110362 -0.0609392,0 -0.110362,-0.0494226 -0.110362,-0.110362 0,-0.0609392 0.0494226,-0.110362 0.110362,-0.110362zm0 0.00440347c0.0585073,0 0.105958,0.0474496 0.105958,0.105958 0,0.0585073 -0.047451,0.105958 -0.105958,0.105958 -0.0585087,0 -0.105958,-0.047451 -0.105958,-0.105958 0,-0.0585087 0.0474496,-0.105958 0.105958,-0.105958z"/>
  <g style="clip-path:url(#id0)">
   <polygon class="fil1" points="0.105212,0.109768 0.149403,0.109768 0.149403,0.153959 0.105212,0.153959 "/>
  </g>
  <g style="clip-path:url(#id1)">
   <g id="_124199144">
   </g>
  </g>
  <polygon class="fil2" points="0.105212,0.153959 0.149403,0.153959 0.149403,0.109768 0.105212,0.109768 "/>
  <g id="_124198808">
   <path id="_82230240" class="fil3" d="M0.0493137 0.122311l-0.00496718 0 0 -0.013352c0,-0.00143923 6.26344e-005,-0.00303232 0.000186542,-0.00477519l-0.000123907 0c-0.000258707,0.00137115 -0.000492906,0.00235287 -0.000699871,0.00296016l-0.00522589 0.0151671 -0.00411208 0 -0.00531984 -0.0150132c-0.000144331,-0.000403039 -0.00037853,-0.00144604 -0.000701233,-0.00311402l-0.000138885 0c0.000133439,0.00220037 0.000202881,0.00412706 0.000202881,0.0057896l0 0.0123376 -0.00453146 0 0 -0.0223115 0.00736227 0 0.00456142 0.0132254c0.00036219,0.00105525 0.000624982,0.00211868 0.0007911,0.00319163l9.53132e-005 0c0.000276408,-0.00123907 0.000573241,-0.00231066 0.000889136,-0.00322295l0.00455461 -0.0131941 0.00717709 0 0 0.0223115zm0.0119577 -0.0223115l0 0.00388742 -0.00186405 0 0 0.0145366 0.00186405 0 0 0.00388742 -0.00875792 0 0 -0.00388742 0.00186542 0 0 -0.0145366 -0.00186542 0 0 -0.00388742 0.00875792 0zm0.0192015 0.0215204c-0.00162713,0.000785653 -0.0037567,0.0011778 -0.00638054,0.0011778 -0.00342583,0 -0.0061123,-0.00100351 -0.00807167,-0.00301598 -0.00196618,-0.00201247 -0.00294246,-0.00469486 -0.00294246,-0.0080458 0,-0.0035688 0.00109746,-0.00646224 0.00330192,-0.00868303 0.00220582,-0.0022208 0.00506658,-0.00332507 0.00858364,-0.00332507 0.00217723,0 0.00401541,0.0002696 0.0055091,0.000823779l0 0.00483919c-0.00149369,-0.000893221 -0.00319299,-0.00133847 -0.0051047,-0.00133847 -0.00209281,0 -0.00378802,0.0006563 -0.00507339,0.00197435 -0.00128401,0.00131668 -0.00192805,0.00310313 -0.00192805,0.00535388 0,0.00215544 0.00060592,0.00387652 0.00182184,0.00515645 0.00121048,0.00127992 0.00284578,0.0019226 0.00490182,0.0019226 0.00196073,0 0.00375534,-0.000477928 0.00538247,-0.00143378l0 0.0045941zm0.0226083 0.0007911l-0.00577462 0 -0.00346668 -0.00574058c-0.000261431,-0.000435718 -0.000510607,-0.000823779 -0.00074889,-0.00116827 -0.000239645,-0.000341766 -0.000479289,-0.000631791 -0.000723019,-0.000876882 -0.00024373,-0.000245091 -0.000499714,-0.000430271 -0.000763867,-0.000562348 -0.000265515,-0.000129354 -0.000554178,-0.000191988 -0.000861904,-0.000191988l-0.00135481 0 0 0.00854006 -0.00502845 0 0 -0.0223115 0.00796682 0c0.00541651,0 0.00812613,0.00202336 0.00812613,0.00606464 0,0.000781568 -0.000122546,0.00149778 -0.00036219,0.0021568 -0.000239645,0.000657661 -0.000574603,0.00125405 -0.00100896,0.00178372 -0.000435718,0.000526946 -0.00095994,0.000983088 -0.00157675,0.0013657 -0.000622259,0.000388061 -0.00130715,0.000684894 -0.00206694,0.000902752l0 6.3996e-005c0.000334958,0.000106206 0.000653576,0.000270962 0.00096811,0.00050516 0.00031181,0.000231475 0.000608643,0.000503798 0.000901391,0.00081697 0.000292748,0.000314534 0.000569156,0.00064813 0.000834672,0.00100351 0.000265515,0.000356744 0.000503798,0.000706679 0.000723019,0.00105253l0.00421693 0.00659567zm-0.0136938 -0.0185466l0 0.00620898 0.00217859 0c0.00107976,0 0.00194303,-0.000314534 0.00259797,-0.00093407 0.000663108,-0.000633152 0.000998066,-0.00141881 0.000998066,-0.00234743 0,-0.00195528 -0.00116963,-0.00292748 -0.00349936,-0.00292748l-0.00227526 0zm0.0252063 0.0189333c-0.00319572,0 -0.00579913,-0.00103891 -0.0078116,-0.00311538 -0.00201383,-0.00208327 -0.00301734,-0.00479153 -0.00301734,-0.00813294 0,-0.00352523 0.00101985,-0.00637782 0.003065,-0.00855504 0.00204379,-0.00217859 0.00474796,-0.00326652 0.00812069,-0.00326652 0.00318482,0 0.005761,0.00104164 0.00772718,0.00312355 0.00196345,0.00208736 0.00294654,0.00483783 0.00294654,0.00824868 0,0.0035048 -0.00101849,0.00633016 -0.00305955,0.00848152 -0.00203289,0.00214591 -0.0046935,0.00321614 -0.00797091,0.00321614zm0.00021922 -0.0187454c-0.00176466,0 -0.00316576,0.0006563 -0.00420195,0.00197979 -0.00103619,0.00132758 -0.00155633,0.00307453 -0.00155633,0.00525176 0,0.00220991 0.000520138,0.00395686 0.00155633,0.00524904 0.00103619,0.00128401 0.00239509,0.00192669 0.0040726,0.00192669 0.00173742,0 0.00310857,-0.000626344 0.00412706,-0.00187495 0.00101441,-0.00125269 0.00152501,-0.00298467 0.00152501,-0.0052041 0,-0.00231611 -0.000494267,-0.00411617 -0.00147599,-0.00540154 -0.000988534,-0.00128673 -0.00233654,-0.00192669 -0.00404673,-0.00192669z"/>
   <path id="_82230336" class="fil4" d="M0.150992 0.12232l-0.00547506 0 -0.00158901 -0.00496582 -0.00793414 0 -0.00157131 0.00496582 -0.00544919 0 0.00812477 -0.0223101 0.0059598 0 0.00793414 0.0223101zm-0.00821464 -0.00882192l-0.00239645 -0.00749843c-0.000175649,-0.000562348 -0.000303641,-0.00123226 -0.000377168,-0.00200839l-0.000121184 0c-5.44647e-005,0.000654938 -0.000181095,0.00130171 -0.000388061,0.00194303l-0.00242776 0.00756378 0.00571062 0zm0.02667 -0.00939925l-0.00636692 0 0 0.0182212 -0.00504207 0 0 -0.0182212 -0.00633016 0 0 -0.00408894 0.0177392 0 0 0.00408894zm0.0284306 0.0182212l-0.00496582 0 0 -0.0133534c0,-0.00143651 6.26344e-005,-0.00303232 0.00018518,-0.00477247l-0.000122546 0c-0.000260069,0.00136843 -0.000494267,0.00235287 -0.000701233,0.00295743l-0.00522589 0.0151684 -0.00411072 0 -0.00531984 -0.0150132c-0.000144331,-0.0004044 -0.00037853,-0.00144604 -0.000701233,-0.00311266l-0.000140247 0c0.0001348,0.00219765 0.000202881,0.0041257 0.000202881,0.00578824l0 0.0123376 -0.00453146 0 0 -0.0223101 0.00736363 0 0.00456142 0.0132227c0.000360829,0.00105798 0.000624982,0.00211868 0.000789738,0.00319163l9.66748e-005 0c0.000276408,-0.00123771 0.000573241,-0.0023093 0.000887775,-0.00322295l0.00455597 -0.0131913 0.00717572 0 0 0.0223101z"/>
  </g>
 </g>
</svg>
