<?xml version="1.0" encoding="UTF-8"?>
<!DOCTYPE svg PUBLIC "-//W3C//DTD SVG 1.1//EN" "http://www.w3.org/Graphics/SVG/1.1/DTD/svg11.dtd">
<!-- Creator: CorelDRAW -->
<svg xmlns="http://www.w3.org/2000/svg" xml:space="preserve" width="0.641209in" height="0.641209in" style="shape-rendering:geometricPrecision; text-rendering:geometricPrecision; image-rendering:optimizeQuality; fill-rule:evenodd; clip-rule:evenodd"
viewBox="0 0 0.267639 0.267639"
 xmlns:xlink="http://www.w3.org/1999/xlink">
 <defs>
  <style type="text/css">
   <![CDATA[
    .str0 {stroke:black;stroke-width:0.00125219}
    .fil0 {fill:black}
    .fil2 {fill:#38AC36}
    .fil1 {fill:#EA881F}
    .fil4 {fill:#EEC900}
    .fil3 {fill:white}
    .fil5 {fill:black;fill-rule:nonzero}
   ]]>
  </style>
 </defs>
 <g id="Layer_x0020_1">
  <metadata id="CorelCorpID_0Corel-Layer"/>
  <g id="_81865160">
   <path id="_81865808" class="fil0" d="M0.244367 0.121252l0.00125548 0.00106157 -0.00595039 0.0051008 -0.00342956 0 0.000729625 -0.00112566 -0.199552 0 0.000790427 -0.0015825 0.198113 0 -0.000727981 0.0011273 0.00342792 -1.6433e-006 0.00534401 -0.00457987zm-0.1812 0.00772679l0.00142145 0 -0.00381738 0.00780896 -0.0159877 0 -0.00523226 0.0104777 -0.0126107 0 0.000790427 -0.00158085 0.0111711 0 0.00523391 -0.010476 0.0159877 -1.6433e-006 0.00304339 -0.0062281zm0.0693916 -0.00105828l-0.00143953 0 -0.001875 0.00375494 -0.0189111 0 -0.000994196 0.00198839 0.00143789 0 0.000203769 -0.000407538 0.0189127 0 0.00266543 -0.00533579zm-0.0313016 0.00947526c0.000234992,0.00172875 0.00159564,0.00288563 0.00378287,0.00288563l0.0129262 0 0.000790427 -0.0015825 -0.0143641 0c-0.00142145,0 -0.00249617,-0.000489703 -0.00313541,-0.00130314zm-0.00498906 0.00862896l-0.000790427 0.0015825 0.0226989 0c0.00339834,0 0.00757068,-0.00278046 0.00926821,-0.00618045l0 0c0.000987623,-0.00197853 0.000925177,-0.00375001 3.45093e-005,-0.00488224 0.000128177,0.000954757 -7.7235e-005,0.00209028 -0.000683612,0.00329974l0 0c-0.00169753,0.00339999 -0.00586822,0.00618045 -0.00926656,0.00618045l-0.021261 0zm-0.0330944 0.00114045l0.00812447 0 0.00677368 -0.0135556 0.0104892 0 0.000790427 -0.00158085 -0.0119287 0 -0.00677039 0.0135572 -0.00668823 0 -0.000790427 0.00157921zm0.0143345 -0.0084104l-0.00081672 0.00157921 0.00851065 0 0.000788783 -0.00158085 -0.00848271 1.6433e-006zm0.00650911 0.00683119l-0.000790427 0.00157921 0.00812447 0 0.00940296 -0.0188223 -0.00143789 0 -0.00861253 0.0172431 -0.00668658 0zm0.141434 -0.0164034c0.00080193,0.000854515 0.000903814,0.0022809 0.000103528,0.00388312l-0.00987294 0.019764c-0.00129821,0.00259806 -0.00448456,0.00472284 -0.00708262,0.00472284l-0.0544458 0 -0.0544441 0 0.00175833 0.00142638 -0.00307133 1.6433e-005 -0.00457494 -0.00403266 0.000575155 -0.000504493 0.00335233 0.00295629 0.00307133 -1.80763e-005 -0.00175997 -0.00142474 0.0544458 0 0.0544458 0c0.00259806,0 0.00578441,-0.00212643 0.00708262,-0.00472284l0.00987294 -0.019764c0.000415755,-0.000833153 0.000585014,-0.00162029 0.000543932,-0.00230226zm-0.0166351 0.0180516l-0.0139187 0c-0.0017649,0 -0.00282483,-0.000984336 -0.00291357,-0.0024288 0.00049792,0.000530786 0.00127027,0.000846299 0.00226611,0.000846299l0.0153566 0 -0.000790427 0.0015825zm-0.0546528 -0.0192973l0.00143624 0 -0.0095032 0.0190261 -0.0129344 0 0.000790427 -0.00158085 0.0114949 0 0.00871606 -0.0174453zm0.0305949 0.0191609l-0.0228649 0c-0.00233513,-4.9299e-005 -0.00342135,-0.00116346 -0.00357746,-0.00268844 0.000570225,0.000660606 0.00152334,0.00107636 0.00293165,0.00110758l0.0228616 0 0.00715328 -0.0143197c0.000423971,-0.000847942 0.000593231,-0.00164823 0.000548862,-0.00233841 0.00080686,0.000864375 0.000907101,0.00230391 0.000100241,0.00391927l-0.00715328 0.0143197zm-0.00586493 -0.0118942l0.00142638 4.9299e-006 -0.00243701 0.00493154 -0.0100701 1.47897e-005 -5.58722e-005 0.000116674 -0.00140995 -1.6433e-006 0.000818363 -0.00169753 0.0100685 -1.47897e-005 0.00165973 -0.00335397zm0.0028314 -0.00185035l-0.0175915 0 0.000790427 -0.00158085 0.0175882 0 -0.00078714 0.00158085zm0.0236783 6.73753e-005l0.0103429 0 0.000790427 -0.00158085 -0.0117808 0 -0.00419534 0.00839561 0.00143789 0 0.00340492 -0.00681476z"/>
   <polygon id="_81865904" class="fil1" points="0.0407785,0.116686 0.236062,0.116686 0.23556,0.115549 0.238839,0.115545 0.244975,0.120732 0.239024,0.125832 0.235596,0.125834 0.236323,0.124707 0.0367737,0.124707 "/>
   <path id="_81866000" class="fil2" d="M0.203687 0.126762l0.0188585 0c0.00259641,0 0.00365963,0.00212479 0.00236142,0.00472284l-0.00987294 0.019764c-0.00129656,0.00259641 -0.00448456,0.00472284 -0.00708098,0.00472284l-0.0544458 0 -0.0544458 0 0.00175833 0.00142474 -0.00306968 1.80763e-005 -0.00457659 -0.0040343 0.00468176 -0.00409017 0.00304503 3.2866e-006 -0.00175997 0.00142967 0.107934 0 0.00253232 -0.00507122 -0.0153566 0c-0.00259806,0 -0.00366127,-0.00212479 -0.00236306,-0.00472284l0.00471791 -0.00944404c0.00129821,-0.00259806 0.00448621,-0.00472284 0.00708262,-0.00472284zm-0.0616664 -0.000407538l0.0129328 0 -0.00950484 0.0190278 -0.0129328 0 0.00950484 -0.0190278zm0.0420898 0.0191625l-0.0228632 0c-0.00761833,-0.000165973 -0.00195388,-0.0115968 0.00597175,-0.0119484l0.0124529 5.91588e-005 -0.00243701 0.0049299 -0.0100701 1.47897e-005 -0.000818363 0.00169753 0.0119304 9.85979e-006 0.00423642 -0.00850736 -0.0190261 0 0.002672 -0.00534894 0.0227153 0c0.00262599,0 0.00370071,0.00214779 0.00238936,0.00477378l-0.00715328 0.0143197zm0.0206464 -0.0136772l0.0117808 0 -0.0041937 0.00839561 -0.0117825 0 0.00419534 -0.00839561z"/>
   <polygon id="_81866096" class="fil2" points="0.133783,0.116686 0.172445,0.116686 0.168436,0.124707 0.129775,0.124707 "/>
   <path id="_81866192" class="fil1" d="M0.0354295 0.127398l0.0285129 0 -0.00381738 0.00780896 -0.0159877 1.6433e-006 -0.00523391 0.010476 -0.012609 0 0.0091351 -0.0182866zm0.0964814 -0.00105828l-0.0213448 0c-0.00339834,0 -0.00756739,0.00278046 -0.00926656,0.0061788l0 0c-0.00169753,0.00339999 -0.000305654,0.00618045 0.00309269,0.00618045l0.0143657 0 -0.000916961 0.00183721 -0.0202684 0 -0.00274267 0.00548862 0.0226989 0c0.00339999,0 0.00757068,-0.00278046 0.00926821,-0.00618045l0 0c0.00169917,-0.00339834 0.000305654,-0.00618045 -0.00309269,-0.00618045l-0.0143641 0 0.000994196 -0.00198839 0.0189111 0 0.00266543 -0.00533579zm-0.0693834 0.0192463l0.00812447 0 0.00677203 -0.0135572 0.0119287 0 -0.000800287 0.00160057 -0.00986144 0 -0.00264735 0.00512545 0.00994853 -1.6433e-006 -0.00341313 0.00683284 0.00812611 0 0.00940296 -0.018824 -0.0233266 0c-0.00223489,0 -0.00601119,0.00232198 -0.00712699,0.00455358l-0.00712699 0.0142704z"/>
   <g id="_187356336">
    <path id="_187375464" class="fil3" d="M0.15775 0.120768l0.00134751 -0.0010057c-0.00161536,-0.00317814 -0.00670466,-0.00373193 -0.0115573,-0.00105828l0.000106814 0.00111251c0.00423971,-0.00215929 0.00861417,-0.00194567 0.010103,0.00095147zm-0.0061788 0.00387819l0.000898885 -0.000864375c-0.000713192,-0.00115524 -0.00289221,-0.00119961 -0.00469326,-0.000207056l4.76557e-005 0.000718122c0.00157099,-0.000800287 0.00319457,-0.000723052 0.00374672,0.000353309zm0.00316828 -0.00195881l0.000921891 -0.000690186c-0.0011043,-0.00217408 -0.00458973,-0.00255533 -0.00791413,-0.000724695l7.55917e-005 0.000762491c0.00290042,-0.00147897 0.00589616,-0.00133436 0.00691665,0.00065239z"/>
    <path id="_187359600" class="fil1" d="M0.165373 0.115736l0.00253232 -0.00189144c-0.00303189,-0.00597832 -0.0126074,-0.00702182 -0.0217326,-0.00199332l0.000202126 0.00209356c0.00797,-0.00406059 0.016198,-0.00366127 0.0189982,0.0017912zm-0.00414604 0.00257998l0.00186186 -0.00139023c-0.0022316,-0.00439911 -0.00927478,-0.00516489 -0.0159893,-0.00146747l0.00014954 0.00154141c0.00586329,-0.00298916 0.0119172,-0.00269337 0.0139779,0.00131628z"/>
   </g>
   <path id="_81866312" class="fil4" d="M0.118654 0.152919l0.00589123 0 3.45093e-005 0.000877522 -0.00589123 0 -3.45093e-005 -0.000877522zm0.0552674 -0.0327592l0.00833481 0 -0.000262928 0.00124891 -0.00833317 0 0.000261285 -0.00124891zm0.0504608 0l0.00833317 0 -0.000262928 0.00124891 -0.00833317 0 0.000262928 -0.00124891zm-0.0168208 0l0.00833481 0 -0.000262928 0.00124891 -0.00833317 0 0.000261285 -0.00124891zm-0.0168192 0l0.00833481 0 -0.000262928 0.00124891 -0.00833317 0 0.000261285 -0.00124891zm0.00354953 0.0327592l0.00588958 0 3.45093e-005 0.000877522 -0.00589123 0 -3.2866e-005 -0.000877522zm-0.0239067 0l0.00589123 0 3.2866e-005 0.000877522 -0.00589123 0 -3.2866e-005 -0.000877522zm-0.0265015 0l0.00589123 0 3.45093e-005 0.000877522 -0.00589287 0 -3.2866e-005 -0.000877522z"/>
   <path id="_81866600" class="fil5" d="M0.0244194 0.15471c-1.97196e-005,3.94392e-005 -3.94392e-005,7.39485e-005 -5.75155e-005,0.000101885 -1.97196e-005,3.12227e-005 -3.94392e-005,5.58722e-005 -6.08021e-005,7.55917e-005 -1.97196e-005,1.97196e-005 -3.94392e-005,3.2866e-005 -5.91588e-005,4.10825e-005 -1.6433e-005,9.85979e-006 -3.61526e-005,1.47897e-005 -5.25856e-005,1.47897e-005l-0.00203769 0c-4.9299e-005,0 -8.87381e-005,-1.6433e-005 -0.000116674,-5.09423e-005 -2.79361e-005,-3.45093e-005 -1.97196e-005,-9.3668e-005 2.13629e-005,-0.00017912l0.00189144 -0.00378452c4.27258e-005,-8.54515e-005 9.3668e-005,-0.00014461 0.000156113,-0.00017912 6.08021e-005,-3.2866e-005 0.000116674,-4.9299e-005 0.000167616,-4.9299e-005l0.00201304 0c1.97196e-005,0 3.12227e-005,3.2866e-006 4.27258e-005,1.15031e-005 8.21649e-006,9.85979e-006 1.31464e-005,2.46495e-005 1.15031e-005,4.43691e-005 0,1.80763e-005 -4.9299e-006,4.27258e-005 -1.47897e-005,7.23052e-005 -9.85979e-006,2.95794e-005 -2.46495e-005,6.73753e-005 -4.60124e-005,0.000110101 -1.97196e-005,3.94392e-005 -4.10825e-005,7.39485e-005 -5.91588e-005,0.000103528 -2.13629e-005,2.95794e-005 -4.10825e-005,5.25856e-005 -5.91588e-005,7.23052e-005 -1.6433e-005,1.80763e-005 -3.61526e-005,3.12227e-005 -5.42289e-005,4.10825e-005 -1.80763e-005,8.21649e-006 -3.61526e-005,1.31464e-005 -5.42289e-005,1.31464e-005l-0.00165973 0 -0.000665536 0.00133107 0.0014231 0c1.97196e-005,0 3.12227e-005,4.9299e-006 4.10825e-005,1.47897e-005 9.85979e-006,9.85979e-006 1.47897e-005,2.30062e-005 1.47897e-005,4.10825e-005 1.6433e-006,1.6433e-005 -3.2866e-006,4.10825e-005 -1.47897e-005,7.23052e-005 -9.85979e-006,3.12227e-005 -2.62928e-005,6.5732e-005 -4.60124e-005,0.000106814 -1.97196e-005,3.94392e-005 -3.94392e-005,7.55917e-005 -5.75155e-005,0.000101885 -1.80763e-005,2.95794e-005 -3.77959e-005,5.25856e-005 -5.58722e-005,6.90186e-005 -1.80763e-005,1.80763e-005 -3.77959e-005,3.12227e-005 -5.42289e-005,3.77959e-005 -1.97196e-005,8.21649e-006 -3.61526e-005,1.31464e-005 -5.42289e-005,1.31464e-005l-0.0014231 0 -0.000757561 0.00151841 0.00168109 0c1.80763e-005,0 3.12227e-005,3.2866e-006 3.94392e-005,1.31464e-005 1.15031e-005,8.21649e-006 1.6433e-005,2.13629e-005 1.97196e-005,3.94392e-005 1.6433e-006,1.80763e-005 -3.2866e-006,4.27258e-005 -1.47897e-005,7.23052e-005 -9.85979e-006,2.95794e-005 -2.62928e-005,6.5732e-005 -4.76557e-005,0.000110101zm0.00509258 0.00015447c-1.31464e-005,2.62928e-005 -3.2866e-005,4.60124e-005 -5.58722e-005,5.91588e-005 -2.46495e-005,1.31464e-005 -5.42289e-005,2.30062e-005 -8.70948e-005,2.95794e-005 -3.45093e-005,6.5732e-006 -8.21649e-005,9.85979e-006 -0.00013968,9.85979e-006 -5.58722e-005,0 -0.000100241,-3.2866e-006 -0.000131464,-9.85979e-006 -2.95794e-005,-6.5732e-006 -4.9299e-005,-1.6433e-005 -5.91588e-005,-2.95794e-005 -9.85979e-006,-1.31464e-005 -4.9299e-006,-3.2866e-005 6.5732e-006,-5.91588e-005l0.000147897 -0.000295794c-0.000198839,0.000138037 -0.000394392,0.000244852 -0.000591588,0.000322087 -0.000197196,7.55917e-005 -0.000384532,0.000115031 -0.000560365,0.000115031 -0.000156113,0 -0.000287577,-2.13629e-005 -0.000391105,-6.24454e-005 -0.000105171,-3.94392e-005 -0.000184049,-9.69546e-005 -0.000234992,-0.00017419 -4.9299e-005,-7.7235e-005 -7.23052e-005,-0.000170903 -6.5732e-005,-0.000281004 8.21649e-006,-0.000113388 4.60124e-005,-0.000239922 0.000118318,-0.000381245 8.21649e-005,-0.000167616 0.000187336,-0.000310583 0.000315513,-0.000433831 0.000129821,-0.000121604 0.000277718,-0.000223489 0.000445334,-0.00030401 0.000167616,-8.21649e-005 0.000353309,-0.000141324 0.000557078,-0.000182406 0.000202126,-3.94392e-005 0.000419041,-6.08021e-005 0.000650746,-6.08021e-005l0.000404252 0 0.000116674 -0.000230062c5.58722e-005,-0.000113388 9.53113e-005,-0.000213629 0.000115031,-0.000302367 1.80763e-005,-8.70948e-005 1.6433e-005,-0.0001594 -9.85979e-006,-0.000216915 -2.46495e-005,-5.75155e-005 -7.06619e-005,-0.000101885 -0.000141324,-0.000131464 -7.06619e-005,-2.95794e-005 -0.000167616,-4.43691e-005 -0.000292507,-4.43691e-005 -0.000134751,0 -0.000261285,1.6433e-005 -0.000382889,4.76557e-005 -0.000121604,3.2866e-005 -0.000233348,6.73753e-005 -0.000331946,0.000105171 -9.85979e-005,3.77959e-005 -0.000182406,7.23052e-005 -0.000253068,0.000105171 -6.90186e-005,3.2866e-005 -0.000116674,4.76557e-005 -0.000141324,4.76557e-005 -1.80763e-005,0 -3.12227e-005,-4.9299e-006 -4.10825e-005,-1.31464e-005 -9.85979e-006,-8.21649e-006 -1.31464e-005,-2.13629e-005 -1.47897e-005,-3.94392e-005 0,-1.80763e-005 3.2866e-006,-3.94392e-005 1.31464e-005,-6.73753e-005 8.21649e-006,-2.62928e-005 2.13629e-005,-5.75155e-005 3.77959e-005,-9.03814e-005 2.79361e-005,-5.42289e-005 5.42289e-005,-9.69546e-005 7.7235e-005,-0.000129821 2.30062e-005,-3.12227e-005 5.58722e-005,-6.08021e-005 0.000100241,-9.03814e-005 4.43691e-005,-2.79361e-005 0.000110101,-6.08021e-005 0.000202126,-9.85979e-005 9.20247e-005,-3.94392e-005 0.000190623,-7.39485e-005 0.000300724,-0.000105171 0.000110101,-3.12227e-005 0.000226775,-5.75155e-005 0.000348379,-7.88783e-005 0.000121604,-2.13629e-005 0.000239922,-3.12227e-005 0.000353309,-3.12227e-005 0.000211986,0 0.000381245,2.46495e-005 0.000504493,7.23052e-005 0.000124891,4.76557e-005 0.000210342,0.000118318 0.000256355,0.000211986 4.60124e-005,9.20247e-005 5.42289e-005,0.000208699 2.62928e-005,0.000345093 -2.62928e-005,0.000138037 -8.54515e-005,0.000297437 -0.000177476,0.000481487l-0.000994196 0.00199168zm0.000134751 -0.00134751l-0.000461767 0c-0.00014954,0 -0.000284291,1.15031e-005 -0.000405895,3.61526e-005 -0.000121604,2.62928e-005 -0.000230062,6.40887e-005 -0.00032866,0.000113388 -9.69546e-005,4.76557e-005 -0.00017912,0.000106814 -0.000246495,0.000175833 -6.90186e-005,6.90186e-005 -0.000124891,0.000147897 -0.00016926,0.000238278 -7.55917e-005,0.000151183 -9.03814e-005,0.000274431 -3.77959e-005,0.000364812 5.25856e-005,9.03814e-005 0.000165973,0.000136394 0.000340163,0.000136394 0.000141324,0 0.000292507,-3.61526e-005 0.000448621,-0.000106814 0.000157757,-7.23052e-005 0.000340163,-0.000182406 0.000548862,-0.00033359l0.000312227 -0.000624454zm0.00531607 0.000540645c-7.55917e-005,0.000151183 -0.000170903,0.000285934 -0.000285934,0.000402608 -0.000115031,0.000119961 -0.000244852,0.000218559 -0.000386175,0.00029908 -0.000142967,8.05216e-005 -0.000297437,0.000142967 -0.000460124,0.000184049 -0.000162687,4.10825e-005 -0.00032866,6.24454e-005 -0.000499563,6.24454e-005 -0.000105171,0 -0.000202126,-9.85979e-006 -0.000287577,-2.46495e-005 -8.70948e-005,-1.80763e-005 -0.000161043,-3.77959e-005 -0.000225132,-6.24454e-005 -6.24454e-005,-2.62928e-005 -0.000113388,-5.09423e-005 -0.000152827,-7.88783e-005 -3.77959e-005,-2.79361e-005 -6.5732e-005,-5.25856e-005 -7.7235e-005,-7.39485e-005 -1.31464e-005,-2.30062e-005 -1.47897e-005,-5.25856e-005 -6.5732e-006,-9.20247e-005 8.21649e-006,-3.77959e-005 2.79361e-005,-9.3668e-005 6.40887e-005,-0.000161043 1.97196e-005,-4.10825e-005 3.94392e-005,-7.55917e-005 5.91588e-005,-0.000105171 1.80763e-005,-2.79361e-005 3.45093e-005,-4.9299e-005 5.09423e-005,-6.90186e-005 1.6433e-005,-1.6433e-005 3.12227e-005,-2.95794e-005 4.60124e-005,-3.61526e-005 1.47897e-005,-9.85979e-006 3.12227e-005,-1.15031e-005 4.60124e-005,-1.15031e-005 2.46495e-005,0 5.42289e-005,1.31464e-005 8.54515e-005,4.43691e-005 3.2866e-005,2.79361e-005 7.39485e-005,6.08021e-005 0.000124891,9.53113e-005 5.09423e-005,3.45093e-005 0.000116674,6.90186e-005 0.000197196,9.69546e-005 7.7235e-005,2.95794e-005 0.00017912,4.43691e-005 0.000302367,4.43691e-005 9.20247e-005,0 0.00017912,-9.85979e-006 0.000262928,-2.79361e-005 8.38082e-005,-2.13629e-005 0.000162687,-4.9299e-005 0.000236635,-8.87381e-005 7.39485e-005,-3.61526e-005 0.000141324,-8.70948e-005 0.000198839,-0.00014461 5.91588e-005,-5.91588e-005 0.000110101,-0.000129821 0.00014954,-0.000210342 4.10825e-005,-8.38082e-005 5.58722e-005,-0.00015447 4.10825e-005,-0.000210342 -1.47897e-005,-5.58722e-005 -4.60124e-005,-0.000106814 -9.3668e-005,-0.000151183 -4.76557e-005,-4.27258e-005 -0.000106814,-8.21649e-005 -0.000177476,-0.000116674 -7.06619e-005,-3.2866e-005 -0.000142967,-6.90186e-005 -0.000218559,-0.000105171 -7.39485e-005,-3.77959e-005 -0.000142967,-8.05216e-005 -0.000208699,-0.000126534 -6.40887e-005,-4.60124e-005 -0.000115031,-0.000103528 -0.000151183,-0.000172546 -3.61526e-005,-6.90186e-005 -5.25856e-005,-0.00014954 -4.76557e-005,-0.000243208 4.9299e-006,-9.3668e-005 3.94392e-005,-0.000205412 0.000105171,-0.000336876 5.75155e-005,-0.000115031 0.000136394,-0.000226775 0.000233348,-0.000331946 9.85979e-005,-0.000106814 0.000211986,-0.000200482 0.000341806,-0.000279361 0.000128177,-7.88783e-005 0.000271144,-0.00014461 0.000430544,-0.000192266 0.0001594,-4.76557e-005 0.00032866,-7.23052e-005 0.000507779,-7.23052e-005 7.88783e-005,0 0.000152827,6.5732e-006 0.000226775,1.97196e-005 7.06619e-005,1.31464e-005 0.000133107,2.95794e-005 0.000187336,4.9299e-005 5.42289e-005,1.97196e-005 9.69546e-005,4.10825e-005 0.000129821,6.40887e-005 3.45093e-005,2.13629e-005 5.75155e-005,4.27258e-005 7.23052e-005,6.08021e-005 1.31464e-005,1.6433e-005 2.13629e-005,3.12227e-005 2.30062e-005,4.60124e-005 1.6433e-006,1.31464e-005 0,2.62928e-005 -4.9299e-006,4.43691e-005 -4.9299e-006,1.6433e-005 -1.31464e-005,3.61526e-005 -2.13629e-005,6.08021e-005 -8.21649e-006,2.30062e-005 -2.30062e-005,5.25856e-005 -3.94392e-005,8.70948e-005 -1.97196e-005,3.77959e-005 -3.61526e-005,7.06619e-005 -5.42289e-005,9.69546e-005 -1.6433e-005,2.79361e-005 -3.2866e-005,4.9299e-005 -4.9299e-005,6.73753e-005 -1.6433e-005,1.80763e-005 -3.12227e-005,2.95794e-005 -4.60124e-005,3.77959e-005 -1.6433e-005,8.21649e-006 -2.95794e-005,1.15031e-005 -4.10825e-005,1.15031e-005 -1.97196e-005,0 -4.27258e-005,-1.15031e-005 -6.90186e-005,-3.61526e-005 -2.46495e-005,-2.30062e-005 -6.08021e-005,-4.9299e-005 -0.000105171,-7.7235e-005 -4.60124e-005,-2.62928e-005 -0.000101885,-5.25856e-005 -0.00016926,-7.7235e-005 -6.90186e-005,-2.30062e-005 -0.000152827,-3.61526e-005 -0.000256355,-3.61526e-005 -9.20247e-005,0 -0.000177476,9.85979e-006 -0.000257998,3.2866e-005 -8.05216e-005,2.13629e-005 -0.000152827,4.9299e-005 -0.000216915,8.70948e-005 -6.40887e-005,3.94392e-005 -0.000121604,8.54515e-005 -0.000170903,0.000136394 -4.76557e-005,5.42289e-005 -8.70948e-005,0.000110101 -0.000116674,0.000170903 -4.43691e-005,8.54515e-005 -5.75155e-005,0.000156113 -4.43691e-005,0.000215272 1.47897e-005,5.75155e-005 4.76557e-005,0.000106814 9.53113e-005,0.000151183 4.9299e-005,4.43691e-005 0.000108458,8.21649e-005 0.000180763,0.000118318 7.23052e-005,3.45093e-005 0.000146254,7.06619e-005 0.000220202,0.000108458 7.23052e-005,3.77959e-005 0.00014461,7.88783e-005 0.000211986,0.000124891 6.73753e-005,4.60124e-005 0.000121604,0.000100241 0.0001594,0.000167616 3.45093e-005,6.5732e-005 5.25856e-005,0.000142967 4.9299e-005,0.000234992 -3.2866e-006,9.20247e-005 -3.45093e-005,0.000202126 -9.85979e-005,0.00032866zm0.00375494 0.000885738l-0.000935037 0.00108458c-3.12227e-005,3.61526e-005 -7.7235e-005,6.24454e-005 -0.00013968,8.05216e-005 -6.40887e-005,1.97196e-005 -0.00014954,2.79361e-005 -0.000259641,2.79361e-005 -5.58722e-005,0 -0.000101885,-1.6433e-006 -0.000131464,-8.21649e-006 -3.2866e-005,-4.9299e-006 -5.58722e-005,-1.47897e-005 -6.73753e-005,-2.79361e-005 -1.15031e-005,-1.31464e-005 -1.47897e-005,-3.12227e-005 -3.2866e-006,-5.25856e-005 6.5732e-006,-2.13629e-005 2.62928e-005,-4.76557e-005 5.42289e-005,-7.88783e-005l0.000918604 -0.00102542c-1.47897e-005,-9.85979e-006 -2.62928e-005,-2.46495e-005 -3.45093e-005,-4.27258e-005 -6.5732e-006,-2.13629e-005 -9.85979e-006,-4.10825e-005 -4.9299e-006,-6.24454e-005l0.000356596 -0.0028199c4.9299e-006,-4.60124e-005 1.6433e-005,-8.21649e-005 2.79361e-005,-0.000108458 1.31464e-005,-2.62928e-005 3.12227e-005,-4.76557e-005 5.75155e-005,-6.40887e-005 2.62928e-005,-1.47897e-005 5.91588e-005,-2.46495e-005 0.000100241,-2.95794e-005 4.27258e-005,-4.9299e-006 9.69546e-005,-8.21649e-006 0.000162687,-8.21649e-006 6.40887e-005,0 0.000115031,1.6433e-006 0.000151183,4.9299e-006 3.61526e-005,3.2866e-006 6.08021e-005,8.21649e-006 7.88783e-005,1.80763e-005 1.80763e-005,9.85979e-006 2.79361e-005,2.13629e-005 2.79361e-005,3.61526e-005 3.2866e-006,1.80763e-005 1.6433e-006,3.94392e-005 0,6.90186e-005l-0.000341806 0.00236635 9.85979e-006 0 0.00200154 -0.0023795c3.61526e-005,-4.10825e-005 6.40887e-005,-6.73753e-005 9.03814e-005,-8.05216e-005 2.30062e-005,-1.15031e-005 5.58722e-005,-2.13629e-005 9.53113e-005,-2.62928e-005 4.10825e-005,-4.9299e-006 9.53113e-005,-8.21649e-006 0.000165973,-8.21649e-006 6.08021e-005,0 0.000108458,3.2866e-006 0.000146254,8.21649e-006 3.61526e-005,4.9299e-006 6.08021e-005,1.47897e-005 7.06619e-005,2.95794e-005 1.15031e-005,1.6433e-005 9.85979e-006,3.77959e-005 -3.2866e-006,6.40887e-005 -1.31464e-005,2.62928e-005 -3.61526e-005,5.91588e-005 -6.73753e-005,9.69546e-005l-0.00252739 0.00293658zm0.00793385 -0.00029908c-3.2866e-005,6.24454e-005 -6.24454e-005,0.000113388 -8.70948e-005,0.000151183 -2.79361e-005,3.77959e-005 -5.58722e-005,6.40887e-005 -8.21649e-005,8.21649e-005 -2.46495e-005,1.6433e-005 -6.08021e-005,3.45093e-005 -0.000101885,4.9299e-005 -4.43691e-005,1.47897e-005 -8.87381e-005,2.62928e-005 -0.00013968,3.61526e-005 -5.09423e-005,1.15031e-005 -0.000100241,1.97196e-005 -0.00015447,2.62928e-005 -5.25856e-005,6.5732e-006 -0.000105171,9.85979e-006 -0.000156113,9.85979e-006 -0.000152827,0 -0.000274431,-1.97196e-005 -0.000364812,-6.08021e-005 -8.54515e-005,-4.10825e-005 -0.000146254,-0.000101885 -0.000175833,-0.000184049 -2.79361e-005,-8.21649e-005 -2.79361e-005,-0.000185693 3.2866e-006,-0.000312227 3.12227e-005,-0.000124891 9.03814e-005,-0.000272788 0.000175833,-0.000443691l0.000861089 -0.00172546 -0.000414111 0c-3.12227e-005,0 -4.9299e-005,-1.6433e-005 -5.25856e-005,-5.25856e-005 -1.6433e-006,-3.45093e-005 1.6433e-005,-9.20247e-005 5.58722e-005,-0.00016926 2.13629e-005,-4.27258e-005 4.10825e-005,-7.7235e-005 6.08021e-005,-0.000105171 1.97196e-005,-2.95794e-005 3.94392e-005,-5.25856e-005 5.58722e-005,-7.06619e-005 1.97196e-005,-1.97196e-005 3.61526e-005,-3.2866e-005 5.42289e-005,-3.94392e-005 1.97196e-005,-8.21649e-006 3.61526e-005,-1.15031e-005 5.42289e-005,-1.15031e-005l0.000410825 0 0.000350023 -0.000701689c8.21649e-006,-1.6433e-005 1.80763e-005,-2.95794e-005 3.2866e-005,-4.27258e-005 1.47897e-005,-1.31464e-005 3.2866e-005,-2.46495e-005 5.91588e-005,-3.45093e-005 2.62928e-005,-9.85979e-006 5.75155e-005,-1.6433e-005 9.53113e-005,-2.13629e-005 3.61526e-005,-4.9299e-006 8.21649e-005,-6.5732e-006 0.000133107,-6.5732e-006 5.58722e-005,0 9.85979e-005,1.6433e-006 0.000131464,6.5732e-006 3.2866e-005,4.9299e-006 5.75155e-005,1.15031e-005 7.06619e-005,2.13629e-005 1.47897e-005,9.85979e-006 2.30062e-005,2.13629e-005 2.46495e-005,3.45093e-005 3.2866e-006,1.31464e-005 0,2.62928e-005 -6.5732e-006,4.27258e-005l-0.000351666 0.000701689 0.000759204 0c1.6433e-005,0 2.95794e-005,3.2866e-006 3.94392e-005,1.15031e-005 9.85979e-006,6.5732e-006 1.47897e-005,1.97196e-005 1.47897e-005,3.94392e-005 0,1.80763e-005 -3.2866e-006,4.10825e-005 -1.47897e-005,7.06619e-005 -9.85979e-006,2.79361e-005 -2.46495e-005,6.24454e-005 -4.60124e-005,0.000105171 -3.94392e-005,7.7235e-005 -7.55917e-005,0.000134751 -0.000113388,0.00016926 -3.77959e-005,3.61526e-005 -7.23052e-005,5.25856e-005 -0.000103528,5.25856e-005l-0.000759204 0 -0.000821649 0.00164659c-0.000101885,0.000203769 -0.00014954,0.000358239 -0.000141324,0.000461767 8.21649e-006,0.000103528 9.03814e-005,0.00015447 0.000244852,0.00015447 5.09423e-005,0 9.85979e-005,-4.9299e-006 0.000142967,-1.31464e-005 4.27258e-005,-1.15031e-005 8.54515e-005,-2.30062e-005 0.000119961,-3.2866e-005 3.61526e-005,-9.85979e-006 6.90186e-005,-1.97196e-005 9.3668e-005,-3.12227e-005 2.79361e-005,-9.85979e-006 4.9299e-005,-1.47897e-005 6.73753e-005,-1.47897e-005 1.15031e-005,0 1.97196e-005,3.2866e-006 2.79361e-005,8.21649e-006 6.5732e-006,6.5732e-006 8.21649e-006,1.6433e-005 6.5732e-006,3.2866e-005 -1.6433e-006,1.47897e-005 -6.5732e-006,3.45093e-005 -1.6433e-005,6.08021e-005 -9.85979e-006,2.62928e-005 -2.30062e-005,5.91588e-005 -4.27258e-005,9.85979e-005zm0.00623961 -0.00129163c-0.000119961,0.000239922 -0.000261285,0.000461767 -0.000425614,0.000662249 -0.00016433,0.000203769 -0.000346736,0.000379602 -0.000545575,0.000525856 -0.000198839,0.000146254 -0.000412468,0.000259641 -0.000644173,0.000341806 -0.000228419,8.05216e-005 -0.000469983,0.000123247 -0.000716478,0.000123247 -0.000244852,0 -0.000437118,-3.61526e-005 -0.000581728,-0.000108458 -0.00014461,-7.23052e-005 -0.000243208,-0.000177476 -0.000294151,-0.000315513 -5.09423e-005,-0.000138037 -5.75155e-005,-0.00030401 -1.6433e-005,-0.000501206 3.77959e-005,-0.000197196 0.000119961,-0.000420685 0.000244852,-0.000668823 0.000119961,-0.000239922 0.000261285,-0.000461767 0.000423971,-0.000663893 0.00016433,-0.000202126 0.000345093,-0.000376315 0.000543932,-0.000524212 0.000198839,-0.000146254 0.000412468,-0.000259641 0.000640887,-0.000340163 0.000228419,-8.21649e-005 0.00046834,-0.000121604 0.000718122,-0.000121604 0.000244852,0 0.000438761,3.45093e-005 0.000581728,0.000108458 0.00014461,7.23052e-005 0.000243208,0.000177476 0.000294151,0.00031387 5.25856e-005,0.000138037 5.75155e-005,0.000307297 1.97196e-005,0.000502849 -3.77959e-005,0.000195553 -0.000118318,0.000417398 -0.000243208,0.000665536zm-0.000586658 3.61526e-005c7.88783e-005,-0.000161043 0.000138037,-0.000310583 0.000180763,-0.00045355 4.10825e-005,-0.000141324 5.42289e-005,-0.000266214 4.10825e-005,-0.000373029 -1.47897e-005,-0.000106814 -6.40887e-005,-0.000190623 -0.000147897,-0.000254711 -8.54515e-005,-6.24454e-005 -0.000215272,-9.3668e-005 -0.000386175,-9.3668e-005 -0.000161043,0 -0.000312227,2.95794e-005 -0.000455194,8.70948e-005 -0.000142967,5.42289e-005 -0.000277718,0.000134751 -0.000402608,0.000239922 -0.000128177,0.000103528 -0.000244852,0.000226775 -0.000351666,0.000369742 -0.000106814,0.000141324 -0.000202126,0.000295794 -0.000285934,0.000465054 -8.05216e-005,0.000161043 -0.000141324,0.00031387 -0.000184049,0.000455194 -4.10825e-005,0.000142967 -5.42289e-005,0.000266214 -3.77959e-005,0.000371386 1.47897e-005,0.000106814 6.73753e-005,0.000192266 0.00014954,0.000253068 8.54515e-005,6.40887e-005 0.000215272,9.3668e-005 0.000386175,9.3668e-005 0.0001594,0 0.00030894,-2.79361e-005 0.00045355,-8.38082e-005 0.00014461,-5.91588e-005 0.000279361,-0.000138037 0.000404252,-0.000241565 0.000126534,-0.000101885 0.000243208,-0.000223489 0.000348379,-0.000366456 0.000106814,-0.000142967 0.000202126,-0.000297437 0.000287577,-0.00046834zm0.00985651 0.000954757c-1.6433e-005,3.45093e-005 -3.45093e-005,6.40887e-005 -4.9299e-005,9.03814e-005 -1.47897e-005,2.62928e-005 -2.95794e-005,5.09423e-005 -4.60124e-005,6.90186e-005 -1.47897e-005,1.97196e-005 -2.95794e-005,3.77959e-005 -4.60124e-005,5.25856e-005 -1.80763e-005,1.47897e-005 -4.27258e-005,3.45093e-005 -7.39485e-005,5.58722e-005 -3.45093e-005,2.30062e-005 -9.69546e-005,5.42289e-005 -0.000187336,0.000100241 -9.3668e-005,4.43691e-005 -0.000202126,8.87381e-005 -0.000327016,0.000131464 -0.000126534,4.27258e-005 -0.000262928,7.88783e-005 -0.000410825,0.000106814 -0.00014954,3.12227e-005 -0.000305654,4.60124e-005 -0.00046341,4.60124e-005 -0.000276074,0 -0.000502849,-4.60124e-005 -0.000678682,-0.000138037 -0.00017419,-9.20247e-005 -0.000297437,-0.000226775 -0.000364812,-0.000405895 -6.5732e-005,-0.000180763 -7.55917e-005,-0.000400965 -2.79361e-005,-0.000665536 4.76557e-005,-0.000262928 0.000157757,-0.000566938 0.00032866,-0.000910388 0.000175833,-0.000351666 0.000377959,-0.000663893 0.000608021,-0.000939967 0.000226775,-0.000276074 0.000471627,-0.000509423 0.000731268,-0.000700045 0.000259641,-0.000192266 0.000527499,-0.00033852 0.00080686,-0.000438761 0.000277718,-0.000100241 0.000555435,-0.000151183 0.000833153,-0.000151183 0.000123247,0 0.000236635,1.15031e-005 0.000341806,3.45093e-005 0.000103528,2.30062e-005 0.000197196,5.25856e-005 0.000277718,8.70948e-005 8.05216e-005,3.61526e-005 0.000147897,7.55917e-005 0.000202126,0.000121604 5.25856e-005,4.60124e-005 8.70948e-005,8.38082e-005 0.000100241,0.000113388 1.47897e-005,2.95794e-005 2.46495e-005,5.09423e-005 2.46495e-005,6.5732e-005 1.6433e-006,1.6433e-005 1.6433e-006,3.61526e-005 -4.9299e-006,5.58722e-005 -4.9299e-006,2.13629e-005 -1.31464e-005,4.60124e-005 -2.46495e-005,7.23052e-005 -9.85979e-006,2.95794e-005 -2.46495e-005,6.40887e-005 -4.43691e-005,0.000103528 -2.13629e-005,4.27258e-005 -4.27258e-005,8.05216e-005 -6.24454e-005,0.000111744 -1.97196e-005,2.95794e-005 -3.94392e-005,5.58722e-005 -5.91588e-005,7.55917e-005 -1.97196e-005,2.13629e-005 -3.61526e-005,3.61526e-005 -5.42289e-005,4.60124e-005 -1.6433e-005,9.85979e-006 -3.45093e-005,1.47897e-005 -5.09423e-005,1.47897e-005 -3.12227e-005,0 -6.24454e-005,-1.97196e-005 -9.69546e-005,-6.24454e-005 -3.2866e-005,-4.27258e-005 -8.05216e-005,-9.03814e-005 -0.000141324,-0.000141324 -6.08021e-005,-5.25856e-005 -0.000141324,-9.85979e-005 -0.000243208,-0.000141324 -0.000101885,-4.27258e-005 -0.000239922,-6.40887e-005 -0.000412468,-6.40887e-005 -0.000188979,0 -0.000377959,3.61526e-005 -0.000570225,0.000113388 -0.000192266,7.39485e-005 -0.000377959,0.000185693 -0.000560365,0.000331946 -0.000184049,0.000146254 -0.000358239,0.000327016 -0.000522569,0.000535715 -0.000165973,0.000210342 -0.000315513,0.000451907 -0.000451907,0.000724695 -0.000134751,0.000267858 -0.000223489,0.000506136 -0.000267858,0.000711548 -4.76557e-005,0.000207056 -4.9299e-005,0.000379602 -1.15031e-005,0.000519282 3.94392e-005,0.000138037 0.000119961,0.000243208 0.000241565,0.00031387 0.000121604,7.23052e-005 0.000281004,0.000108458 0.000481487,0.000108458 0.000167616,0 0.000325373,-2.30062e-005 0.000471627,-6.40887e-005 0.000146254,-3.94392e-005 0.000277718,-8.70948e-005 0.000392748,-0.00013968 0.000113388,-5.09423e-005 0.000208699,-9.69546e-005 0.000287577,-0.000138037 7.7235e-005,-4.10825e-005 0.000131464,-6.24454e-005 0.00016433,-6.24454e-005 1.6433e-005,0 2.79361e-005,1.6433e-006 3.45093e-005,9.85979e-006 8.21649e-006,6.5732e-006 1.15031e-005,1.80763e-005 8.21649e-006,3.77959e-005 -3.2866e-006,1.80763e-005 -9.85979e-006,4.43691e-005 -2.46495e-005,7.7235e-005 -1.15031e-005,3.2866e-005 -3.12227e-005,7.39485e-005 -5.75155e-005,0.000124891zm0.00573018 -0.00223982c-2.30062e-005,4.76557e-005 -4.43691e-005,8.70948e-005 -6.40887e-005,0.000119961 -1.97196e-005,3.45093e-005 -3.61526e-005,5.91588e-005 -4.9299e-005,7.7235e-005 -1.80763e-005,1.97196e-005 -3.2866e-005,3.2866e-005 -4.60124e-005,4.27258e-005 -1.6433e-005,9.85979e-006 -3.12227e-005,1.47897e-005 -5.09423e-005,1.47897e-005 -1.6433e-005,0 -3.61526e-005,-4.9299e-006 -5.58722e-005,-1.47897e-005 -1.97196e-005,-9.85979e-006 -4.43691e-005,-1.80763e-005 -7.06619e-005,-2.79361e-005 -2.62928e-005,-9.85979e-006 -5.75155e-005,-2.13629e-005 -9.20247e-005,-2.95794e-005 -3.61526e-005,-8.21649e-006 -7.55917e-005,-1.31464e-005 -0.000121604,-1.31464e-005 -5.42289e-005,0 -0.000113388,1.15031e-005 -0.000177476,3.2866e-005 -6.24454e-005,2.30062e-005 -0.000136394,5.75155e-005 -0.000218559,0.000108458 -8.38082e-005,5.09423e-005 -0.000177476,0.000118318 -0.000282647,0.000200482 -0.000105171,8.21649e-005 -0.000226775,0.000184049 -0.000361526,0.00030401l-0.000969546 0.00194238c-9.85979e-006,1.6433e-005 -2.13629e-005,3.12227e-005 -3.61526e-005,4.27258e-005 -1.47897e-005,1.31464e-005 -3.45093e-005,2.30062e-005 -5.75155e-005,3.2866e-005 -2.46495e-005,8.21649e-006 -5.58722e-005,1.47897e-005 -9.20247e-005,1.97196e-005 -3.77959e-005,3.2866e-006 -8.38082e-005,6.5732e-006 -0.000138037,6.5732e-006 -5.25856e-005,0 -9.53113e-005,-3.2866e-006 -0.000128177,-6.5732e-006 -3.2866e-005,-4.9299e-006 -5.75155e-005,-1.15031e-005 -7.39485e-005,-1.97196e-005 -1.6433e-005,-9.85979e-006 -2.46495e-005,-1.97196e-005 -2.62928e-005,-3.2866e-005 -3.2866e-006,-1.15031e-005 1.6433e-006,-2.62928e-005 9.85979e-006,-4.27258e-005l0.00147568 -0.00295136c8.21649e-006,-1.80763e-005 1.80763e-005,-3.2866e-005 3.12227e-005,-4.43691e-005 1.31464e-005,-1.15031e-005 3.12227e-005,-2.30062e-005 5.42289e-005,-3.45093e-005 2.62928e-005,-9.85979e-006 5.42289e-005,-1.47897e-005 8.54515e-005,-1.80763e-005 3.2866e-005,-3.2866e-006 7.55917e-005,-4.9299e-006 0.000124891,-4.9299e-006 4.76557e-005,0 8.70948e-005,1.6433e-006 0.000116674,4.9299e-006 3.12227e-005,3.2866e-006 5.09423e-005,8.21649e-006 6.5732e-005,1.80763e-005 9.85979e-006,1.15031e-005 1.80763e-005,2.30062e-005 1.97196e-005,3.45093e-005 1.6433e-006,1.15031e-005 -1.6433e-006,2.62928e-005 -9.85979e-006,4.43691e-005l-0.000215272 0.000430544c0.00013968,-0.000119961 0.000264571,-0.000216915 0.000371386,-0.000289221 0.000108458,-7.39485e-005 0.000205412,-0.000134751 0.000290864,-0.000175833 8.38082e-005,-4.43691e-005 0.000161043,-7.23052e-005 0.000231705,-8.87381e-005 7.06619e-005,-1.6433e-005 0.000138037,-2.46495e-005 0.000200482,-2.46495e-005 2.95794e-005,0 6.08021e-005,1.6433e-006 9.53113e-005,4.9299e-006 3.45093e-005,3.2866e-006 6.90186e-005,8.21649e-006 0.000103528,1.80763e-005 3.45093e-005,9.85979e-006 6.5732e-005,1.80763e-005 9.20247e-005,2.95794e-005 2.62928e-005,1.15031e-005 4.43691e-005,2.13629e-005 5.09423e-005,3.12227e-005 8.21649e-006,1.15031e-005 1.15031e-005,2.13629e-005 9.85979e-006,3.12227e-005 0,1.15031e-005 -1.6433e-006,2.46495e-005 -6.5732e-006,3.94392e-005 -3.2866e-006,1.47897e-005 -1.31464e-005,3.77959e-005 -2.79361e-005,6.5732e-005 -1.15031e-005,3.12227e-005 -3.2866e-005,7.06619e-005 -5.75155e-005,0.000121604zm0.00396857 0.00275746c-8.21649e-006,1.6433e-005 -1.97196e-005,3.12227e-005 -3.2866e-005,4.27258e-005 -1.47897e-005,1.31464e-005 -3.2866e-005,2.30062e-005 -5.75155e-005,3.2866e-005 -2.30062e-005,8.21649e-006 -5.25856e-005,1.47897e-005 -8.70948e-005,1.97196e-005 -3.2866e-005,3.2866e-006 -7.39485e-005,6.5732e-006 -0.000119961,6.5732e-006 -5.09423e-005,0 -8.87381e-005,-3.2866e-006 -0.000119961,-6.5732e-006 -2.79361e-005,-4.9299e-006 -4.9299e-005,-1.15031e-005 -6.40887e-005,-1.97196e-005 -1.47897e-005,-9.85979e-006 -2.13629e-005,-1.97196e-005 -2.30062e-005,-3.2866e-005 0,-1.15031e-005 4.9299e-006,-2.62928e-005 1.31464e-005,-4.27258e-005l0.000195553 -0.000391105c-0.000261285,0.000185693 -0.000496276,0.000322087 -0.000703332,0.000407538 -0.000205412,8.54515e-005 -0.000394392,0.000128177 -0.000562008,0.000128177 -0.000195553,0 -0.000346736,-3.2866e-005 -0.000448621,-9.85979e-005 -0.000100241,-6.5732e-005 -0.00016433,-0.00015447 -0.000190623,-0.000267858 -2.79361e-005,-0.000113388 -2.13629e-005,-0.000243208 1.80763e-005,-0.000392748 3.77959e-005,-0.000151183 0.000111744,-0.000331946 0.000218559,-0.000545575l0.000893955 -0.0017912c8.21649e-006,-1.80763e-005 1.97196e-005,-3.2866e-005 3.45093e-005,-4.43691e-005 1.31464e-005,-1.15031e-005 3.2866e-005,-2.30062e-005 5.91588e-005,-3.45093e-005 2.62928e-005,-9.85979e-006 5.75155e-005,-1.47897e-005 9.53113e-005,-1.80763e-005 3.61526e-005,-3.2866e-006 8.21649e-005,-4.9299e-006 0.000133107,-4.9299e-006 5.42289e-005,0 9.53113e-005,1.6433e-006 0.000129821,4.9299e-006 3.12227e-005,3.2866e-006 5.75155e-005,8.21649e-006 7.39485e-005,1.80763e-005 1.47897e-005,1.15031e-005 2.30062e-005,2.30062e-005 2.79361e-005,3.45093e-005 1.6433e-006,1.15031e-005 0,2.62928e-005 -9.85979e-006,4.43691e-005l-0.000857802 0.00171725c-8.54515e-005,0.000172546 -0.000142967,0.000312227 -0.000170903,0.000415755 -2.62928e-005,0.000103528 -3.2866e-005,0.000192266 -1.6433e-005,0.000264571 1.31464e-005,7.55917e-005 5.09423e-005,0.000131464 0.000108458,0.000170903 5.91588e-005,4.10825e-005 0.000141324,6.24454e-005 0.000246495,6.24454e-005 0.000134751,0 0.000294151,-4.9299e-005 0.000476557,-0.00014461 0.000182406,-9.69546e-005 0.000394392,-0.000238278 0.000639243,-0.000423971l0.00103035 -0.00206234c9.85979e-006,-1.80763e-005 1.97196e-005,-3.2866e-005 3.45093e-005,-4.43691e-005 1.31464e-005,-1.15031e-005 3.2866e-005,-2.30062e-005 6.08021e-005,-3.45093e-005 2.62928e-005,-9.85979e-006 5.75155e-005,-1.47897e-005 9.20247e-005,-1.80763e-005 3.61526e-005,-3.2866e-006 8.21649e-005,-4.9299e-006 0.000136394,-4.9299e-006 5.09423e-005,0 9.53113e-005,1.6433e-006 0.000126534,4.9299e-006 3.45093e-005,3.2866e-006 5.91588e-005,8.21649e-006 7.39485e-005,1.80763e-005 1.47897e-005,1.15031e-005 2.30062e-005,2.30062e-005 2.79361e-005,3.45093e-005 4.9299e-006,1.15031e-005 1.6433e-006,2.62928e-005 -8.21649e-006,4.43691e-005l-0.00147404 0.00295136zm0.00374179 0c-8.21649e-006,1.6433e-005 -1.97196e-005,3.12227e-005 -3.45093e-005,4.27258e-005 -1.6433e-005,1.31464e-005 -3.45093e-005,2.30062e-005 -5.75155e-005,3.2866e-005 -2.46495e-005,8.21649e-006 -5.58722e-005,1.47897e-005 -9.20247e-005,1.97196e-005 -3.77959e-005,3.2866e-006 -8.38082e-005,6.5732e-006 -0.00013968,6.5732e-006 -5.09423e-005,0 -9.3668e-005,-3.2866e-006 -0.000126534,-6.5732e-006 -3.45093e-005,-4.9299e-006 -5.91588e-005,-1.15031e-005 -7.39485e-005,-1.97196e-005 -1.6433e-005,-9.85979e-006 -2.62928e-005,-1.97196e-005 -2.62928e-005,-3.2866e-005 -3.2866e-006,-1.15031e-005 0,-2.62928e-005 9.85979e-006,-4.27258e-005l0.00147404 -0.00295136c8.21649e-006,-1.6433e-005 1.97196e-005,-2.95794e-005 3.45093e-005,-4.27258e-005 1.15031e-005,-1.31464e-005 3.2866e-005,-2.46495e-005 5.75155e-005,-3.2866e-005 2.46495e-005,-8.21649e-006 5.58722e-005,-1.47897e-005 9.3668e-005,-1.97196e-005 3.77959e-005,-4.9299e-006 8.21649e-005,-6.5732e-006 0.000133107,-6.5732e-006 5.42289e-005,0 0.000100241,1.6433e-006 0.000133107,6.5732e-006 3.2866e-005,4.9299e-006 5.58722e-005,1.15031e-005 7.23052e-005,1.97196e-005 1.47897e-005,8.21649e-006 2.30062e-005,1.97196e-005 2.46495e-005,3.2866e-005 3.2866e-006,1.31464e-005 0,2.62928e-005 -6.5732e-006,4.27258e-005l-0.00147568 0.00295136zm0.0020344 -0.00394885c-6.24454e-005,0.000126534 -0.000129821,0.000213629 -0.000200482,0.000259641 -7.23052e-005,4.60124e-005 -0.000170903,6.90186e-005 -0.000300724,6.90186e-005 -0.000126534,0 -0.000202126,-2.30062e-005 -0.000226775,-6.73753e-005 -2.46495e-005,-4.60124e-005 -4.9299e-006,-0.000129821 5.58722e-005,-0.000254711 6.40887e-005,-0.000126534 0.000131464,-0.000213629 0.000202126,-0.000257998 7.06619e-005,-4.60124e-005 0.000170903,-7.06619e-005 0.00029908,-7.06619e-005 0.000128177,0 0.000203769,2.30062e-005 0.000228419,6.73753e-005 2.46495e-005,4.43691e-005 4.9299e-006,0.000129821 -5.75155e-005,0.000254711zm0.00342135 0.00314527c-7.39485e-005,0.000151183 -0.00016926,0.000285934 -0.000284291,0.000402608 -0.000116674,0.000119961 -0.000244852,0.000218559 -0.000387819,0.00029908 -0.000142967,8.05216e-005 -0.000295794,0.000142967 -0.000460124,0.000184049 -0.000161043,4.10825e-005 -0.00032866,6.24454e-005 -0.000499563,6.24454e-005 -0.000103528,0 -0.000200482,-9.85979e-006 -0.000287577,-2.46495e-005 -8.54515e-005,-1.80763e-005 -0.000161043,-3.77959e-005 -0.000223489,-6.24454e-005 -6.40887e-005,-2.62928e-005 -0.000115031,-5.09423e-005 -0.00015447,-7.88783e-005 -3.61526e-005,-2.79361e-005 -6.40887e-005,-5.25856e-005 -7.55917e-005,-7.39485e-005 -1.47897e-005,-2.30062e-005 -1.6433e-005,-5.25856e-005 -8.21649e-006,-9.20247e-005 8.21649e-006,-3.77959e-005 2.95794e-005,-9.3668e-005 6.40887e-005,-0.000161043 1.97196e-005,-4.10825e-005 3.94392e-005,-7.55917e-005 5.91588e-005,-0.000105171 1.97196e-005,-2.79361e-005 3.61526e-005,-4.9299e-005 5.09423e-005,-6.90186e-005 1.47897e-005,-1.6433e-005 3.12227e-005,-2.95794e-005 4.76557e-005,-3.61526e-005 1.47897e-005,-9.85979e-006 3.12227e-005,-1.15031e-005 4.60124e-005,-1.15031e-005 2.46495e-005,0 5.25856e-005,1.31464e-005 8.38082e-005,4.43691e-005 3.45093e-005,2.79361e-005 7.39485e-005,6.08021e-005 0.000124891,9.53113e-005 5.25856e-005,3.45093e-005 0.000116674,6.90186e-005 0.000197196,9.69546e-005 7.88783e-005,2.95794e-005 0.000180763,4.43691e-005 0.000302367,4.43691e-005 9.03814e-005,0 0.00017912,-9.85979e-006 0.000264571,-2.79361e-005 8.38082e-005,-2.13629e-005 0.000162687,-4.9299e-005 0.000236635,-8.87381e-005 7.39485e-005,-3.61526e-005 0.00013968,-8.70948e-005 0.000198839,-0.00014461 5.91588e-005,-5.91588e-005 0.000108458,-0.000129821 0.00014954,-0.000210342 4.10825e-005,-8.38082e-005 5.42289e-005,-0.00015447 4.10825e-005,-0.000210342 -1.47897e-005,-5.58722e-005 -4.76557e-005,-0.000106814 -9.3668e-005,-0.000151183 -4.9299e-005,-4.27258e-005 -0.000108458,-8.21649e-005 -0.00017912,-0.000116674 -6.90186e-005,-3.2866e-005 -0.000142967,-6.90186e-005 -0.000216915,-0.000105171 -7.39485e-005,-3.77959e-005 -0.000142967,-8.05216e-005 -0.000208699,-0.000126534 -6.5732e-005,-4.60124e-005 -0.000116674,-0.000103528 -0.000151183,-0.000172546 -3.61526e-005,-6.90186e-005 -5.25856e-005,-0.00014954 -4.76557e-005,-0.000243208 3.2866e-006,-9.3668e-005 3.77959e-005,-0.000205412 0.000105171,-0.000336876 5.75155e-005,-0.000115031 0.000134751,-0.000226775 0.000233348,-0.000331946 9.69546e-005,-0.000106814 0.000210342,-0.000200482 0.000340163,-0.000279361 0.000129821,-7.88783e-005 0.000272788,-0.00014461 0.000432188,-0.000192266 0.000157757,-4.76557e-005 0.00032866,-7.23052e-005 0.000506136,-7.23052e-005 7.88783e-005,0 0.00015447,6.5732e-006 0.000226775,1.97196e-005 7.23052e-005,1.31464e-005 0.000134751,2.95794e-005 0.000187336,4.9299e-005 5.42289e-005,1.97196e-005 9.85979e-005,4.10825e-005 0.000131464,6.40887e-005 3.2866e-005,2.13629e-005 5.75155e-005,4.27258e-005 7.06619e-005,6.08021e-005 1.31464e-005,1.6433e-005 2.30062e-005,3.12227e-005 2.30062e-005,4.60124e-005 1.6433e-006,1.31464e-005 0,2.62928e-005 -4.9299e-006,4.43691e-005 -4.9299e-006,1.6433e-005 -1.31464e-005,3.61526e-005 -2.13629e-005,6.08021e-005 -8.21649e-006,2.30062e-005 -2.13629e-005,5.25856e-005 -3.94392e-005,8.70948e-005 -1.80763e-005,3.77959e-005 -3.61526e-005,7.06619e-005 -5.25856e-005,9.69546e-005 -1.80763e-005,2.79361e-005 -3.2866e-005,4.9299e-005 -4.9299e-005,6.73753e-005 -1.6433e-005,1.80763e-005 -3.12227e-005,2.95794e-005 -4.76557e-005,3.77959e-005 -1.47897e-005,8.21649e-006 -2.79361e-005,1.15031e-005 -4.10825e-005,1.15031e-005 -1.97196e-005,0 -4.10825e-005,-1.15031e-005 -6.73753e-005,-3.61526e-005 -2.62928e-005,-2.30062e-005 -6.08021e-005,-4.9299e-005 -0.000105171,-7.7235e-005 -4.60124e-005,-2.62928e-005 -0.000101885,-5.25856e-005 -0.000170903,-7.7235e-005 -6.73753e-005,-2.30062e-005 -0.000151183,-3.61526e-005 -0.000254711,-3.61526e-005 -9.20247e-005,0 -0.000177476,9.85979e-006 -0.000259641,3.2866e-005 -7.88783e-005,2.13629e-005 -0.000151183,4.9299e-005 -0.000216915,8.70948e-005 -6.24454e-005,3.94392e-005 -0.000119961,8.54515e-005 -0.00016926,0.000136394 -4.76557e-005,5.42289e-005 -8.87381e-005,0.000110101 -0.000118318,0.000170903 -4.27258e-005,8.54515e-005 -5.75155e-005,0.000156113 -4.27258e-005,0.000215272 1.47897e-005,5.75155e-005 4.76557e-005,0.000106814 9.53113e-005,0.000151183 4.76557e-005,4.43691e-005 0.000108458,8.21649e-005 0.00017912,0.000118318 7.39485e-005,3.45093e-005 0.000146254,7.06619e-005 0.000221845,0.000108458 7.23052e-005,3.77959e-005 0.00014461,7.88783e-005 0.000211986,0.000124891 6.73753e-005,4.60124e-005 0.000121604,0.000100241 0.000157757,0.000167616 3.61526e-005,6.5732e-005 5.42289e-005,0.000142967 4.9299e-005,0.000234992 -1.6433e-006,9.20247e-005 -3.61526e-005,0.000202126 -9.85979e-005,0.00032866zm0.00589451 -0.000800287c-4.43691e-005,8.54515e-005 -9.53113e-005,0.000146254 -0.000156113,0.000182406 -6.08021e-005,3.61526e-005 -0.000116674,5.42289e-005 -0.000172546,5.42289e-005l-0.00193581 0c-8.05216e-005,0.000162687 -0.000138037,0.000310583 -0.000172546,0.000442047 -3.12227e-005,0.000131464 -3.2866e-005,0.000243208 -3.2866e-006,0.000336876 2.95794e-005,9.53113e-005 9.3668e-005,0.000167616 0.000190623,0.000216915 9.69546e-005,5.09423e-005 0.000233348,7.55917e-005 0.000412468,7.55917e-005 0.00013968,0 0.000267858,-9.85979e-006 0.000389462,-3.45093e-005 0.000121604,-2.13629e-005 0.000228419,-4.76557e-005 0.00032373,-7.7235e-005 9.20247e-005,-2.79361e-005 0.000170903,-5.42289e-005 0.000234992,-7.55917e-005 6.24454e-005,-2.46495e-005 0.000106814,-3.45093e-005 0.000133107,-3.45093e-005 1.47897e-005,0 2.79361e-005,3.2866e-006 3.45093e-005,9.85979e-006 8.21649e-006,8.21649e-006 1.15031e-005,1.97196e-005 9.85979e-006,3.45093e-005 0,1.6433e-005 -4.9299e-006,3.77959e-005 -1.47897e-005,6.40887e-005 -1.15031e-005,2.79361e-005 -2.62928e-005,6.08021e-005 -4.60124e-005,0.000100241 -1.47897e-005,2.79361e-005 -2.79361e-005,5.25856e-005 -3.94392e-005,7.39485e-005 -1.47897e-005,2.13629e-005 -2.46495e-005,3.94392e-005 -3.61526e-005,5.58722e-005 -1.31464e-005,1.6433e-005 -2.46495e-005,3.12227e-005 -3.94392e-005,4.43691e-005 -1.47897e-005,1.31464e-005 -3.12227e-005,2.62928e-005 -4.76557e-005,3.77959e-005 -1.80763e-005,1.31464e-005 -6.40887e-005,3.2866e-005 -0.000138037,5.75155e-005 -7.06619e-005,2.79361e-005 -0.000162687,5.58722e-005 -0.000267858,8.21649e-005 -0.000106814,2.46495e-005 -0.000228419,4.9299e-005 -0.000361526,7.06619e-005 -0.000133107,1.97196e-005 -0.000271144,3.12227e-005 -0.000410825,3.12227e-005 -0.000243208,0 -0.000438761,-3.45093e-005 -0.000588301,-0.000101885 -0.000147897,-6.90186e-005 -0.000249781,-0.00016926 -0.000310583,-0.000302367 -5.58722e-005,-0.000133107 -6.73753e-005,-0.00029908 -2.95794e-005,-0.000501206 3.61526e-005,-0.000200482 0.000121604,-0.000435474 0.000254711,-0.000701689 0.000126534,-0.000253068 0.000274431,-0.000481487 0.000440404,-0.000685256 0.000165973,-0.000200482 0.000346736,-0.000373029 0.000540645,-0.000514353 0.000193909,-0.000141324 0.000396035,-0.000248138 0.000611307,-0.00032373 0.000211986,-7.55917e-005 0.000425614,-0.000113388 0.00064253,-0.000113388 0.000231705,0 0.000410825,3.61526e-005 0.000535715,0.000111744 0.000124891,7.39485e-005 0.000208699,0.00017419 0.000251425,0.000300724 4.27258e-005,0.000124891 4.60124e-005,0.000272788 9.85979e-006,0.000442047 -3.45093e-005,0.00016926 -0.000100241,0.000350023 -0.000197196,0.000542289l-4.76557e-005 9.85979e-005zm-0.000465054 -0.0001594c0.000147897,-0.000284291 0.000197196,-0.000509423 0.00014461,-0.000670466 -5.09423e-005,-0.000162687 -0.000205412,-0.000243208 -0.000466697,-0.000243208 -0.000133107,0 -0.000262928,2.62928e-005 -0.000387819,7.55917e-005 -0.000126534,5.09423e-005 -0.000243208,0.000116674 -0.000353309,0.000200482 -0.000108458,8.21649e-005 -0.000210342,0.000180763 -0.000302367,0.000289221 -9.03814e-005,0.000110101 -0.000170903,0.000226775 -0.000234992,0.000348379l0.00160057 0z"/>
  </g>
  <path class="fil3 str0" d="M0.133819 0.000626097c0.0735475,0 0.133194,0.0596468 0.133194,0.133193 0,0.0735475 -0.0596468,0.133194 -0.133194,0.133194 -0.0735458,0 -0.133193,-0.0596468 -0.133193,-0.133194 0,-0.0735458 0.0596468,-0.133193 0.133193,-0.133193zm0 0.00531443c0.0706126,0 0.12788,0.0572657 0.12788,0.127878 0,0.0706126 -0.0572673,0.12788 -0.12788,0.12788 -0.0706126,0 -0.127878,-0.0572673 -0.127878,-0.12788 0,-0.0706126 0.0572657,-0.127878 0.127878,-0.127878z"/>
 </g>
</svg>
