<?xml version="1.0" encoding="UTF-8"?>
<!DOCTYPE svg PUBLIC "-//W3C//DTD SVG 1.1//EN" "http://www.w3.org/Graphics/SVG/1.1/DTD/svg11.dtd">
<!-- Creator: CorelDRAW -->
<svg xmlns="http://www.w3.org/2000/svg" xml:space="preserve" width="0.641209in" height="0.641209in" style="shape-rendering:geometricPrecision; text-rendering:geometricPrecision; image-rendering:optimizeQuality; fill-rule:evenodd; clip-rule:evenodd"
viewBox="0 0 0.267639 0.267639"
 xmlns:xlink="http://www.w3.org/1999/xlink">
 <defs>
  <style type="text/css">
   <![CDATA[
    .str0 {stroke:black;stroke-width:0.00125219}
    .fil1 {fill:#008436}
    .fil0 {fill:#6F6E74}
    .fil2 {fill:#F47B28}
    .fil4 {fill:white}
    .fil3 {fill:black;fill-rule:nonzero}
   ]]>
  </style>
 </defs>
 <g id="Layer_x0020_1">
  <metadata id="CorelCorpID_0Corel-Layer"/>
  <g id="_82230432">
   <path id="_81865184" class="fil0" d="M0.0485726 0.0967213l0.011227 0 -0.0121834 0.0441834 0.0434653 0 0.0121801 -0.0441834 0.0115146 0 -0.0136739 0.0495964c-0.000838082,0.0030401 -0.00401129,0.00552641 -0.00704975,0.00552641l-0.0551508 0c-0.00303846,0 -0.00483952,-0.00248631 -0.00400308,-0.00552641l0.0136739 -0.0495964zm0.146508 0l0.0109378 0 -0.0151972 0.0551228 -0.0109378 0 0.0151972 -0.0551228zm-0.0736855 0l0.0602433 0c0.0030401,0 0.00484116,0.00248795 0.00400472,0.00552641l-0.00611965 0.0221928c-0.000838082,0.0030401 -0.00400965,0.00552641 -0.00704975,0.00552641l-0.0493072 0 -0.00603091 0.0218772 -0.0109378 0 0.00892804 -0.0323828 0.054832 0 0.00329481 -0.0119435 -0.0548336 0 0.00297601 -0.0107965z"/>
   <polygon id="_187375704" class="fil1" points="0.224716,0.0967213 0.238487,0.124283 0.209519,0.151842 0.212807,0.13992 0.229243,0.124283 0.22143,0.108643 "/>
   <polygon id="_187375728" class="fil2" points="0.215473,0.0967213 0.229243,0.124283 0.200275,0.151842 "/>
   <g id="_187366128">
    <path id="_187362192" class="fil3" d="M0.0310551 0.160445l0.00137051 0 -0.00169917 0.00616237c-0.000251425,0.000913674 -0.000228419,0.00161865 7.23052e-005,0.00211657 0.000302367,0.000499563 0.000854515,0.000749344 0.00165316,0.000749344 0.000798643,0 0.00148226,-0.000231705 0.00205248,-0.000691829 0.000568581,-0.000455194 0.00097119,-0.00110265 0.00120125,-0.00193745l0.00176326 -0.00639901 0.00137051 0 -0.00173861 0.00630534c-0.00033852,0.0012259 -0.00096133,0.00220695 -0.00186514,0.00294315 -0.000898885,0.000732911 -0.00193416,0.00110101 -0.00309926,0.00110101 -0.00118975,0 -0.00204098,-0.000374672 -0.00255204,-0.00111744 -0.000511066,-0.000744414 -0.000565295,-0.00184378 -0.00016433,-0.0032981l0.00163508 -0.00593395zm0.010172 -0.000415755l0.0053095 0.00762491 0.00199168 -0.00722066 0.00136887 0 -0.00289056 0.0104875 -0.005321 -0.00758547 -0.00196374 0.00712041 -0.00136887 0 0.00287413 -0.0104267zm0.0110561 0.000404252l0.00135408 0 -0.00276239 0.0100225 -0.00135408 0 0.00276239 -0.0100225zm0.00379438 0l0.00555435 0 -0.000376315 0.00136558 -0.00420027 0 -0.000690186 0.00250439 0.00420027 0 -0.000373029 0.00135244 -0.00418713 0 -0.0013245 0.00480008 -0.00136558 0 0.00276239 -0.0100225zm0.00750823 0l0.00135244 0 -0.00276239 0.0100225 -0.00135408 0 0.00276403 -0.0100225zm0.00379438 0l0.00555435 0 -0.000377959 0.00136558 -0.00420027 0 -0.000690186 0.00250439 0.00420027 0 -0.000373029 0.00135244 -0.00420192 0 -0.000949827 0.00344764 0.00420192 0 -0.000374672 0.00135244 -0.00555271 0 0.00276403 -0.0100225zm0.00753946 0l0.00243044 0c0.00192595,0 0.00321758,0.000506136 0.00387326,0.00152498 0.000660606,0.0010172 0.000810146,0.00217901 0.000448621,0.00348708 -0.000361526,0.00131464 -0.00117003,0.00248138 -0.00241894,0.00349365 -0.00125055,0.00101227 -0.00280018,0.00151676 -0.00464889,0.00151676l-0.00244687 0 0.00276239 -0.0100225zm0.000997482 0.001336l-0.00202126 0.00733404 8.05216e-005 0c0.00101556,0 0.00179613,-4.76557e-005 0.00233348,-0.000138037 0.000539002,-9.03814e-005 0.00108293,-0.000292507 0.0016318,-0.000601447 0.000547219,-0.000312227 0.00102706,-0.000719765 0.00143953,-0.00123247 0.000415755,-0.000509423 0.000704975,-0.00107472 0.000874235,-0.00168602 0.000211986,-0.00077235 0.000187336,-0.00146911 -7.55917e-005,-0.00209521 -0.000262928,-0.000624454 -0.000667179,-0.00104185 -0.0012144,-0.00125877 -0.000547219,-0.000213629 -0.00133107,-0.000322087 -0.00235485,-0.000322087l-0.000693472 0z"/>
    <path id="_187368816" class="fil3" d="M0.160327 0.160434l0.00135572 0 -0.00276567 0.0100225 -0.00135244 0 0.00276239 -0.0100225zm0.00366784 -0.000404252l0.0053095 0.00762491 0.00199332 -0.00722066 0.00136887 0 -0.00289221 0.0104875 -0.005321 -0.00758547 -0.0019621 0.00712041 -0.00137051 0 0.00287413 -0.0104267zm0.0101917 0.000404252l0.00613115 0 -0.000377959 0.00136558 -0.002391 0 -0.00238607 0.0086569 -0.00135408 0 0.00238771 -0.0086569 -0.00238607 0 0.000376315 -0.00136558zm0.00765284 0l0.00555435 0 -0.000376315 0.00136558 -0.00420192 0 -0.000690186 0.00250439 0.00420192 0 -0.000374672 0.00135244 -0.00419863 0 -0.00095147 0.00344764 0.00420027 0 -0.000371386 0.00135244 -0.00555435 0 0.00276239 -0.0100225zm0.00747044 0l0.00216915 0c0.00108293,0 0.00188651,0.000267858 0.00241729,0.000805216 0.000532429,0.000537359 0.000683612,0.00122426 0.000451907,0.00206563 -0.000185693,0.000672109 -0.000568581,0.0012637 -0.00115031,0.00177805 -0.000583371,0.000512709 -0.00137051,0.000875878 -0.00236142,0.00108293l0.00173697 0.00429065 -0.00156606 0 -0.00164987 -0.00412304 -0.000305654 0 -0.00113716 0.00412304 -0.00136887 0 0.00276403 -0.0100225zm0.00103528 0.00121111l-0.000964616 0.00349365c0.00200647,4.10825e-005 0.00317814,-0.000543932 0.00351173,-0.00175669 0.000116674,-0.000423971 9.69546e-005,-0.000770707 -6.40887e-005,-0.00104185 -0.000161043,-0.000271144 -0.000425614,-0.000455194 -0.000793713,-0.000552148 -0.000366456,-9.53113e-005 -0.000928464,-0.000142967 -0.00168931,-0.000142967zm0.00678682 -0.00121111l0.00555435 0 -0.000376315 0.00136558 -0.00420027 0 -0.000690186 0.00250439 0.00420027 0 -0.000373029 0.00135244 -0.00418713 0 -0.00132286 0.00480008 -0.00136722 0 0.00276239 -0.0100225zm0.010619 -0.000387819l0.00186843 0.0104103 -0.00143131 0 -0.000466697 -0.00256355 -0.00425779 0 -0.00184707 0.00256355 -0.0014231 0 0.00755753 -0.0104103zm-0.000864375 0.00314034l-0.00259477 0.00356432 0.0032258 0 -0.000631027 -0.00356432zm0.0142112 -0.00241401l-0.000428901 0.00154799c-0.00093175,-0.000532429 -0.00185364,-0.000795357 -0.00276074,-0.000795357 -0.00116674,0 -0.00225132,0.000377959 -0.00325538,0.00112895 -0.00100406,0.000752631 -0.00165809,0.00167945 -0.00196046,0.00277389 -0.000307297,0.00111744 -0.000156113,0.00204919 0.000451907,0.00279689 0.000609664,0.000749344 0.00152991,0.00112237 0.00275746,0.00112237 0.000892311,0 0.00191116,-0.000281004 0.00306311,-0.000843012l-0.000432188 0.00156606c-0.00104021,0.00048313 -0.00209028,0.000724695 -0.00314692,0.000724695 -0.0015562,0 -0.00273774,-0.000525856 -0.00354953,-0.00157757 -0.00081179,-0.00105171 -0.00101227,-0.00232034 -0.000601447,-0.00380424 0.000400965,-0.00145925 0.0012867,-0.00270816 0.00265557,-0.00374508 0.00137051,-0.00103856 0.00281826,-0.00155949 0.00434488,-0.00155949 0.000982693,0 0.00193581,0.000220202 0.00286263,0.000663893zm0.00170246 -0.00033852l0.00555271 0 -0.000374672 0.00136558 -0.00420192 0 -0.000690186 0.00250439 0.00420027 0 -0.000373029 0.00135244 -0.00420027 0 -0.000949827 0.00344764 0.00420027 0 -0.000373029 0.00135244 -0.00555599 0 0.00276567 -0.0100225z"/>
    <path id="_187350792" class="fil3" d="M0.0887874 0.160397l0.00201468 0c0.00113881,0 0.00198182,0.000264571 0.00253232,0.000800287 0.000550505,0.000535715 0.000708262,0.00122919 0.000471627,0.00208699 -0.000236635,0.000857802 -0.000803573,0.00158085 -0.00170246,0.00216258 -0.000895598,0.000581728 -0.00209521,0.000866019 -0.00358896,0.000849586l-0.00113716 0.00412304 -0.00135408 0 0.00276403 -0.0100225zm0.00102378 0.00119304l-0.000967903 0.00351173c0.00103035,-1.15031e-005 0.00183392,-0.000157757 0.00240579,-0.000438761 0.000573511,-0.000281004 0.00094654,-0.000729625 0.00111744,-0.00134915 0.000128177,-0.000465054 5.25856e-005,-0.000870948 -0.000230062,-0.00121111 -0.000281004,-0.000341806 -0.00105664,-0.000512709 -0.00232527,-0.000512709zm0.0090858 -0.00158085l0.00186843 0.0104103 -0.00143131 0 -0.000466697 -0.00256355 -0.00425614 0 -0.00184871 0.00256355 -0.0014231 0 0.00755753 -0.0104103zm-0.000864375 0.00314034l-0.00259477 0.00356432 0.00322744 0 -0.00063267 -0.00356432zm0.00499727 -0.00275253l0.00151841 0 0.00135079 0.00402773 0.0035446 -0.00402773 0.00151676 0 -0.00478364 0.00542782 -0.00126698 0.00459466 -0.00137051 0 0.0012637 -0.00457987 -0.00177312 -0.00544261zm0.0177 -0.000419041l-0.000142967 0.0104415 -0.00133765 0 9.85979e-005 -0.00638093 -0.0047212 0.00676875 -0.000985979 -0.00681805 -0.00344764 0.00643023 -0.00133765 0 0.00561844 -0.0104415 0.001078 0.00747372 0.00517803 -0.00747372zm0.00375001 0.000419041l0.00555435 0 -0.000377959 0.00136558 -0.00420027 0 -0.000690186 0.00250439 0.00420192 0 -0.000373029 0.00135244 -0.00420192 0 -0.000948183 0.00344764 0.00419863 0 -0.000373029 0.00135244 -0.00555435 0 0.00276403 -0.0100225zm0.00702182 -0.000404252l0.00531114 0.00762491 0.00199003 -0.00722066 0.00137051 0 -0.00289221 0.0104875 -0.005321 -0.00758547 -0.00196374 0.00712041 -0.00137051 0 0.00287577 -0.0104267zm0.00992388 0.000404252l0.0061295 0 -0.000376315 0.00136558 -0.00238936 0 -0.00238771 0.0086569 -0.00135408 0 0.00238771 -0.0086569 -0.00238607 0 0.000376315 -0.00136558zm0.0133107 0.00110758l-0.00135244 0.000890668c-0.000211986,-0.000307297 -0.000415755,-0.000532429 -0.000611307,-0.000681969 -0.000198839,-0.00014954 -0.000524212,-0.000223489 -0.000974476,-0.000223489 -0.000491346,0 -0.000921891,0.000110101 -0.00129163,0.000331946 -0.000368099,0.000223489 -0.000601447,0.000511066 -0.000698402,0.000862732 -8.38082e-005,0.00030401 -2.30062e-005,0.000571868 0.000177476,0.000805216 0.000205412,0.000233348 0.000591588,0.00048806 0.00116017,0.000765777 0.000568581,0.000274431 0.00100241,0.000532429 0.00129328,0.000770707 0.000294151,0.000239922 0.000517639,0.000502849 0.000668823,0.000790427 0.000151183,0.000289221 0.000239922,0.000593231 0.000264571,0.000912031 2.46495e-005,0.0003188 -1.31464e-005,0.000658963 -0.000111744,0.00101556 -0.000228419,0.000833153 -0.000727981,0.0015447 -0.00149705,0.002133 -0.000765777,0.000588301 -0.00158085,0.000880808 -0.0024403,0.000880808 -0.000841369,0 -0.00152005,-0.000228419 -0.0020344,-0.000686899 -0.000514353,-0.000460124 -0.000820006,-0.00115031 -0.000913674,-0.00206563l0.00147404 -0.000387819c0.000188979,0.00112895 0.000797,0.0016926 0.00182406,0.0016926 0.000501206,0 0.000954757,-0.00014954 0.00136722,-0.000448621 0.000414111,-0.000297437 0.000680326,-0.000675396 0.000808503,-0.00113223 7.39485e-005,-0.000274431 6.40887e-005,-0.000548862 -3.2866e-005,-0.000821649 -9.69546e-005,-0.000277718 -0.000251425,-0.000502849 -0.000456837,-0.000683612 -0.000208699,-0.000177476 -0.000562008,-0.000381245 -0.00106486,-0.000609664 -0.000501206,-0.000228419 -0.000874235,-0.000437118 -0.00112402,-0.00062774 -0.000249781,-0.000192266 -0.000448621,-0.000420685 -0.000593231,-0.000685256 -0.00014954,-0.000262928 -0.000236635,-0.000529142 -0.000266214,-0.000788783 -2.95794e-005,-0.000262928 -4.9299e-006,-0.000543932 7.7235e-005,-0.000844656 0.000198839,-0.000718122 0.000654033,-0.00132943 0.00137215,-0.00183556 0.000716478,-0.000506136 0.00148883,-0.000760847 0.00231048,-0.000760847 0.000545575,0 0.00106486,0.000116674 0.00156278,0.000353309 0.000496276,0.000236635 0.000862732,0.000596518 0.00110265,0.00107965z"/>
   </g>
  </g>
  <path class="fil4 str0" d="M0.133819 0.000626097c0.0735475,0 0.133194,0.0596468 0.133194,0.133193 0,0.0735475 -0.0596468,0.133194 -0.133194,0.133194 -0.0735458,0 -0.133193,-0.0596468 -0.133193,-0.133194 0,-0.0735458 0.0596468,-0.133193 0.133193,-0.133193zm0 0.00531443c0.0706126,0 0.12788,0.0572657 0.12788,0.127878 0,0.0706126 -0.0572673,0.12788 -0.12788,0.12788 -0.0706126,0 -0.127878,-0.0572673 -0.127878,-0.12788 0,-0.0706126 0.0572657,-0.127878 0.127878,-0.127878z"/>
 </g>
</svg>
