<?xml version="1.0" encoding="UTF-8"?>
<!DOCTYPE svg PUBLIC "-//W3C//DTD SVG 1.1//EN" "http://www.w3.org/Graphics/SVG/1.1/DTD/svg11.dtd">
<!-- Creator: CorelDRAW -->
<svg xmlns="http://www.w3.org/2000/svg" xml:space="preserve" width="0.641209in" height="0.641209in" style="shape-rendering:geometricPrecision; text-rendering:geometricPrecision; image-rendering:optimizeQuality; fill-rule:evenodd; clip-rule:evenodd"
viewBox="0 0 0.0948176 0.0948176"
 xmlns:xlink="http://www.w3.org/1999/xlink">
 <defs>
  <style type="text/css">
   <![CDATA[
    .str0 {stroke:black;stroke-width:0.00044362}
    .fil1 {fill:#00953E}
    .fil0 {fill:#2B3483}
    .fil3 {fill:#676AA4}
    .fil2 {fill:#EE7101}
    .fil4 {fill:white}
   ]]>
  </style>
 </defs>
 <g id="Layer_x0020_1">
  <metadata id="CorelCorpID_0Corel-Layer"/>
  <g id="_82229832">
   <path id="_82230456" class="fil0" d="M0.0526353 0.0678692l-0.00505796 -0.00599411 0 -0.000490194 5.47247e-005 -0.0231515 -0.0264053 -3.55129e-005 -2.27049e-005 0.0262696 0.0239234 -1.74653e-006 0.00307099 0.00340516 0.00443678 -1.74653e-006zm-0.028036 -0.00674744l0.0178967 1.51366e-005 -0.00461143 -0.00548237 0.0037632 5.76356e-005 0.00255343 0.00293767 2.09584e-005 -0.017038 -0.0196206 -7.56832e-006 -2.32871e-006 0.0195175zm0.00248183 -0.00241255l0.0023095 0 0 -0.00231008 -0.0023095 0 0 0.00231008zm0.00746527 -0.00486701l0 -0.00743558 -0.00256508 0 0 -0.00231008 0.00488855 0 -1.39723e-005 0.00496598 0.00487632 0 0 0.0023095 -0.00487632 0 5.82178e-007 0.00495317 -0.00245679 0 0 0.00248998 -0.00239916 0 0 -0.00497297 0.00254586 0zm-0.00743733 -0.00743674l0.0023095 0 0 -0.0023095 -0.0023095 0 0 0.0023095zm-7.33544e-005 0.00247135l0.00498053 0 0 0.00248299 -0.00258254 0 0 0.00248998 -0.00239799 0 0 -0.00497297zm0.0123195 -0.00247135l0.00231008 0 0 -0.0023095 -0.00231008 0 0 0.0023095z"/>
   <path id="_82230552" class="fil0" d="M0.0693287 0.0484308c0.000220063,-0.000107121 -0.000165921,-5.29782e-005 0.000409853,-0.000144962 0.000106539,-1.6301e-005 0.000414511,-1.74653e-005 0.000535022,-1.92119e-005 0.000364444,-4.07525e-006 0.000751592,1.10614e-005 0.00111953,1.10614e-005 0.000706182,0 0.00137685,-8.73267e-006 0.00205509,3.43485e-005l3.31842e-005 -0.00304537 -0.00375272 9.31485e-006c-0.000824946,-8.96554e-005 -0.000285849,-2.91089e-006 -0.000487283,-0.000271295 -0.000621766,-0.00205858 -0.000987956,-0.00239101 -0.00197417,-0.00374108l0.00630732 -4.65743e-006 -1.10614e-005 -0.00317578 -0.0203704 -6.92792e-005 8.15049e-006 0.00327533c0.00517673,-0.000130408 0.0109531,-0.000934978 0.0122129,0.00380162l-0.012132 6.28752e-005 -6.81148e-005 0.00323109 0.01221 -4.65743e-006c-0.00129826,0.00492115 -0.00707114,0.00421031 -0.0122391,0.00402169l1.86297e-005 0.00329687 0.00484896 -2.56158e-005 0.00792344 0.0115859 0.00418179 -2.91089e-006c-0.000348725,-0.000946039 -0.00708627,-0.00990052 -0.00819357,-0.0118042 0.00103686,-0.000586253 0.00615129,-0.000562966 0.00736455,-0.00702107z"/>
   <path id="_82230648" class="fil1" d="M0.0659107 0.03404c0.000378998,-0.000490776 0.000289925,-0.000483208 0.000883746,-0.000750428 -0.000597897,-0.00140247 0.000128079,-0.00060954 0.000396463,-0.0022507 0.000540261,-0.003319 -0.00289925,-0.00511443 -0.00556621,-0.00348143 -0.00235375,0.00144206 -0.00204053,0.00666361 0.00281425,0.0061088 0.00153462,-0.000174653 0.000353382,-0.000129244 0.00147175,0.000373758zm-0.00194506 -0.0017803c-0.000319034,-0.00159983 -0.000827857,-0.00029924 0.000583925,-0.00159459l0.000790598 0.000533857c0.000617691,-0.00234327 -0.00141528,-0.00348434 -0.00276535,-0.00232114 -0.00122781,0.00105724 -0.000788851,0.00327883 0.00139082,0.00338187z"/>
   <path id="_82230744" class="fil2" d="M0.0210772 0.0336598c0.00112477,-5.82178e-006 0.0039821,0.000129826 0.00483557,-0.000197358 0.00125459,-0.00047855 0.00142459,-0.00262737 -9.95525e-005,-0.00312339 3.78416e-005,-3.55129e-005 0.000102463,-0.000133319 0.000122257,-9.83881e-005 0.000132154,0.0002352 0.000799331,-0.000838919 0.000813303,-0.00143507 5.41426e-005,-0.00239159 -0.00300287,-0.00171044 -0.00567391,-0.00173722l2.32871e-006 0.00659142zm0.0016953 -0.0041387l0.00220995 -2.44515e-005c-4.83208e-005,-0.00130757 -0.000882,-0.00101939 -0.00214067,-0.000946622l-6.92792e-005 0.000971073zm1.28079e-005 0.00259651c0.000874432,7.80119e-005 0.00167784,0.000145545 0.00230543,-0.000196776 6.5204e-005,-0.00122141 -0.00114631,-0.000925081 -0.00230077,-0.000833679l-4.65743e-006 0.00103046z"/>
   <path id="_82230840" class="fil2" d="M0.0420705 0.0336598l0.00170171 -3.37663e-005 1.39723e-005 -0.00218608c0.00104326,1.51366e-005 0.00104967,0.000108867 0.00191769,0.00218084l0.0019404 1.10614e-005c-0.000344649,-0.000859295 -0.000891897,-0.00155383 -0.00122781,-0.00246785 0.00137394,-0.00046516 0.00170869,-0.00254761 0.000625259,-0.00352334 -0.00098621,-0.000887822 -0.00346629,-0.000560055 -0.00497879,-0.000571699l7.56832e-006 0.00659084zm0.00170927 -0.00369974c0.00118008,-3.49307e-006 0.00225303,0.000282356 0.00207663,-0.00115621 -0.000672416,-0.000359204 -0.00119987,-0.000278863 -0.00208886,-0.000279446l1.22257e-005 0.00143565z"/>
   <path id="_82230936" class="fil1" d="M0.0681242 0.03358l0.00169763 4.42455e-005 1.57188e-005 -0.00219074c0.000900047,1.57188e-005 0.0010811,-0.000186297 0.00192119,0.00219889l0.00194215 3.08554e-005 -0.00128428 -0.00249405c0.00149387,-0.000471564 0.00178845,-0.00256566 0.000569952,-0.00357748 -0.000888986,-0.000738784 -0.00344591,-0.000575192 -0.00479948,-0.000495434l-6.28752e-005 0.00648372zm0.0016953 -0.00372769c0.00101765,0.000262562 0.00210574,0.000380744 0.00212728,-0.000847651 -0.000521632,-0.000591493 -0.00103861,-0.000569952 -0.00208886,-0.000424408l-3.84238e-005 0.00127206z"/>
   <path id="_82231032" class="fil2" d="M0.0344981 0.0336598c0.0025971,-4.07525e-006 0.00164873,5.82178e-007 0.00230484,-0.000920424l0.00221985 -3.14376e-005c0.000896554,0.000418586 -8.73267e-006,0.000452352 0.000925081,0.000950115l0.00159226 -3.6095e-005 -0.00211738 -0.0057461c-0.000295164,-0.000720154 -5.06495e-005,-0.00047855 -0.000585671,-0.000803406l-0.00166445 1.16436e-006c-0.000654368,0.000489612 -0.00242477,0.00557727 -0.00267453,0.00658618zm0.00270829 -0.00249114l0.00159226 4.07525e-005 -0.000735291 -0.00233046 -0.000856966 0.00228971z"/>
   <path id="_82231128" class="fil2" d="M0.0479645 0.0335882l0.00160099 8.15049e-005c0.000948368,-0.000528036 -1.57188e-005,-0.00056937 0.000925081,-0.000960012l0.00222101 1.10614e-005c0.000645636,0.00105491 3.14376e-005,0.00093556 0.00228563,0.000937889l-0.0024172 -0.00653611c-0.00254237,-7.8594e-005 -0.00209875,-0.000359204 -0.00274089,0.00142051 -0.000214242,0.00059324 -0.000442455,0.00117367 -0.000663683,0.00174653 -0.000404614,0.00104967 -0.000861624,0.00224837 -0.00121093,0.00329862zm0.00267918 -0.00240207l0.00162311 8.15049e-006 -0.000731798 -0.0023258 -0.000891315 0.00231765z"/>
   <path id="_82231224" class="fil2" d="M0.0279312 0.0336551l0.00158527 -3.49307e-005 -2.91089e-006 -0.0026361 0.00276826 3.55129e-005 5.82178e-007 0.00264018 0.00162661 3.84238e-005 1.33901e-005 -0.00652505 -0.0015352 -9.31485e-006 -5.58891e-005 0.00236655c-0.000849398,0.000201434 -0.00204403,0.000247426 -0.00287829,-4.19168e-005l4.65743e-006 -0.00231649 -0.00152938 -6.98614e-006 2.91089e-006 0.00649012z"/>
   <polygon id="_81864968" class="fil2" points="0.054528,0.0273408 0.0545233,0.0285256 0.0563199,0.0285326 0.0563874,0.0336604 0.058099,0.0336546 0.0581008,0.028543 0.0599568,0.0285215 0.0599457,0.0270783 "/>
   <path id="_81865064" class="fil3" d="M0.0693287 0.0484308l0.00424874 -1.04792e-005 3.08554e-005 -0.0032765 -0.00436692 -0.000139141c0.000201434,0.000268384 -0.000337663,0.00018164 0.000487283,0.000271295l0.00375272 -9.31485e-006 -3.31842e-005 0.00304537c-0.000678238,-4.30812e-005 -0.00134891,-3.43485e-005 -0.00205509,-3.43485e-005 -0.000367937,0 -0.000755085,-1.51366e-005 -0.00111953,-1.10614e-005 -0.000120511,1.74653e-006 -0.000428483,2.91089e-006 -0.000535022,1.92119e-005 -0.000575774,9.19841e-005 -0.00018979,3.78416e-005 -0.000409853,0.000144962z"/>
  </g>
  <path class="fil4 str0" d="M0.0474085 0.00022181c0.026056,0 0.0471873,0.0211313 0.0471873,0.0471867 0,0.026056 -0.0211313,0.0471873 -0.0471873,0.0471873 -0.0260554,0 -0.0471867,-0.0211313 -0.0471867,-0.0471873 0,-0.0260554 0.0211313,-0.0471867 0.0471867,-0.0471867zm0 0.00188276c0.0250162,0 0.0453045,0.0202877 0.0453045,0.0453039 0,0.0250162 -0.0202883,0.0453045 -0.0453045,0.0453045 -0.0250162,0 -0.0453039,-0.0202883 -0.0453039,-0.0453045 0,-0.0250162 0.0202877,-0.0453039 0.0453039,-0.0453039z"/>
 </g>
</svg>
