<?xml version="1.0" encoding="UTF-8"?>
<!DOCTYPE svg PUBLIC "-//W3C//DTD SVG 1.1//EN" "http://www.w3.org/Graphics/SVG/1.1/DTD/svg11.dtd">
<!-- Creator: CorelDRAW -->
<svg xmlns="http://www.w3.org/2000/svg" xml:space="preserve" width="0.641209in" height="0.641209in" style="shape-rendering:geometricPrecision; text-rendering:geometricPrecision; image-rendering:optimizeQuality; fill-rule:evenodd; clip-rule:evenodd"
viewBox="0 0 0.140027 0.140027"
 xmlns:xlink="http://www.w3.org/1999/xlink">
 <defs>
  <style type="text/css">
   <![CDATA[
    .str0 {stroke:black;stroke-width:0.00065514}
    .fil3 {fill:#77787B}
    .fil2 {fill:#FDB834}
    .fil4 {fill:white}
    .fil0 {fill:#193282;fill-rule:nonzero}
    .fil1 {fill:#F47920;fill-rule:nonzero}
   ]]>
  </style>
 </defs>
 <g id="Layer_x0020_1">
  <metadata id="CorelCorpID_0Corel-Layer"/>
  <g id="_81865496">
   <path id="_81866720" class="fil0" d="M0.0507355 0.066875l0.00314158 0c0.000741976,0 0.00128277,-0.000134983 0.00162066,-0.000403229 0.000337887,-0.000269966 0.000508121,-0.00069125 0.000508121,-0.00127159 0,-0.000600115 -0.000167654,-0.0010343 -0.000499523,-0.00129996 -0.000331869,-0.000265667 -0.000882118,-0.000397211 -0.00164387,-0.000397211l-0.00312696 0 0 0.00337199zm0 -0.00557901l0.00302809 0c0.00065514,0 0.00113317,-0.000112629 0.00143839,-0.000337028 0.000300917,-0.000224398 0.000453955,-0.000580341 0.000453955,-0.00106439 0,-0.000472011 -0.00014616,-0.000815916 -0.000441919,-0.00102828 -0.000296619,-0.000212362 -0.000783245,-0.000319832 -0.00146504,-0.000319832l-0.00301347 0 0 0.00274953zm-0.0025406 0.00790725l0 -0.012899 0.00607681 0c0.00132146,0 0.00232566,0.000278564 0.00301949,0.00083741 0.000690391,0.000556267 0.00103688,0.00136617 0.00103688,0.00243055 0,0.000651701 -0.000128105,0.00119851 -0.000385174,0.00163785 -0.000257069,0.0004359 -0.000643104,0.000774647 -0.00115724,0.0010128 0.000667177,0.000269106 0.00116326,0.000658579 0.00149169,0.00116326 0.000331869,0.000502102 0.000496944,0.00113317 0.000496944,0.00188632 0,0.00125526 -0.000410107,0.00222421 -0.00122602,0.00290514 -0.000819355,0.000685232 -0.0019766,0.0010257 -0.00347689,0.0010257l-0.00587649 0zm0.0136496 0l0 -0.012899 0.00267129 0 0 0.00480694 0.00532194 0 0 -0.00480694 0.00267215 0 0 0.012899 -0.00267215 0 0 -0.00571829 -0.00532194 0 0 0.00571829 -0.00267129 0zm0.0191495 -0.0103163l-0.00178831 0.00549217 0.00358178 0 -0.00179347 -0.00549217zm-0.00154328 -0.00258273l0.0030642 0 0.00465132 0.012899 -0.00278564 0 -0.0008761 -0.00265151 -0.00499781 0 -0.000849447 0.00265151 -0.00279509 0 0.00458856 -0.012899zm0.0127194 0.00564091l0.0031218 0c0.000675775,0 0.001171,-0.000137562 0.00149169,-0.000412687 0.000316393,-0.000275125 0.00047459,-0.000705007 0.00047459,-0.00129738 0,-0.000558847 -0.000154758,-0.00098357 -0.000463413,-0.00127331 -0.000306936,-0.000289741 -0.000771208,-0.000433321 -0.00138078,-0.000433321l-0.00324389 0 0 0.0034167zm-0.00265409 0.00725813l0 -0.012899 0.0062565 0c0.00140485,0 0.00244861,0.000301777 0.00312438,0.000902752 0.000678354,0.000600975 0.00101624,0.00152178 0.00101624,0.00275898 0,0.000786684 -0.000164215,0.0014444 -0.000496084,0.00197058 -0.00032929,0.000526176 -0.000803879,0.000884697 -0.00142291,0.00107642 0.000561426,0.000200325 0.000959497,0.000502102 0.00119851,0.00091135 0.000236435,0.000409248 0.000370558,0.00104633 0.000406668,0.00190954l5.33054e-005 0.00152178c0,1.28965e-005 0,3.00917e-005 0,5.41651e-005 1.54758e-005,0.000767769 0.00018227,0.00123806 0.000499523,0.00139884l0 0.000394632 -0.00291202 0c-9.19948e-005,-0.00018227 -0.000160776,-0.000403229 -0.000211502,-0.000668897 -4.81468e-005,-0.000266527 -8.08178e-005,-0.00058292 -9.02752e-005,-0.000950899l-3.52503e-005 -0.00135757c-3.00917e-005,-0.000797861 -0.000179691,-0.00133951 -0.000451376,-0.00161722 -0.000272545,-0.000281143 -0.000762611,-0.000421284 -0.00146848,-0.000421284l-0.00281315 0 0 0.00501586 -0.00265409 0zm0.0186242 -0.0103163l-0.00178831 0.00549217 0.00358178 0 -0.00179347 -0.00549217zm-0.00154328 -0.00258273l0.0030642 0 0.00465132 0.012899 -0.00278564 0 -0.0008761 -0.00265151 -0.00499867 0 -0.000848587 0.00265151 -0.00279509 0 0.00458856 -0.012899zm0.0120986 0.012899l0 -0.010594 -0.00382681 0 0 -0.00230503 0.0102802 0 0 0.00230503 -0.0037993 0 0 0.010594 -0.00265409 0zm-0.0679601 0.0116464l0.00314158 0c0.000741976,0 0.00128277,-0.000134983 0.00162066,-0.000404089 0.000337887,-0.000268246 0.000508121,-0.000690391 0.000508121,-0.00127073 0,-0.000600975 -0.000167654,-0.0010343 -0.000499523,-0.00129996 -0.000331869,-0.000266527 -0.000882118,-0.000398071 -0.00164387,-0.000398071l-0.00312696 0 0 0.00337285zm0 -0.00557815l0.00302809 0c0.00065514,0 0.00113317,-0.000113489 0.00143839,-0.000337887 0.000300917,-0.000224398 0.000453955,-0.000580341 0.000453955,-0.00106439 0,-0.000472011 -0.00014616,-0.000815916 -0.000441919,-0.00102828 -0.000296619,-0.000212362 -0.000783245,-0.000319832 -0.00146504,-0.000319832l-0.00301347 0 0 0.00275039zm-0.0025406 0.00790639l0 -0.012899 0.00607681 0c0.00132146,0 0.00232566,0.000278564 0.00301949,0.00083741 0.000690391,0.000555408 0.00103688,0.00136617 0.00103688,0.00243055 0,0.000650841 -0.000128105,0.00119851 -0.000385174,0.00163699 -0.000257069,0.00043762 -0.000643104,0.000774647 -0.00115724,0.00101366 0.000667177,0.000269106 0.00116326,0.000658579 0.00149169,0.00116326 0.000331869,0.000502102 0.000496944,0.00113317 0.000496944,0.00188632 0,0.00125526 -0.000410107,0.00222421 -0.00122602,0.002906 -0.000819355,0.000684372 -0.0019766,0.00102484 -0.00347689,0.00102484l-0.00587649 0zm0.013739 0l0 -0.012899 0.00265409 0 0 0.012899 -0.00265409 0zm0.00643877 0l0 -0.012899 0.00265409 0 0 0.0105166 0.00629605 0 0 0.00238241 -0.00895014 0zm0.011422 0l0 -0.012899 0.00265409 0 0 0.0105166 0.00629605 0 0 0.00238241 -0.00895014 0zm0.014095 -0.00692626l0.00256468 0c0.00069383,0 0.00119851,-0.00014616 0.00151576,-0.000441919 0.000313814,-0.000296619 0.000472011,-0.000768629 0.000472011,-0.00142377 0,-0.000613012 -0.000155617,-0.00107556 -0.000462553,-0.00139282 -0.000311235,-0.000313814 -0.000772068,-0.000472011 -0.00138508,-0.000472011l-0.00270482 0 0 0.00373052zm-1.8055e-005 0.0023377l0 0.00458856 -0.00265409 0 0 -0.012899 0.00573635 0c0.00135413,0 0.00237897,0.000352503 0.00307882,0.00105579 0.000696409,0.000702427 0.00104633,0.00173328 0.00104633,0.00309687 0,0.00133006 -0.000340467,0.00235575 -0.0010257,0.00307538 -0.000681793,0.000720482 -0.00165849,0.00108244 -0.0029232,0.00108244l-0.00325851 0zm0.0139815 -0.00572775l-0.00178831 0.00549131 0.00358178 0 -0.00179347 -0.00549131zm-0.00154242 -0.00258273l0.00306334 0 0.00465218 0.012899 -0.0027865 0 -0.00087524 -0.00265151 -0.00499867 0 -0.000848587 0.00265151 -0.00279509 0 0.00458856 -0.012899zm0.0147845 0.012899l-0.00265409 0 0 -0.00480694 -0.004684 -0.0080921 0.00324905 0 0.00275898 0.00556095 0.00254748 -0.00556095 0.00303067 0 -0.00424809 0.0080921 0 0.00480694z"/>
   <g id="_187372296">
    <path id="_188163952" class="fil1" d="M0.0273938 0.0787596c0.001312,0 0.00233684,-0.000368839 0.00307452,-0.00110652 0.000737678,-0.000737678 0.00110738,-0.00166708 0.00110738,-0.00278822 0,-0.00120195 -0.00036282,-0.00207719 -0.00108674,-0.002624 -0.000723921,-0.00054595 -0.00172899,-0.000819355 -0.00301261,-0.000819355l-0.0065024 0 0 0.00733809 0.00641986 0zm-0.0127099 0.00463327l0 -0.0272227 0.00629003 0 0 0.0111812 0.00852542 0c0.00160174,0 0.00352933,0.000602695 0.00513279,0.00206773 0.000450516,0.000410967 0.000900173,0.00087438 0.00126815,0.00140829 0.000368839,0.000532194 0.000662878,0.00116068 0.000881258,0.0018846 0.00021924,0.000724781 0.00032843,0.00157939 0.00032843,0.00256296 0,0.0024873 -0.000833111,0.00446218 -0.00250105,0.00592463 -0.00166708,0.00146246 -0.0042223,0.00219326 -0.00766652,0.00219326l-0.0122585 0z"/>
    <path id="_187369920" class="fil2" d="M0.0216721 0.0561701l0 0.00517148 0.00577676 0c0.0029894,-0.000209782 0.00393686,0.0032181 0.00204968,0.00529357 0.00154156,-0.000104891 0.00311836,0.000377436 0.00461263,0.00141431 0.00441919,-0.00307882 0.00272545,-0.0116894 -0.00461263,-0.0118794l-0.00782643 0z"/>
   </g>
   <polygon id="_81866840" class="fil3" points="0.0419694,0.0859119 0.0428782,0.0859119 0.0428782,0.0541144 0.0419694,0.0541144 "/>
  </g>
  <path class="fil4 str0" d="M0.0700132 0.00032757c0.0384796,0 0.0696865,0.0312069 0.0696865,0.0696856 0,0.0384796 -0.0312069,0.0696865 -0.0696865,0.0696865 -0.0384787,0 -0.0696856,-0.0312069 -0.0696856,-0.0696865 0,-0.0384787 0.0312069,-0.0696856 0.0696856,-0.0696856zm0 0.00278048c0.0369441,0 0.066906,0.0299611 0.066906,0.0669051 0,0.0369441 -0.0299619,0.066906 -0.066906,0.066906 -0.0369441,0 -0.0669051,-0.0299619 -0.0669051,-0.066906 0,-0.0369441 0.0299611,-0.0669051 0.0669051,-0.0669051z"/>
 </g>
</svg>
