<?xml version="1.0" encoding="UTF-8"?>
<!DOCTYPE svg PUBLIC "-//W3C//DTD SVG 1.1//EN" "http://www.w3.org/Graphics/SVG/1.1/DTD/svg11.dtd">
<!-- Creator: CorelDRAW X7 -->
<svg xmlns="http://www.w3.org/2000/svg" xml:space="preserve" width="15.962mm" height="12.4031mm" version="1.1" style="shape-rendering:geometricPrecision; text-rendering:geometricPrecision; image-rendering:optimizeQuality; fill-rule:evenodd; clip-rule:evenodd"
viewBox="0 0 28 22"
 xmlns:xlink="http://www.w3.org/1999/xlink">
 <defs>
  <style type="text/css">
   <![CDATA[
    .fil2 {fill:#00953E}
    .fil0 {fill:#2B3483}
    .fil4 {fill:#676AA4}
    .fil3 {fill:#EE7101}
    .fil1 {fill:white}
   ]]>
  </style>
 </defs>
 <g id="Layer_x0020_1">
  <metadata id="CorelCorpID_0Corel-Layer"/>
  <g id="_974366464">
   <polygon class="fil0" points="17,22 14,19 14,18 14,6 0,6 0,20 13,20 14,22 "/>
   <polygon class="fil1" points="2,18 11,18 9,15 11,15 12,17 12,8 2,8 "/>
   <path class="fil0" d="M26 11c0,0 0,0 0,0 0,0 0,0 0,0 0,0 1,0 1,0 0,0 0,0 1,0l0 -1 -2 0c-1,0 0,0 0,0 -1,-2 -1,-2 -1,-2l3 0 0 -2 -11 0 0 2c3,0 6,-1 7,2l-7 0 0 1 7 0c-1,3 -4,3 -7,3l0 1 3 0 4 6 2 0c0,0 -4,-5 -4,-6 0,0 3,0 4,-4z"/>
   <path class="fil2" d="M24 4c0,0 0,0 0,-1 0,0 0,0 0,-1 1,-2 -1,-3 -2,-2 -2,1 -2,4 1,4 1,-1 0,-1 1,0zm-1 -1c0,-1 -1,0 0,-1l1 0c0,-1 -1,-2 -2,-1 -1,1 0,2 1,2z"/>
   <path class="fil3" d="M0 4c1,0 2,0 3,-1 0,0 0,-1 0,-1 0,0 0,0 0,0 0,0 0,-1 0,-1 0,-1 -2,-1 -3,-1l0 4zm1 -3l1 0c0,0 0,0 -1,0l0 0zm0 2c0,0 1,0 1,0 0,-1 0,-1 -1,-1l0 1z"/>
   <path class="fil3" d="M11 4l1 0 0 -2c1,0 1,0 1,2l1 0c0,-1 0,-1 -1,-2 1,0 1,-1 1,-2 -1,0 -2,0 -3,0l0 4zm1 -2c1,0 1,0 1,-1 0,0 0,0 -1,0l0 1z"/>
   <path class="fil2" d="M25 4l1 0 0 -2c0,0 0,0 1,2l1 0 -1 -2c1,0 1,-1 1,-2 -1,0 -2,0 -3,0l0 4zm1 -2c0,0 1,0 1,-1 0,0 -1,0 -1,0l0 1z"/>
   <path class="fil3" d="M7 4c2,0 1,0 1,-1l2 0c0,0 0,0 0,1l1 0 -1 -4c0,0 0,0 -1,0l0 0c-1,0 -2,3 -2,4zm2 -2l0 0 0 -1 0 1z"/>
   <path class="fil3" d="M14 4l1 0c1,-1 0,-1 1,-1l1 0c0,1 0,1 1,1l-1 -4c-2,0 -1,0 -2,1 0,0 0,0 0,1 0,0 -1,1 -1,2zm2 -2l1 0 -1 -1 0 1z"/>
   <path class="fil3" d="M4 4l0 0 0 -2 2 0 0 2 1 0 0 -4 -1 0 0 1c0,0 -1,1 -2,0l0 -1 0 0 0 4z"/>
   <polygon class="fil3" points="18,0 18,1 19,1 19,4 20,4 20,1 21,1 21,0 "/>
   <path class="fil4" d="M26 11l2 0 0 -1 -2 0c0,0 -1,0 0,0l2 0 0 1c-1,0 -1,0 -1,0 0,0 -1,0 -1,0 0,0 0,0 0,0 0,0 0,0 0,0z"/>
   <path class="fil0" d="M3 17l1 0 0 -1 -1 0 0 1zm4 -3l0 -4 -1 0 0 -1 2 0 0 3 3 0 0 1 -3 0 0 3 -1 0 0 1 -1 0 0 -3 1 0zm-4 -4l1 0 0 -1 -1 0 0 1zm0 2l3 0 0 1 -2 0 0 1 -1 0 0 -2zm7 -2l1 0 0 -1 -1 0 0 1z"/>
  </g>
 </g>
</svg>
