<?xml version="1.0" encoding="UTF-8"?>
<!DOCTYPE svg PUBLIC "-//W3C//DTD SVG 1.1//EN" "http://www.w3.org/Graphics/SVG/1.1/DTD/svg11.dtd">
<!-- Creator: CorelDRAW X7 -->
<svg xmlns="http://www.w3.org/2000/svg" xml:space="preserve" width="26.1875mm" height="7.5247mm" version="1.1" style="shape-rendering:geometricPrecision; text-rendering:geometricPrecision; image-rendering:optimizeQuality; fill-rule:evenodd; clip-rule:evenodd"
viewBox="0 0 71 20"
 xmlns:xlink="http://www.w3.org/1999/xlink">
 <defs>
  <style type="text/css">
   <![CDATA[
    .fil3 {fill:#77787B}
    .fil2 {fill:#FDB834}
    .fil0 {fill:#193282;fill-rule:nonzero}
    .fil1 {fill:#F47920;fill-rule:nonzero}
   ]]>
  </style>
 </defs>
 <g id="Layer_x0020_1">
  <metadata id="CorelCorpID_0Corel-Layer"/>
  <g id="_987362928">
   <path class="fil0" d="M23 8l2 0c1,0 1,0 1,0 0,0 1,-1 1,-1 0,0 -1,-1 -1,-1 0,0 0,0 -1,0l-2 0 0 2zm0 -3l2 0c1,0 1,0 1,-1 0,0 0,0 0,0 0,-1 0,-1 0,-1 0,0 0,0 -1,0l-2 0 0 2zm-1 5l0 -9 3 0c1,0 2,1 2,1 1,0 1,1 1,2 0,0 0,0 0,1 0,0 -1,0 -1,0 0,0 1,1 1,1 0,0 0,1 0,1 0,1 0,2 0,2 -1,0 -2,1 -3,1l-3 0zm8 0l0 -9 2 0 0 3 3 0 0 -3 2 0 0 9 -2 0 0 -4 -3 0 0 4 -2 0zm13 -7l-2 4 3 0 -1 -4zm-1 -2l2 0 3 9 -2 0 -1 -2 -3 0 -1 2 -1 0 3 -9zm8 4l2 0c0,0 1,0 1,0 0,0 0,-1 0,-1 0,0 0,-1 0,-1 0,0 -1,0 -1,0l-2 0 0 2zm-2 5l0 -9 4 0c1,0 2,1 2,1 1,0 1,1 1,2 0,0 0,1 -1,1 0,0 0,1 0,1 0,0 0,0 0,0 0,1 1,1 1,2l0 1c0,0 0,0 0,0 0,0 0,0 0,0l0 1 -2 0c0,0 0,-1 0,-1 0,0 0,0 0,0l0 -1c0,-1 0,-1 0,-1 -1,0 -1,-1 -1,-1l-2 0 0 4 -2 0zm12 -7l-1 4 2 0 -1 -4zm-1 -2l2 0 3 9 -2 0 0 -2 -4 0 0 2 -2 0 3 -9zm8 9l0 -7 -3 0 0 -2 7 0 0 2 -2 0 0 7 -2 0zm-44 7l2 0c1,0 1,0 1,0 0,0 1,-1 1,-1 0,0 -1,-1 -1,-1 0,0 0,0 -1,0l-2 0 0 2zm0 -3l2 0c1,0 1,0 1,-1 0,0 0,0 0,0 0,-1 0,-1 0,-1 0,0 0,0 -1,0l-2 0 0 2zm-1 5l0 -9 3 0c1,0 2,1 2,1 1,0 1,1 1,1 0,1 0,1 0,2 0,0 -1,0 -1,0 0,0 1,1 1,1 0,0 0,1 0,1 0,1 0,2 0,2 -1,0 -2,1 -3,1l-3 0zm8 0l0 -9 2 0 0 9 -2 0zm5 0l0 -9 1 0 0 7 4 0 0 2 -5 0zm7 0l0 -9 2 0 0 7 4 0 0 2 -6 0zm9 -5l2 0c0,0 0,0 1,0 0,0 0,-1 0,-1 0,0 0,-1 0,-1 -1,0 -1,0 -1,0l-2 0 0 2zm0 2l0 3 -2 0 0 -9 4 0c1,0 1,1 2,1 0,1 1,1 1,2 0,1 -1,2 -1,2 -1,0 -1,1 -2,1l-2 0zm9 -4l-1 4 2 0 -1 -4zm-1 -2l2 0 3 9 -2 0 0 -2 -4 0 0 2 -2 0 3 -9zm9 9l-1 0 0 -3 -3 -6 2 0 2 4 1 -4 2 0 -3 6 0 3z"/>
   <g>
    <path class="fil1" d="M8 16c1,0 2,0 2,-1 1,0 1,-1 1,-2 0,0 0,-1 -1,-1 0,-1 -1,-1 -2,-1l-4 0 0 5 4 0zm-8 3l0 -18 4 0 0 8 6 0c1,0 2,0 3,1 0,0 0,0 1,1 0,0 0,0 0,1 0,0 0,1 0,2 0,1 0,2 -1,3 -1,1 -3,2 -5,2l-8 0z"/>
    <path class="fil2" d="M4 1l0 4 4 0c2,0 3,2 2,3 1,0 2,0 2,1 3,-2 2,-8 -2,-8l-6 0z"/>
   </g>
   <polygon class="fil3" points="18,20 18,20 18,0 18,0 "/>
  </g>
 </g>
</svg>
