<?xml version="1.0" encoding="UTF-8"?>
<!DOCTYPE svg PUBLIC "-//W3C//DTD SVG 1.1//EN" "http://www.w3.org/Graphics/SVG/1.1/DTD/svg11.dtd">
<!-- Creator: CorelDRAW -->
<svg xmlns="http://www.w3.org/2000/svg" xml:space="preserve" width="4.59089in" height="0.483598in" style="shape-rendering:geometricPrecision; text-rendering:geometricPrecision; image-rendering:optimizeQuality; fill-rule:evenodd; clip-rule:evenodd"
viewBox="0 0 4.59089 0.483598"
 xmlns:xlink="http://www.w3.org/1999/xlink">
 <defs>
  <style type="text/css">
   <![CDATA[
    .str0 {stroke:#1F1A17;stroke-width:0.003;stroke-opacity:0.200000}
    .fil4 {fill:none;fill-rule:nonzero}
    .fil9 {fill:black;fill-opacity:0.200000}
    .fil16 {fill:#008436;fill-opacity:0.200000}
    .fil19 {fill:#00953E;fill-opacity:0.200000}
    .fil18 {fill:#2B3483;fill-opacity:0.200000}
    .fil11 {fill:#38AC36;fill-opacity:0.200000}
    .fil21 {fill:#676AA4;fill-opacity:0.200000}
    .fil15 {fill:#6F6E74;fill-opacity:0.200000}
    .fil8 {fill:#77787B;fill-opacity:0.200000}
    .fil1 {fill:#D52736;fill-opacity:0.200000}
    .fil10 {fill:#EA881F;fill-opacity:0.200000}
    .fil20 {fill:#EE7101;fill-opacity:0.200000}
    .fil13 {fill:#EEC900;fill-opacity:0.200000}
    .fil17 {fill:#F47B28;fill-opacity:0.200000}
    .fil0 {fill:#FAB60F;fill-opacity:0.200000}
    .fil7 {fill:#FDB834;fill-opacity:0.200000}
    .fil12 {fill:white;fill-opacity:0.200000}
    .fil14 {fill:black;fill-rule:nonzero;fill-opacity:0.200000}
    .fil23 {fill:#00895D;fill-rule:nonzero;fill-opacity:0.200000}
    .fil5 {fill:#193282;fill-rule:nonzero;fill-opacity:0.200000}
    .fil2 {fill:#D52736;fill-rule:nonzero;fill-opacity:0.200000}
    .fil22 {fill:#F36700;fill-rule:nonzero;fill-opacity:0.200000}
    .fil6 {fill:#F47920;fill-rule:nonzero;fill-opacity:0.200000}
    .fil3 {fill:white;fill-rule:nonzero;fill-opacity:0.200000}
   ]]>
  </style>
 </defs>
 <g id="Layer_x0020_1">
  <metadata id="CorelCorpID_0Corel-Layer"/>
  <g id="_128682856">
   <g id="_104397824">
    <path id="_188182912" class="fil0" d="M0.459259 0.11613l0 0 0 0c-0.00254724,0.0038622 -0.00348031,0.00850787 -0.0042559,0.0133543 -0.000956692,0.00590157 -0.00196063,0.011559 -0.00405118,0.0171181 -0.00250787,0.00664566 -0.00671259,0.014063 -0.0140433,0.0198661 -0.00761023,-0.0206142 -0.0186929,-0.0395472 -0.0325275,-0.0561023 0.00872834,-0.0035 0.0172913,-0.00344094 0.0243425,-0.00227559 0.00585433,0.000968503 0.0112559,0.00292913 0.0168425,0.00505118 0.00458267,0.00174803 0.0090748,0.00326771 0.0136929,0.00298819l0 0z"/>
    <path id="_187367712" class="fil0" d="M0.374248 0.0311141l0 7.87401e-006 0 -7.87401e-006c-0.000283464,0.00462598 0.00123622,0.00911417 0.00298425,0.0136929 0.00212205,0.00559055 0.00408267,0.011 0.00505511,0.0168504 0.00116535,0.00705118 0.0012126,0.0156338 -0.00228346,0.0243661 -0.0165787,-0.0138149 -0.0355393,-0.024874 -0.0561732,-0.0324645 0.00581496,-0.00738188 0.0132638,-0.011622 0.0199449,-0.0141378 0.00555905,-0.00208661 0.0112126,-0.00309055 0.017126,-0.00404724 0.00483858,-0.000779527 0.00948031,-0.00170079 0.0133464,-0.00425984l0 0z"/>
    <path id="_187362840" class="fil0" d="M0.445862 0.199842c0.00924409,0.0013622 0.0165984,0.00567322 0.0220905,0.0101772 0.00458267,0.00377165 0.00828739,0.00817322 0.012063,0.0128031 0.00309449,0.00380315 0.00621653,0.00736614 0.0103622,0.00943306l-0.0417244 0c-7.87401e-006,-0.011059 -0.000968503,-0.0218779 -0.00279134,-0.0324134z"/>
    <path id="_187362696" class="fil0" d="M0.141972 0.0311141l0 7.87401e-006 0 -7.87401e-006c0.00386614,0.00255905 0.00850787,0.00348031 0.0133583,0.00425984 0.00590157,0.000956692 0.0115551,0.00196063 0.0171142,0.00404724 0.00668503,0.00251575 0.0141338,0.0067559 0.0199449,0.0141457 -0.0206338,0.00758267 -0.0395945,0.0186417 -0.0561732,0.0324567 -0.00349606,-0.00873228 -0.00344882,-0.0173149 -0.00228346,-0.0243661 0.00097244,-0.00585039 0.00293307,-0.0112598 0.00505511,-0.0168504 0.00174803,-0.00457874 0.00326771,-0.00906692 0.00298425,-0.0136929l0 0z"/>
    <path id="_187359240" class="fil0" d="M0.0569606 0.11613l7.87401e-006 3.937e-006 -7.87401e-006 -3.937e-006c0.00462598,0.000279527 0.00911023,-0.00124016 0.0136929,-0.00298819 0.00559055,-0.00212205 0.011,-0.00408267 0.0168504,-0.00505118 0.0070433,-0.00116535 0.0156142,-0.00121653 0.0243346,0.00227559 -0.0138307,0.0165551 -0.0249094,0.0354882 -0.0325275,0.0561102 -0.0073307,-0.00581102 -0.0115354,-0.0132205 -0.0140433,-0.019874 -0.00209055,-0.00555118 -0.00309055,-0.0112165 -0.00404724,-0.0171181 -0.000779527,-0.00484645 -0.00170079,-0.00949212 -0.00425984,-0.0133543l0 0z"/>
    <path id="_187369944" class="fil0" d="M0.0258543 0.23226c0.00414173,-0.00206693 0.00726377,-0.00562992 0.0103661,-0.00943306 0.00377559,-0.00462992 0.00747243,-0.00903149 0.012059,-0.0127953 0.00549606,-0.00450787 0.0128425,-0.00882283 0.0220866,-0.010185 -0.00182283,0.0105354 -0.00277953,0.0213622 -0.00279134,0.0324134l-0.0417204 0z"/>
    <path id="_187359312" class="fil0" d="M0.258114 0l0 7.87401e-006 0 -7.87401e-006c0.00206693,0.00414173 0.00562992,0.00727165 0.009437,0.0103661 0.00462992,0.00377952 0.00903543,0.00747243 0.0127992,0.0120551 0.00453543,0.00553543 0.00887401,0.012937 0.0102087,0.0222638 -0.0105472,-0.00180709 -0.0213819,-0.00276378 -0.0324449,-0.00276378 -0.011063,0 -0.0218976,0.000956692 -0.0324449,0.00276378 0.00133464,-0.00932676 0.00567716,-0.0167283 0.0102087,-0.0222598 0.00377165,-0.00458661 0.00817322,-0.00827952 0.0128031,-0.012063 0.00380315,-0.00309055 0.00736614,-0.00622047 0.00943306,-0.0103622l0 0z"/>
    <path id="_187373160" class="fil1" d="M0.219366 0.232303l0.0143386 -4.3307e-005c0.00187795,-0.0121142 -0.00180315,-0.0214331 -0.0140512,-0.0192047 -0.010315,0.00187401 -0.0214134,0.012126 -0.0281102,0.0192047l0.0189055 -8.66141e-005c0.0021063,-0.00138189 0.00622834,-0.00296456 0.00791732,-0.0017874 0.000633858,0.000448819 0.000960629,0.00107087 0.000999999,0.00191732l0 0z"/>
    <path id="_187376928" class="fil1" d="M0.283827 0.23226l0.0178858 0c0.00085433,-0.021122 -0.00255118,-0.042933 -0.0123701,-0.0618031 -0.00893306,-0.0171653 -0.0236929,-0.0288386 -0.042807,-0.0316614 -0.0278976,-0.00411417 -0.056059,0.00769684 -0.0798582,0.0245984 -0.0259134,0.0183937 -0.047307,0.0433858 -0.065996,0.0688661l0.023626 -3.5433e-005c0.0212677,-0.0301496 0.0701889,-0.0759173 0.106181,-0.0762125 0.0114724,-9.05511e-005 0.0231338,0.00259055 0.0317559,0.0102874 0.00624409,0.0055748 0.0138228,0.0163976 0.0134449,0.0251811 -0.000220472,0.00521259 -0.00484252,0.00680708 -0.00927165,0.00519685 -0.00344488,-0.0012559 -0.00588188,-0.00439763 -0.00828346,-0.00770865 -0.00783464,-0.0107559 -0.0200512,-0.0160118 -0.0334449,-0.0141811 -0.0159842,0.0021811 -0.0357913,0.0145905 -0.048563,0.025874 -0.0110197,0.00974015 -0.0211378,0.0203858 -0.0306732,0.0315984l0.0254016 0c0.00931102,-0.0112362 0.0191417,-0.0208228 0.0317795,-0.0286968 0.00399606,-0.00249212 0.00892125,-0.00511417 0.0140984,-0.00689763 0.013059,-0.00449606 0.026059,-0.00335433 0.0318267,0.0129016 0.00226771,0.0063937 0.00260236,0.0120039 0.00194094,0.0222795l0 0.000413385 0.0172716 0 4.3307e-005 -0.000523622c1.5748e-005,-0.00562598 -0.000106299,-0.00942125 0.000397637,-0.0149961 0.000429133,-0.00480708 0.00192913,-0.00978739 0.00639763,-0.0103858 0.00948031,-0.00198031 0.00902755,0.019126 0.00921653,0.0259055l0 0z"/>
    <path id="_187349424" class="fil1" d="M0.320519 0.23226l0.0180354 0c0.000874015,-0.0195905 -0.000803149,-0.042811 -0.00714173,-0.0630787 -0.00125984,-0.004 -0.00268897,-0.00788188 -0.00431102,-0.0115905 -0.00383464,-0.00875984 -0.00900393,-0.016689 -0.0151614,-0.0240197 -0.00684251,-0.00814566 -0.015,-0.0154567 -0.0241968,-0.0212244 -0.00270866,-0.00170472 -0.00552362,-0.00327559 -0.00842913,-0.00469685l0 0c-0.00288189,-0.00140551 -0.00586614,-0.00266929 -0.00893306,-0.00375984l-3.937e-006 0c-0.035122,-0.0124724 -0.0706417,-0.0036063 -0.100437,0.0126024 -0.00580708,0.00316141 -0.0114055,0.00659448 -0.0167205,0.0102047 -0.00532283,0.0036063 -0.0103898,0.00739369 -0.0151614,0.0112638l0 0 0 0 -3.937e-006 7.87401e-006c-0.00565748,0.00458661 -0.0127323,0.0108622 -0.0197362,0.0182834 -0.00137795,0.00146457 -0.00274016,0.00294882 -0.00406693,0.00444882 -0.0035433,0.00401968 -0.00900787,0.00965747 -0.00738188,0.0154803 0.00127953,0.00461417 0.00724409,0.00325197 0.00931495,0.00166535 0.00318897,-0.00170866 0.00668503,-0.00442126 0.00967716,-0.00696062 0.00405905,-0.00342913 0.00789369,-0.0071181 0.0119055,-0.0105984 0.0162401,-0.0140827 0.0331653,-0.024937 0.0498425,-0.0322834 0.00362992,-0.00160236 0.00727165,-0.0030433 0.0108976,-0.00432283 0.00361023,-0.00126378 0.00720078,-0.0023622 0.0107716,-0.0032874l1.1811e-005 -7.87401e-006c0.0310236,-0.00805511 0.0647322,-0.00283464 0.0863188,0.0224645 0.0208031,0.0243701 0.0245945,0.056996 0.0249134,0.0894094l-3.937e-006 0zm-0.22376 -0.0275472c0.00193701,-0.00180709 0.00390945,-0.00416929 0.0059685,-0.00678346 0.00288189,-0.0036496 0.00316929,-0.00718897 0.00203543,-0.00974015 -0.000425196,-0.000952755 -0.00105512,-0.00177165 -0.00181102,-0.00240945 -0.000751968,-0.000625984 -0.00164173,-0.00107874 -0.0026063,-0.00129134 -0.00234645,-0.00053937 -0.00515354,0.000303149 -0.00753149,0.00320472 -0.00269685,0.00326771 -0.00641732,0.00887795 -0.00717716,0.0138307 -0.000137795,0.00093307 -0.000181102,0.00183464 -8.26771e-005,0.00267716 9.05511e-005,0.000826771 0.000311023,0.00161023 0.000685039,0.00233071l0 3.937e-006 0 0c0.000610236,0.00116535 0.00162992,0.00177165 0.00299212,0.00183071 0.000287401,7.87401e-006 0.000598425,-7.87401e-006 0.000929133,-4.3307e-005 0.00031496,-3.5433e-005 0.000661417,-0.000102362 0.00102362,-0.000177165l7.87401e-006 0 1.1811e-005 -7.87401e-006c0.00184252,-0.000437007 0.00367716,-0.00167716 0.00555511,-0.00342519l0 0z"/>
    <path id="_187377456" class="fil1" d="M0.365645 0.232268l0.000125984 0 6.69291e-005 0c0.00188189,9.84251e-005 0.00516141,-0.000767716 0.00705118,-0.00395275 0.000370078,-0.000641732 0.00069685,-0.00137008 0.000940944,-0.00219291 0.000251968,-0.000842519 0.000421259,-0.00179527 0.000492126,-0.00287008l0 0 1.5748e-005 -0.000216535 0 0c0.00143701,-0.0500944 -0.0139094,-0.091555 -0.0399448,-0.11972 -0.00506692,-0.00547244 -0.0105315,-0.0104488 -0.0163701,-0.0148898 -0.0058307,-0.004437 -0.0120118,-0.00834251 -0.0185118,-0.0116693l0 0 -9.84251e-005 -5.11811e-005 -7.87401e-006 -3.937e-006c-0.0218897,-0.011185 -0.0467204,-0.0154882 -0.0710866,-0.0134252 -0.00475196,0.000405511 -0.00948424,0.00104724 -0.0141496,0.00192913 -0.0046811,0.000877952 -0.00931889,0.00199606 -0.0138937,0.00334645l-6.69291e-005 1.9685e-005c-0.025063,0.00741338 -0.0483818,0.0221299 -0.0673858,0.041437 -0.00370472,0.00375984 -0.00724803,0.00769684 -0.0105827,0.0117756 -0.00166142,0.00202362 -0.0032874,0.00409055 -0.00485039,0.00618897 0.0133189,-0.0115039 0.027626,-0.0215905 0.0425787,-0.0296063 0.00337008,-0.00179921 0.0067559,-0.0035 0.0101535,-0.00506692 0.00340157,-0.00158268 0.00685039,-0.00304724 0.0103268,-0.00440157l1.1811e-005 -7.87401e-006 1.1811e-005 0c0.0132126,-0.00513385 0.0262362,-0.00841338 0.0392677,-0.00987007 0.0130275,-0.00146457 0.0260708,-0.00111811 0.039311,0.000980314 0.00941731,0.0015 0.0186142,0.00397244 0.0268976,0.00741732 0.00161023,0.000673228 0.00318897,0.00138583 0.00474015,0.00213386 0.00152362,0.000748031 0.00303149,0.00153149 0.0045,0.0023622l7.87401e-006 0 1.9685e-005 1.1811e-005 0 0c0.0291653,0.0159764 0.049437,0.0487441 0.0583582,0.085748 0.00174016,0.0072244 0.00305118,0.0145905 0.00391338,0.0220197 0.00085433,0.00741732 0.00127165,0.0149252 0.00122047,0.0224134l0 7.87401e-006 -7.87401e-006 0.00043307c0.000153543,0.00400787 0.00152362,0.00735826 0.00387795,0.00886613 0.000440945,0.000279527 0.000909448,0.0005 0.00141338,0.000637795l7.87401e-006 0c0.000519685,0.000153543 0.00106299,0.000224409 0.00163779,0.000216535l7.87401e-006 0z"/>
    <path id="_187373256" class="fil0" d="M0.313492 0.0653385c0.070122,0.0231575 0.120811,0.0891141 0.121106,0.166917l-0.0346968 0c0.0022874,-0.0679684 -0.0273701,-0.129319 -0.0864094,-0.166917z"/>
    <path id="_187373520" class="fil2" d="M0.0491929 0.299456l-0.0107756 0 -0.00427952 -0.0111338 -0.0195984 0 -0.00403937 0.0111338 -0.0105 0 0.0190905 -0.0490236 0.0104764 0 0.019626 0.0490236zm-0.0182244 -0.0193897l-0.00676377 -0.0182008 -0.00661023 0.0182008 0.013374 0zm0.0676771 0.0193897l-0.0107716 0 -0.00427952 -0.0111338 -0.0195984 0 -0.0040433 0.0111338 -0.0104961 0 0.0190945 -0.0490236 0.0104685 0 0.019626 0.0490236zm-0.0182205 -0.0193897l-0.00676377 -0.0182008 -0.00661417 0.0182008 0.0133779 0zm0.0234409 -0.0296338l0.0180866 0c0.0040748,0 0.0071811,0.000307086 0.0093307,0.000937007 0.00287795,0.000850393 0.00534252,0.00235039 0.00738582,0.00452362 0.00204724,0.00215748 0.00361417,0.00480315 0.00468897,0.00793306 0.00106299,0.00313779 0.00160236,0.00699212 0.00160236,0.0115945 0,0.00403149 -0.000511811,0.00750787 -0.00151181,0.0104291 -0.00122047,0.00356693 -0.00296063,0.00645275 -0.0052559,0.00865354 -0.00170866,0.00167716 -0.00402362,0.00298031 -0.00694488,0.00391732 -0.0021811,0.00069685 -0.00509842,0.00103543 -0.00876771,0.00103543l-0.0186142 0 0 -0.0490236zm0.00990157 0.00829921l0 0.0324606 0.00737401 0c0.00276378,0 0.00476378,-0.000149606 0.00600393,-0.000464567 0.00159055,-0.000397637 0.00292519,-0.0010748 0.00398819,-0.00203149 0.00106299,-0.000964566 0.00191732,-0.00254724 0.00258661,-0.00474015 0.000665354,-0.00218897 0.00100394,-0.00519291 0.00100394,-0.00897637 0,-0.00379134 -0.000338582,-0.00668897 -0.00100394,-0.00872046 -0.000669291,-0.00203543 -0.00161023,-0.00361811 -0.00279921,-0.0047559 -0.00121653,-0.00113779 -0.00274409,-0.00190157 -0.00459448,-0.00230315 -0.00137401,-0.000318897 -0.00408267,-0.000468504 -0.00812204,-0.000468504l-0.004437 0zm0.0396141 0.0407244l0 -0.0490236 0.0099055 0 0 0.0192953 0.0193937 0 0 -0.0192953 0.00989369 0 0 0.0490236 -0.00989369 0 0 -0.0214291 -0.0193937 0 0 0.0214291 -0.0099055 0zm0.0936338 0l-0.0107677 0 -0.0042874 -0.0111338 -0.0196023 0 -0.00403543 0.0111338 -0.0105 0 0.0190984 -0.0490236 0.0104724 0 0.019622 0.0490236zm-0.0182244 -0.0193897l-0.00675984 -0.0182008 -0.00661417 0.0182008 0.013374 0zm0.0676771 0.0193897l-0.0107677 0 -0.00428346 -0.0111338 -0.0195984 0 -0.0040433 0.0111338 -0.0104921 0 0.0190905 -0.0490236 0.0104724 0 0.019622 0.0490236zm-0.0182205 -0.0193897l-0.00675984 -0.0182008 -0.0066181 0.0182008 0.0133779 0zm0.0235 0.0193897l0 -0.0490236 0.0208425 0c0.00523622,0 0.00903936,0.000448819 0.0114134,0.00133071 0.00237008,0.000877952 0.00427952,0.00243701 0.00570866,0.00468504 0.00142913,0.00225984 0.00213386,0.0048307 0.00213386,0.0077244 0,0.00367716 -0.00109055,0.0067244 -0.00324409,0.0091181 -0.00215748,0.0023937 -0.00539763,0.00390945 -0.00970078,0.00452362 0.00214567,0.0012559 0.00391732,0.00262204 0.00530708,0.00412598 0.00139764,0.00149212 0.00326378,0.00414173 0.00562992,0.00794881l0.00598818 0.00956692 -0.0118307 0 -0.00716141 -0.0106693c-0.00254724,-0.00381496 -0.00427952,-0.00620866 -0.00521259,-0.00720472 -0.00093307,-0.000996062 -0.00193307,-0.00166535 -0.00297638,-0.00203937 -0.00105512,-0.000366141 -0.00270866,-0.000547244 -0.00499606,-0.000547244l-0.00199212 0 0 0.0204606 -0.00990944 0zm0.00990944 -0.0282953l0.00730708 0c0.00475984,0 0.00772047,-0.000192913 0.0089055,-0.000590551 0.0011811,-0.000405511 0.00210236,-0.00109055 0.00278346,-0.00208268 0.000653543,-0.000976377 0.00100394,-0.00219685 0.00100394,-0.00367323 0,-0.00165354 -0.000448819,-0.00298031 -0.00133071,-0.00399212 -0.000877952,-0.00101181 -0.00212205,-0.00165748 -0.00373228,-0.00193307 -0.000799212,-0.000102362 -0.00320472,-0.00015748 -0.00722047,-0.00015748l-0.00771653 0 0 0.0124291zm0.0383858 0.0152205l0 -0.00939369 0.0184567 0 0 0.00939369 -0.0184567 0zm0.0239409 0.0130748l0 -0.0490236 0.015874 0c0.00601574,0 0.00994094,0.000248031 0.0117756,0.000748031 0.00280315,0.000732283 0.00516929,0.00232283 0.00705905,0.0047874 0.0018937,0.00246456 0.00283858,0.00565354 0.00283858,0.0095433 0,0.00301181 -0.000547244,0.00555118 -0.00164173,0.00759448 -0.00109842,0.00205512 -0.00247244,0.00366535 -0.00416929,0.00483464 -0.00167323,0.00116142 -0.00338189,0.00194094 -0.00511417,0.00231496 -0.00236614,0.000472441 -0.00579133,0.000712598 -0.0102716,0.000712598l-0.00645275 0 0 0.0184882 -0.00989763 0zm0.00989763 -0.0407244l0 0.0139094 0.00541338 0c0.00389763,0 0.00651181,-0.000259842 0.00782283,-0.00077559 0.00131102,-0.000503937 0.00234252,-0.00131102 0.00309449,-0.00240551 0.000732283,-0.00109449 0.00112205,-0.00236614 0.00112205,-0.00380708 0,-0.0017874 -0.000523622,-0.0032559 -0.0015748,-0.00442126 -0.00103937,-0.00114961 -0.00237401,-0.00188976 -0.00397637,-0.00216929 -0.00118898,-0.000224409 -0.00355905,-0.000330708 -0.00712204,-0.000330708l-0.00477952 0zm0.0749094 0.0407244l-0.0107716 0 -0.00428346 -0.0111338 -0.0195984 0 -0.0040433 0.0111338 -0.0104961 0 0.0190945 -0.0490236 0.0104724 0 0.019626 0.0490236zm-0.0182244 -0.0193897l-0.00676377 -0.0182008 -0.00661417 0.0182008 0.0133779 0zm0.0300472 0.0193897l0 -0.0206378 -0.0179488 -0.0283858 0.0116102 0 0.0115315 0.0193937 0.0113031 -0.0193937 0.0114016 0 -0.0180236 0.0284567 0 0.0205669 -0.00987401 0z"/>
    <g>
     <path id="_187366224" class="fil3" d="M0.376988 0.0816417l0.096244 0 0 0.000200787c-0.00567322,0.00874409 -0.00888188,0.0133898 -0.00959842,0.014l-0.0257165 0c0.00351575,0.00413385 0.00594094,0.00919291 0.00720472,0.0150984l0.0273937 0c0.000334645,7.48031e-005 0.000511811,0.000200787 0.000511811,0.000409448 -0.00614566,0.00922046 -0.0092559,0.0138031 -0.00939369,0.0138031l-0.0178268 0c-0.000370078,0.00474409 -0.00266535,0.0104409 -0.00679921,0.0171063 -0.00546456,0.00676377 -0.0106929,0.0111338 -0.0157086,0.0131142 -0.00932676,0.00447637 -0.0182716,0.00669291 -0.0268071,0.00669291l0 0.000208661c0,0.000685039 0.0192953,0.0235984 0.0579212,0.068744l-0.0255157 0c-0.0375984,-0.0438149 -0.0564173,-0.0658425 -0.0564173,-0.0660511l0 -0.0132835 0.000200787 -0.000515748c0.00331889,0.000480315 0.00724803,0.000716535 0.0116811,0.000716535 0.0211063,0 0.0341889,-0.00687007 0.0393464,-0.0205197 0.000779527,-0.00201575 0.00120079,-0.00406299 0.00120079,-0.00621259l-0.057248 0c-0.000267716,0 -0.000405511,-0.000137795 -0.000405511,-0.000377952 0.00635039,-0.0092244 0.00959842,-0.0138346 0.00973228,-0.0138346l0.0454252 0 0 -0.000208661c-0.00259842,-0.00525196 -0.0076496,-0.00935432 -0.0151338,-0.0122913 -0.00532283,-0.00174409 -0.0101417,-0.00259842 -0.0144094,-0.00259842l-0.0254094 0 0 -0.000507874c0.00614566,-0.0091181 0.00931889,-0.0136929 0.00952755,-0.0136929z"/>
     <path id="_1873662241" class="fil4 str0" d="M0.376988 0.0816417l0.096244 0 0 0.000200787c-0.00567322,0.00874409 -0.00888188,0.0133898 -0.00959842,0.014l-0.0257165 0c0.00351575,0.00413385 0.00594094,0.00919291 0.00720472,0.0150984l0.0273937 0c0.000334645,7.48031e-005 0.000511811,0.000200787 0.000511811,0.000409448 -0.00614566,0.00922046 -0.0092559,0.0138031 -0.00939369,0.0138031l-0.0178268 0c-0.000370078,0.00474409 -0.00266535,0.0104409 -0.00679921,0.0171063 -0.00546456,0.00676377 -0.0106929,0.0111338 -0.0157086,0.0131142 -0.00932676,0.00447637 -0.0182716,0.00669291 -0.0268071,0.00669291l0 0.000208661c0,0.000685039 0.0192953,0.0235984 0.0579212,0.068744l-0.0255157 0c-0.0375984,-0.0438149 -0.0564173,-0.0658425 -0.0564173,-0.0660511l0 -0.0132835 0.000200787 -0.000515748c0.00331889,0.000480315 0.00724803,0.000716535 0.0116811,0.000716535 0.0211063,0 0.0341889,-0.00687007 0.0393464,-0.0205197 0.000779527,-0.00201575 0.00120079,-0.00406299 0.00120079,-0.00621259l-0.057248 0c-0.000267716,0 -0.000405511,-0.000137795 -0.000405511,-0.000377952 0.00635039,-0.0092244 0.00959842,-0.0138346 0.00973228,-0.0138346l0.0454252 0 0 -0.000208661c-0.00259842,-0.00525196 -0.0076496,-0.00935432 -0.0151338,-0.0122913 -0.00532283,-0.00174409 -0.0101417,-0.00259842 -0.0144094,-0.00259842l-0.0254094 0 0 -0.000507874c0.00614566,-0.0091181 0.00931889,-0.0136929 0.00952755,-0.0136929z"/>
    </g>
   </g>
   <g id="_105518504">
    <path id="_105518864" class="fil5" d="M0.953204 0.339515l0.0237756 0c0.00561417,0 0.00970472,-0.00101968 0.0122638,-0.00305118 0.00255905,-0.00203937 0.00384252,-0.00522834 0.00384252,-0.0096181 0,-0.00454724 -0.00126378,-0.0078307 -0.00377559,-0.00984251 -0.00251181,-0.00201181 -0.00667322,-0.00300787 -0.0124449,-0.00300787l-0.0236614 0 0 0.0255197zm0 -0.0422204l0.0229173 0c0.00495669,0 0.00857086,-0.000858267 0.0108819,-0.00255118 0.00228346,-0.00170079 0.00344094,-0.0043937 0.00344094,-0.00805511 0,-0.0035748 -0.00111024,-0.00617716 -0.00335039,-0.00778346 -0.00224016,-0.0016063 -0.00592913,-0.00242126 -0.0110866,-0.00242126l-0.0228031 0 0 0.020811zm-0.0192362 0.0598464l0 -0.0976259 0.046 0c0.00999605,0 0.0175984,0.0021063 0.0228504,0.00632677 0.0052244,0.00421653 0.00785039,0.0103464 0.00785039,0.0184016 0,0.00493307 -0.000976377,0.00907086 -0.00291732,0.0124016 -0.00194882,0.00329921 -0.00486614,0.00585826 -0.0087559,0.00766535 0.0050433,0.00203543 0.00880314,0.00498031 0.0112874,0.00880314 0.00251181,0.00379921 0.00375984,0.0085748 0.00375984,0.0142716 0,0.00950393 -0.00310236,0.0168346 -0.00927952,0.0219921 -0.00620078,0.0051811 -0.0149567,0.00776377 -0.0263149,0.00776377l-0.0444803 0zm0.103307 0l0 -0.0976259 0.0202244 0 0 0.0363819 0.0402756 0 0 -0.0363819 0.0202244 0 0 0.0976259 -0.0202244 0 0 -0.0432795 -0.0402756 0 0 0.0432795 -0.0202244 0zm0.144933 -0.0780787l-0.0135275 0.041563 0.0271023 0 -0.0135748 -0.041563zm-0.0116772 -0.0195472l0.0231929 0 0.0352047 0.0976259 -0.0210866 0 -0.00662992 -0.0200669 -0.0378267 0 -0.00642519 0.0200669 -0.0211575 0 0.0347283 -0.0976259zm0.0962676 0.0426929l0.023626 0c0.00511023,0 0.00886613,-0.00104331 0.0112874,-0.00312204 0.00239764,-0.00208268 0.00359842,-0.00533858 0.00359842,-0.00981889 0,-0.00423228 -0.00117716,-0.00744488 -0.00350787,-0.00964172 -0.00232677,-0.00219291 -0.00583858,-0.00327952 -0.0104527,-0.00327952l-0.0245512 0 0 0.0258622zm-0.0200866 0.054933l0 -0.0976259 0.0473504 0c0.0106338,0 0.0185315,0.00228346 0.0236456,0.0068307 0.00513385,0.00455118 0.00769291,0.0115157 0.00769291,0.0208819 0,0.00595275 -0.00124409,0.0109331 -0.0037559,0.0149134 -0.00248819,0.00398031 -0.00608661,0.00669684 -0.0107716,0.00814566 0.0042559,0.00151575 0.00726771,0.00379921 0.00907086,0.00689763 0.00179134,0.00309842 0.00280708,0.00791732 0.00308267,0.0144567l0.000405511 0.0115157c0,9.44881e-005 0,0.000224409 0,0.000409448 0.000114173,0.00581102 0.00137795,0.00936613 0.00377952,0.0105866l0 0.00298819 -0.0220394 0c-0.000700787,-0.00138189 -0.00122047,-0.00305512 -0.0016063,-0.00506692 -0.000362204,-0.00201575 -0.000610236,-0.00441338 -0.000681102,-0.00719684l-0.000267716 -0.0102716c-0.000224409,-0.00603936 -0.00135827,-0.0101378 -0.00341732,-0.0122401 -0.00205905,-0.00212992 -0.00576771,-0.00318897 -0.0111102,-0.00318897l-0.0212913 0 0 0.0379645 -0.0200866 0zm0.140953 -0.0780787l-0.0135315 0.041563 0.0271063 0 -0.0135748 -0.041563zm-0.0116772 -0.0195472l0.0231929 0 0.0352008 0.0976259 -0.0210866 0 -0.00662598 -0.0200669 -0.0378307 0 -0.00642519 0.0200669 -0.0211535 0 0.0347283 -0.0976259zm0.0915669 0.0976259l0 -0.080185 -0.0289645 0 0 -0.0174409 0.077807 0 0 0.0174409 -0.0287559 0 0 0.080185 -0.0200866 0zm-0.51435 0.0881417l0.0237756 0c0.00561417,0 0.00970472,-0.00101968 0.0122638,-0.00305905 0.00255905,-0.00203149 0.00384252,-0.00522047 0.00384252,-0.00961416 0,-0.00454724 -0.00126378,-0.00782676 -0.00377559,-0.00983857 -0.00251181,-0.00201575 -0.00667322,-0.00301181 -0.0124449,-0.00301181l-0.0236614 0 0 0.0255236zm0 -0.0422204l0.0229173 0c0.00495669,0 0.00857086,-0.000858267 0.0108819,-0.00255512 0.00228346,-0.00169685 0.00344094,-0.00438976 0.00344094,-0.00805511 0,-0.0035748 -0.00111024,-0.00617322 -0.00335039,-0.00777952 -0.00224016,-0.0016063 -0.00592913,-0.00242126 -0.0110866,-0.00242126l-0.0228031 0 0 0.020811zm-0.0192362 0.0598425l0 -0.0976259 0.046 0c0.00999605,0 0.0175984,0.0021063 0.0228504,0.0063307 0.0052244,0.00421259 0.00785039,0.0103464 0.00785039,0.0184016 0,0.00492913 -0.000976377,0.00907086 -0.00291732,0.0123937 -0.00194882,0.00330708 -0.00486614,0.0058622 -0.0087559,0.00767322 0.0050433,0.00203543 0.00880314,0.00498031 0.0112874,0.00880314 0.00251181,0.00379921 0.00375984,0.00857086 0.00375984,0.0142716 0,0.00950393 -0.00310236,0.0168346 -0.00927952,0.0219921 -0.00620078,0.0051811 -0.0149567,0.00775984 -0.0263149,0.00775984l-0.0444803 0zm0.103988 0l0 -0.0976259 0.0200866 0 0 0.0976259 -0.0200866 0zm0.0487283 0l0 -0.0976259 0.0200905 0 0 0.0795944 0.0476496 0 0 0.0180315 -0.0677401 0zm0.0864527 0l0 -0.0976259 0.0200866 0 0 0.0795944 0.0476496 0 0 0.0180315 -0.0677362 0zm0.106673 -0.0524173l0.0194134 0c0.00524803,0 0.00907086,-0.00111024 0.0114724,-0.00335039 0.00237401,-0.00224016 0.0035748,-0.00581496 0.0035748,-0.0107716 0,-0.00463779 -0.0011811,-0.00814566 -0.00350787,-0.0105394 -0.00235433,-0.00237795 -0.00583858,-0.0035748 -0.0104764,-0.0035748l-0.0204764 0 0 0.0282362zm-0.000133858 0.017689l0 0.0347283 -0.0200905 0 0 -0.0976259 0.0434173 0c0.010248,0 0.0180079,0.00266929 0.0233031,0.00798818 0.00527165,0.00531889 0.00791732,0.013122 0.00791732,0.0234409 0,0.0100669 -0.00257874,0.0178268 -0.00775984,0.0232795 -0.00516141,0.00545275 -0.012559,0.00818897 -0.0221299,0.00818897l-0.0246575 0zm0.105815 -0.0433464l-0.0135315 0.041559 0.0271063 0 -0.0135748 -0.041559zm-0.0116732 -0.0195512l0.023189 0 0.0352047 0.0976259 -0.0210866 0 -0.00662598 -0.0200669 -0.0378307 0 -0.00642519 0.0200669 -0.0211535 0 0.0347283 -0.0976259zm0.111901 0.0976259l-0.0200945 0 0 -0.0363819 -0.0354488 -0.061244 0.0245945 0 0.0208819 0.0420866 0.0192756 -0.0420866 0.022937 0 -0.0321456 0.061244 0 0.0363819z"/>
    <g id="_187372296">
     <path id="_188163952" class="fil6" d="M0.776535 0.429468c0.00992913,0 0.017685,-0.00279527 0.0232677,-0.00837007 0.00558661,-0.00559448 0.00838188,-0.012626 0.00838188,-0.0211102 0,-0.00909842 -0.00274409,-0.0157165 -0.0082244,-0.0198543 -0.00547637,-0.00413779 -0.0130866,-0.00620866 -0.0228031,-0.00620866l-0.0492126 0 0 0.0555433 0.0485905 0zm-0.0961928 0.035063l0 -0.206035 0.0476023 0 0 0.0846259 0.0645275 0c0.012126,0 0.0267126,0.00456299 0.0388504,0.0156496 0.00340551,0.00311417 0.00680708,0.00662204 0.00959448,0.0106575 0.00279527,0.00403149 0.00501968,0.00879133 0.00667322,0.0142677 0.00165748,0.00548818 0.00248425,0.0119527 0.00248425,0.0193976 0,0.0188268 -0.00630708,0.0337716 -0.0189291,0.0448385 -0.012622,0.0110669 -0.0319606,0.0165984 -0.0580236,0.0165984l-0.0927794 0z"/>
     <path id="_187369920" class="fil7" d="M0.73324 0.258496l0 0.0391417 0.0437165 0c0.022626,-0.00158661 0.0297953,0.0243543 0.0155157,0.040063 0.0116614,-0.000791338 0.0235984,0.00285827 0.0349094,0.0107087 0.0334449,-0.0233031 0.020626,-0.0884724 -0.0349094,-0.0899133l-0.0592322 0z"/>
    </g>
    <polygon id="_105520016" class="fil8" points="0.886854,0.483598 0.893735,0.483598 0.893735,0.242945 0.886854,0.242945 "/>
   </g>
   <g id="_105520280">
    <path id="_105518936" class="fil9" d="M2.45642 0.102992l0.00432677 0.00365748 -0.0205079 0.0175748 -0.011811 7.87401e-006 0.00250787 -0.00388582 -0.68761 0 0.00272441 -0.00544881 0.682653 0 -0.00251181 0.00388189 0.011815 -3.937e-006 0.0184134 -0.0157835zm-0.624373 0.026626l0.00489763 0 -0.0131575 0.0269094 -0.0550866 0 -0.0180354 0.0361063 -0.0434488 0 0.00272047 -0.00545275 0.038496 0 0.0180315 -0.0360984 0.0550944 -3.937e-006 0.0104882 -0.0214606zm0.23911 -0.00364567l-0.00496063 0 -0.00646062 0.012937 -0.0651653 0 -0.00342519 0.00685432 0.00495275 0 0.000704724 -0.00140551 0.0651653 0 0.00918897 -0.0183858zm-0.107858 0.0326496c0.000811023,0.00595669 0.00549606,0.00994094 0.0130354,0.00994094l0.0445393 0 0.00272441 -0.00544881 -0.0495 0c-0.0048937,0 -0.00859842,-0.00168897 -0.0107992,-0.00449212zm-0.0171929 0.0297362l-0.00272441 0.00544881 0.0782165 0c0.0117126,0 0.0260827,-0.00957873 0.031937,-0.0212953l0 0c0.00340157,-0.00681889 0.00318897,-0.0129212 0.00011811,-0.0168268 0.000444882,0.00329527 -0.000267716,0.00720866 -0.00235433,0.011374l0 0c-0.00585039,0.0117165 -0.0202244,0.0212992 -0.031933,0.0212992l-0.0732598 0zm-0.114031 0.00392913l0.027996 0 0.0233386 -0.0467126 0.0361417 0 0.00272441 -0.00544881 -0.0410984 0 -0.0233346 0.0467126 -0.0230472 0 -0.00272047 0.00544881zm0.0493897 -0.0289842l-0.00281496 0.00544488 0.0293267 0 0.00272047 -0.00544881 -0.0292323 3.937e-006zm0.0224291 0.0235354l-0.00272047 0.00544881 0.027996 0 0.0324015 -0.0648582 -0.00495275 0 -0.0296811 0.0594094 -0.0230433 0zm0.487354 -0.0565196c0.00276771,0.00294488 0.00311417,0.00785826 0.000358267,0.0133819l-0.0340197 0.0680984c-0.00447244,0.00895275 -0.0154527,0.0162795 -0.0244055,0.0162795l-0.187606 0 -0.187606 0 0.00605905 0.00491338 -0.0105827 5.90551e-005 -0.0157677 -0.0138976 0.00198425 -0.00173622 0.0115512 0.0101811 0.0105827 -5.90551e-005 -0.00606299 -0.00490944 0.187606 0 0.18761 0c0.00894881,0 0.0199291,-0.00732677 0.0244016,-0.0162756l0.0340197 -0.0681023c0.00143701,-0.00287008 0.00201575,-0.00558267 0.00187795,-0.00793306zm-0.0573188 0.0622007l-0.0479645 0c-0.00607873,0 -0.00973228,-0.00338976 -0.0100394,-0.00836613 0.00171653,0.00182677 0.00437795,0.00291732 0.00780708,0.00291732l0.0529173 0 -0.00272047 0.00544881zm-0.188327 -0.0664921l0.00495275 0 -0.032748 0.0655629 -0.0445669 0 0.00272047 -0.00544881 0.0396102 0 0.0300315 -0.0601141zm0.105425 0.0660275l-0.0787834 0c-0.00804724,-0.000173228 -0.0117953,-0.00401181 -0.0123307,-0.00926377 0.00196457,0.00227165 0.00525196,0.00370866 0.0100984,0.00381496l0.0787834 0 0.0246496 -0.0493464c0.00145669,-0.00291732 0.00203937,-0.00567716 0.00188583,-0.00805511 0.00277953,0.00297638 0.00312598,0.007937 0.000346456,0.0135079l-0.0246496 0.0493425zm-0.0202086 -0.0409882l0.00491338 1.9685e-005 -0.00839763 0.0169921 -0.0346968 5.11811e-005 -0.000192913 0.000401574 -0.0048622 -3.937e-006 0.0028189 -0.00585039 0.0347008 -5.11811e-005 0.00571653 -0.011559zm0.00975983 -0.00637401l-0.0606181 0 0.00272047 -0.00544881 0.0606062 0 -0.00270866 0.00544881zm0.0815865 0.000232283l0.0356417 0 0.00272047 -0.00544881 -0.0405945 0 -0.0144527 0.0289291 0.00495669 0 0.0117283 -0.0234803z"/>
    <polygon id="_105521672" class="fil10" points="1.75489,0.0872558 2.42779,0.0872558 2.42608,0.0833346 2.43736,0.0833267 2.4585,0.101197 2.438,0.118772 2.42619,0.118775 2.42869,0.114898 1.74109,0.114898 "/>
    <path id="_105521600" class="fil11" d="M2.31625 0.12198l0.0649842 0c0.00894487,0 0.0126102,0.00731889 0.00813779,0.0162716l-0.0340197 0.0681023c-0.00447244,0.00894881 -0.0154527,0.0162756 -0.0244016,0.0162756l-0.18761 0 -0.187606 0 0.00606299 0.00490944 -0.0105787 5.90551e-005 -0.0157716 -0.0138976 0.0161338 -0.0140945 0.0104921 7.87401e-006 -0.00606299 0.00492519 0.371913 0 0.00872834 -0.0174685 -0.0529173 0c-0.00895275,0 -0.0126181,-0.00731889 -0.00814566,-0.0162716l0.0162598 -0.0325472c0.00447244,-0.00895275 0.0154527,-0.0162716 0.0244016,-0.0162716zm-0.212488 -0.00140157l0.044563 0 -0.032748 0.0655629 -0.0445669 0 0.0327519 -0.0655629zm0.145031 0.0660275l-0.0787834 0c-0.026248,-0.000574803 -0.00672834,-0.0399606 0.0205748,-0.0411732l0.0429133 0.000204724 -0.00839763 0.0169882 -0.0346968 5.11811e-005 -0.0028189 0.00585039 0.0411023 3.1496e-005 0.0145984 -0.0293149 -0.065559 0 0.00920865 -0.0184331 0.0782716 0c0.00905117,0 0.012752,0.00740157 0.00823621,0.0164488l-0.0246496 0.0493464zm0.0711417 -0.0471299l0.0405905 0 -0.0144488 0.0289291 -0.0405984 0 0.0144567 -0.0289291z"/>
    <polygon id="_105522080" class="fil11" points="2.07536,0.0872558 2.20858,0.0872558 2.19477,0.114898 2.06155,0.114898 "/>
    <path id="_105521864" class="fil10" d="M1.73646 0.124169l0.0982519 0 -0.0131535 0.0269094 -0.0550944 3.937e-006 -0.0180315 0.0360984 -0.0434488 0 0.0314764 -0.0630118zm0.33246 -0.00364567l-0.0735511 0c-0.0117126,0 -0.0260787,0.00958267 -0.0319291,0.0212953l0 0c-0.00585433,0.0117126 -0.00105512,0.0212953 0.0106535,0.0212953l0.0495 0 -0.00316141 0.00632677 -0.0698385 0 -0.00944881 0.0189173 0.0782165 0c0.0117126,0 0.0260827,-0.00958267 0.031933,-0.0212992l0 0c0.00585433,-0.0117087 0.00106299,-0.0212953 -0.0106535,-0.0212953l-0.0495 0 0.00342519 -0.00685432 0.0651653 0 0.00918897 -0.0183858zm-0.239082 0.0663149l0.027996 0 0.0233346 -0.0467126 0.0410984 0 -0.00275197 0.00551574 -0.0339842 0 -0.00912204 0.0176614 0.0342795 -3.937e-006 -0.0117559 0.0235393 0.027996 0 0.0324015 -0.0648582 -0.0803779 0c-0.00769684,0 -0.0207126,0.00799999 -0.0245551,0.015689l-0.024559 0.0491692z"/>
    <g id="_187356336">
     <path id="_187375464" class="fil12" d="M2.15796 0.101319l0.00463779 -0.00346456c-0.00555905,-0.0109488 -0.0231023,-0.0128583 -0.0398228,-0.00364567l0.000370078 0.00383464c0.0146063,-0.00744488 0.0296811,-0.00670866 0.0348149,0.00327559zm-0.0212913 0.0133661l0.00309449 -0.00298425c-0.00245275,-0.00397637 -0.0099685,-0.00412992 -0.0161732,-0.000712598l0.000165354 0.00247638c0.00541732,-0.0027559 0.0110079,-0.00248819 0.0129134,0.00122047zm0.0109173 -0.0067559l0.00317323 -0.00237401c-0.00380708,-0.00749606 -0.015811,-0.00880708 -0.0272677,-0.00249606l0.000255905 0.00262598c0.00999999,-0.00509448 0.0203189,-0.00459448 0.0238386,0.00224409z"/>
     <path id="_187359600" class="fil10" d="M2.18423 0.0839802l0.00872046 -0.00651968c-0.0104449,-0.0205945 -0.043437,-0.0241929 -0.0748858,-0.00686614l0.000700787 0.00721653c0.0274645,-0.0139961 0.055811,-0.0126181 0.0654645,0.00616929zm-0.0142874 0.00888976l0.00641338 -0.00479133c-0.00768503,-0.0151535 -0.0319606,-0.0177992 -0.0550944,-0.00505118l0.000515748 0.00530708c0.0202008,-0.0102992 0.041063,-0.00927952 0.0481653,0.00453543z"/>
    </g>
    <path id="_105522368" class="fil13" d="M2.02324 0.212106l0.0202992 0 0.00011811 0.00302362 -0.0203031 0 -0.000114173 -0.00302362zm0.190433 -0.112882l0.0287204 0 -0.000905511 0.00430708 -0.0287165 0 0.000901574 -0.00430708zm0.173882 0l0.0287165 0 -0.000905511 0.00430708 -0.0287165 0 0.000905511 -0.00430708zm-0.0579566 0l0.0287165 0 -0.000905511 0.00430708 -0.0287126 0 0.000901574 -0.00430708zm-0.0579566 0l0.0287165 0 -0.000905511 0.00430708 -0.0287165 0 0.000905511 -0.00430708zm0.0122283 0.112882l0.0202953 0 0.00011811 0.00302362 -0.0202992 0 -0.000114173 -0.00302362zm-0.0823779 0l0.0202992 0 0.00011811 0.00302362 -0.0203031 0 -0.000114173 -0.00302362zm-0.0913188 0l0.0203031 0 0.000114173 0.00302362 -0.0202992 0 -0.00011811 -0.00302362z"/>
    <path id="_105523616" class="fil14" d="M1.69852 0.218275c-6.69291e-005,0.000137795 -0.000133858,0.000255905 -0.000200787,0.00035433 -6.29921e-005,0.000106299 -0.000129921,0.000192913 -0.000204724,0.000255905 -7.08661e-005,7.08661e-005 -0.000133858,0.00011811 -0.000204724,0.000145669 -5.90551e-005,3.1496e-005 -0.000122047,4.72441e-005 -0.000181102,4.72441e-005l-0.00702362 0c-0.000169291,0 -0.000303149,-5.51181e-005 -0.000401574,-0.000173228 -9.44881e-005,-0.000122047 -6.69291e-005,-0.000322834 7.87401e-005,-0.00061811l0.00651181 -0.0130394c0.000145669,-0.000291338 0.000322834,-0.0005 0.000543307,-0.00061811 0.000208661,-0.000114173 0.000401574,-0.000169291 0.000574803,-0.000169291l0.006937 0c6.29921e-005,0 0.000106299,1.1811e-005 0.000145669,4.3307e-005 3.1496e-005,3.1496e-005 4.72441e-005,7.87401e-005 4.3307e-005,0.000145669 -3.937e-006,6.69291e-005 -2.3622e-005,0.000149606 -5.11811e-005,0.000251968 -3.5433e-005,0.000106299 -9.05511e-005,0.000232283 -0.000161417,0.000381889 -7.08661e-005,0.000133858 -0.000141732,0.000251968 -0.000208661,0.00035433 -7.08661e-005,0.000102362 -0.000133858,0.000185039 -0.00019685,0.000251968 -6.29921e-005,5.90551e-005 -0.000125984,0.000106299 -0.000188976,0.000137795 -6.29921e-005,2.7559e-005 -0.000125984,4.72441e-005 -0.000188976,4.72441e-005l-0.00571653 0 -0.00229134 0.00458661 0.00490157 0c6.69291e-005,0 0.000106299,1.5748e-005 0.000141732,5.11811e-005 3.1496e-005,3.5433e-005 4.72441e-005,8.26771e-005 5.11811e-005,0.000141732 3.937e-006,5.90551e-005 -1.1811e-005,0.000141732 -5.11811e-005,0.000251968 -3.5433e-005,0.000102362 -9.05511e-005,0.000224409 -0.000161417,0.000366141 -6.29921e-005,0.000137795 -0.000133858,0.000255905 -0.00019685,0.000350393 -6.29921e-005,0.000102362 -0.000129921,0.000181102 -0.000188976,0.000240157 -6.69291e-005,5.90551e-005 -0.000133858,0.000106299 -0.000192913,0.000125984 -6.29921e-005,2.7559e-005 -0.000122047,4.3307e-005 -0.000185039,4.3307e-005l-0.00490551 0 -0.00260236 0.00523228 0.00579133 0c5.90551e-005,0 0.000106299,1.1811e-005 0.000133858,4.72441e-005 3.937e-005,3.1496e-005 5.51181e-005,7.87401e-005 6.69291e-005,0.000137795 3.937e-006,6.29921e-005 -1.1811e-005,0.000145669 -4.72441e-005,0.000251968 -3.937e-005,9.84251e-005 -9.44881e-005,0.000224409 -0.000169291,0.000374015zm0.0175472 0.000535433c-4.3307e-005,9.05511e-005 -0.000110236,0.00015748 -0.000192913,0.000200787 -7.87401e-005,4.72441e-005 -0.000181102,7.87401e-005 -0.000299212,0.000102362 -0.00011811,2.3622e-005 -0.000279527,3.5433e-005 -0.000476378,3.5433e-005 -0.00019685,0 -0.000350393,-1.1811e-005 -0.000456693,-3.5433e-005 -0.000102362,-2.3622e-005 -0.000173228,-5.51181e-005 -0.000200787,-0.000102362 -3.5433e-005,-4.3307e-005 -2.3622e-005,-0.000110236 1.9685e-005,-0.000200787l0.000503937 -0.00101968c-0.000677165,0.000472441 -0.00135433,0.000842519 -0.00203149,0.00111024 -0.000681102,0.000259842 -0.00132677,0.000397637 -0.00193307,0.000397637 -0.000535433,0 -0.000988188,-7.48031e-005 -0.00134646,-0.000216535 -0.000366141,-0.000141732 -0.000633858,-0.000334645 -0.000811023,-0.000602362 -0.000169291,-0.000263779 -0.000244094,-0.000586614 -0.000224409,-0.000968503 2.3622e-005,-0.000389763 0.00015748,-0.000822834 0.000405511,-0.00131496 0.000287401,-0.000570866 0.000645669,-0.00106693 0.00109055,-0.00149212 0.000448819,-0.000421259 0.000956692,-0.000771653 0.00153149,-0.00105118 0.00057874,-0.000279527 0.00121653,-0.000484252 0.00191732,-0.000625984 0.000700787,-0.000137795 0.00144882,-0.000208661 0.00224409,-0.000208661l0.00139764 0 0.0003937 -0.000791338c0.00019685,-0.0003937 0.000330708,-0.000740157 0.000397637,-0.00104331 6.69291e-005,-0.000299212 6.29921e-005,-0.000551181 -2.7559e-005,-0.000748031 -8.66141e-005,-0.00019685 -0.000248031,-0.000346456 -0.000488189,-0.000452756 -0.000244094,-0.000102362 -0.00057874,-0.000153543 -0.00101181,-0.000153543 -0.00046063,0 -0.000897637,5.90551e-005 -0.00131496,0.000165354 -0.000425196,0.000114173 -0.000803149,0.000232283 -0.00114567,0.000362204 -0.000342519,0.000133858 -0.000625984,0.000251968 -0.000870078,0.000362204 -0.000240157,0.000110236 -0.000401574,0.000161417 -0.000492126,0.000161417 -5.90551e-005,0 -0.000106299,-1.5748e-005 -0.000137795,-4.3307e-005 -3.1496e-005,-2.7559e-005 -4.72441e-005,-7.48031e-005 -4.72441e-005,-0.000133858 -7.87401e-006,-5.90551e-005 3.937e-006,-0.000137795 3.937e-005,-0.000232283 3.1496e-005,-9.44881e-005 7.48031e-005,-0.000200787 0.000129921,-0.000311023 9.84251e-005,-0.000188976 0.000192913,-0.000338582 0.000267716,-0.000448819 8.26771e-005,-0.000106299 0.000192913,-0.000208661 0.000346456,-0.00031496 0.000149606,-9.05511e-005 0.000377952,-0.000204724 0.00069685,-0.000338582 0.00031496,-0.000133858 0.00065748,-0.000251968 0.00103543,-0.000362204 0.000381889,-0.000106299 0.000779527,-0.00019685 0.00120079,-0.000267716 0.000421259,-7.48031e-005 0.000826771,-0.000110236 0.00121653,-0.000110236 0.000732283,0 0.00131102,8.66141e-005 0.00174016,0.000248031 0.00043307,0.000169291 0.000720472,0.000409448 0.000877952,0.000732283 0.000161417,0.000318897 0.000188976,0.000716535 9.44881e-005,0.00119291 -9.44881e-005,0.000472441 -0.000295275,0.00102362 -0.000610236,0.00165354l-0.00342913 0.00686614zm0.000464567 -0.00464173l-0.00159055 0c-0.000515748,0 -0.000980314,3.5433e-005 -0.00139764,0.000122047 -0.000417322,9.05511e-005 -0.000795275,0.000216535 -0.00113386,0.000389763 -0.000330708,0.000165354 -0.00061811,0.000370078 -0.000850393,0.000606299 -0.00023622,0.000240157 -0.000429133,0.000511811 -0.000582677,0.000818897 -0.000259842,0.000527559 -0.000311023,0.000948818 -0.000129921,0.00125984 0.000177165,0.000311023 0.000574803,0.000468504 0.00117716,0.000468504 0.000484252,0 0.00100394,-0.000122047 0.00154331,-0.000370078 0.000543307,-0.000248031 0.00117323,-0.000625984 0.00188976,-0.00114567l0.0010748 -0.0021496zm0.0183189 0.0018622c-0.000259842,0.000519685 -0.000586614,0.000980314 -0.000984251,0.00138583 -0.000397637,0.000409448 -0.000842519,0.000751968 -0.00133464,0.0010315 -0.000492126,0.00027559 -0.00101968,0.000488189 -0.00158268,0.000629921 -0.000559055,0.000141732 -0.00113386,0.000220472 -0.00172047,0.000220472 -0.000362204,0 -0.000692913,-3.5433e-005 -0.000996062,-8.66141e-005 -0.000295275,-5.90551e-005 -0.000551181,-0.000133858 -0.000771653,-0.000220472 -0.000216535,-8.26771e-005 -0.000389763,-0.000173228 -0.000527559,-0.000267716 -0.000129921,-9.84251e-005 -0.000220472,-0.000177165 -0.000263779,-0.000255905 -4.72441e-005,-7.48031e-005 -5.11811e-005,-0.000181102 -2.3622e-005,-0.00031496 2.7559e-005,-0.000133858 9.84251e-005,-0.000322834 0.000220472,-0.000555118 7.08661e-005,-0.000141732 0.000133858,-0.000259842 0.000204724,-0.000362204 6.29921e-005,-9.44881e-005 0.00011811,-0.000173228 0.000173228,-0.00023622 5.51181e-005,-5.90551e-005 0.000106299,-0.000102362 0.000161417,-0.000129921 5.11811e-005,-2.7559e-005 0.000106299,-3.5433e-005 0.00015748,-3.5433e-005 8.66141e-005,0 0.000185039,4.3307e-005 0.000291338,0.000153543 0.00011811,9.84251e-005 0.000255905,0.000208661 0.000437007,0.000326771 0.000173228,0.000122047 0.000401574,0.00023622 0.000673228,0.000334645 0.000271653,0.000102362 0.000622047,0.00015748 0.00104331,0.00015748 0.00031496,0 0.00061811,-3.937e-005 0.000909448,-0.000102362 0.000287401,-7.48031e-005 0.000559055,-0.000173228 0.00081496,-0.000303149 0.000251968,-0.000129921 0.000484252,-0.000299212 0.000685039,-0.0005 0.000204724,-0.000204724 0.000374015,-0.000448819 0.000515748,-0.000728346 0.000141732,-0.000283464 0.000188976,-0.000527559 0.000141732,-0.000720472 -5.11811e-005,-0.00019685 -0.00015748,-0.000370078 -0.000322834,-0.000519685 -0.000169291,-0.000149606 -0.000370078,-0.000287401 -0.000614173,-0.000401574 -0.000240157,-0.000114173 -0.000492126,-0.000240157 -0.000751968,-0.000362204 -0.000255905,-0.000133858 -0.000492126,-0.000279527 -0.000720472,-0.000437007 -0.000220472,-0.000161417 -0.000397637,-0.000358267 -0.000519685,-0.000594488 -0.000125984,-0.000240157 -0.000181102,-0.000515748 -0.000161417,-0.000842519 1.5748e-005,-0.000318897 0.000133858,-0.000708661 0.000362204,-0.00116142 0.00019685,-0.000397637 0.000464567,-0.000779527 0.000803149,-0.00114173 0.000334645,-0.000370078 0.000728346,-0.000688976 0.00117323,-0.000964566 0.000444882,-0.000271653 0.000940944,-0.000492126 0.00148819,-0.000661417 0.000543307,-0.000161417 0.00112992,-0.000248031 0.00174409,-0.000248031 0.00027559,0 0.000531496,2.3622e-005 0.000783464,7.08661e-005 0.000248031,4.3307e-005 0.00046063,9.84251e-005 0.000649606,0.000169291 0.000181102,6.29921e-005 0.000330708,0.000137795 0.000448819,0.000216535 0.000114173,7.87401e-005 0.00019685,0.000145669 0.000248031,0.000212598 3.937e-005,5.90551e-005 7.08661e-005,0.000110236 7.48031e-005,0.00015748 3.937e-006,4.72441e-005 0,9.44881e-005 -1.5748e-005,0.000153543 -1.9685e-005,5.51181e-005 -4.3307e-005,0.000122047 -7.48031e-005,0.000208661 -2.7559e-005,8.26771e-005 -7.48031e-005,0.000185039 -0.000133858,0.000303149 -6.69291e-005,0.000129921 -0.000125984,0.000240157 -0.000185039,0.000334645 -5.90551e-005,9.44881e-005 -0.000114173,0.000169291 -0.000169291,0.000228346 -5.90551e-005,5.90551e-005 -0.000110236,9.84251e-005 -0.000165354,0.000133858 -5.11811e-005,2.3622e-005 -9.84251e-005,3.937e-005 -0.000137795,3.937e-005 -7.08661e-005,0 -0.000145669,-3.937e-005 -0.00023622,-0.000125984 -8.66141e-005,-7.87401e-005 -0.000208661,-0.000169291 -0.000362204,-0.000267716 -0.000161417,-9.05511e-005 -0.000350393,-0.000181102 -0.000586614,-0.000263779 -0.00023622,-8.26771e-005 -0.000523622,-0.000125984 -0.000877952,-0.000125984 -0.000318897,0 -0.000614173,3.5433e-005 -0.0008937,0.000110236 -0.00027559,7.48031e-005 -0.000527559,0.000173228 -0.000744094,0.000303149 -0.000220472,0.000133858 -0.000417322,0.000291338 -0.000590551,0.000472441 -0.000165354,0.000181102 -0.000303149,0.000374015 -0.000405511,0.000582677 -0.000149606,0.000295275 -0.00019685,0.000543307 -0.000149606,0.000744094 5.11811e-005,0.000200787 0.000161417,0.000370078 0.000330708,0.000519685 0.000165354,0.000153543 0.000370078,0.000287401 0.00061811,0.000413385 0.000251968,0.00011811 0.000503937,0.000240157 0.000759842,0.000370078 0.000251968,0.000133858 0.0005,0.000271653 0.000732283,0.00043307 0.000232283,0.00015748 0.000417322,0.000342519 0.000547244,0.000574803 0.000122047,0.000224409 0.000181102,0.000496063 0.000169291,0.000811023 -7.87401e-006,0.00031496 -0.00011811,0.00069685 -0.000338582,0.00113386zm0.012937 0.00304724l-0.00322047 0.00374409c-0.000106299,0.00011811 -0.000267716,0.000212598 -0.000480315,0.00027559 -0.000220472,6.29921e-005 -0.000511811,9.44881e-005 -0.0008937,9.44881e-005 -0.00019685,0 -0.000350393,-1.1811e-005 -0.000456693,-3.1496e-005 -0.000110236,-1.5748e-005 -0.000188976,-4.72441e-005 -0.000232283,-9.44881e-005 -3.5433e-005,-4.3307e-005 -4.72441e-005,-0.000106299 -1.1811e-005,-0.000181102 2.7559e-005,-7.48031e-005 9.44881e-005,-0.000161417 0.000188976,-0.000271653l0.00316929 -0.00353543c-5.11811e-005,-2.7559e-005 -9.44881e-005,-7.87401e-005 -0.000122047,-0.000145669 -2.3622e-005,-7.08661e-005 -3.1496e-005,-0.000141732 -1.5748e-005,-0.000216535l0.00122441 -0.00971653c1.9685e-005,-0.000161417 5.90551e-005,-0.000283464 9.84251e-005,-0.000374015 4.72441e-005,-8.66141e-005 0.000110236,-0.000161417 0.00019685,-0.000216535 9.05511e-005,-5.11811e-005 0.000204724,-9.05511e-005 0.000346456,-0.000102362 0.000145669,-1.9685e-005 0.000334645,-2.7559e-005 0.000559055,-2.7559e-005 0.000224409,0 0.000397637,3.937e-006 0.000523622,1.5748e-005 0.000122047,1.1811e-005 0.000212598,2.7559e-005 0.000271653,6.29921e-005 5.90551e-005,3.1496e-005 9.84251e-005,7.48031e-005 9.84251e-005,0.000122047 7.87401e-006,6.29921e-005 3.937e-006,0.000137795 0,0.00023622l-0.00117716 0.00815747 3.1496e-005 0 0.00689763 -0.00820078c0.000122047,-0.000141732 0.000220472,-0.000232283 0.000311023,-0.00027559 7.87401e-005,-4.3307e-005 0.000188976,-7.87401e-005 0.000326771,-9.05511e-005 0.000141732,-1.9685e-005 0.000330708,-2.7559e-005 0.000570866,-2.7559e-005 0.000212598,0 0.000377952,7.87401e-006 0.000503937,2.7559e-005 0.000129921,1.1811e-005 0.000212598,5.11811e-005 0.000244094,0.000102362 3.937e-005,5.51181e-005 3.5433e-005,0.000129921 -7.87401e-006,0.000216535 -4.72441e-005,9.05511e-005 -0.000125984,0.000208661 -0.00023622,0.000338582l-0.00870865 0.0101142zm0.0273425 -0.00102756c-0.000114173,0.000216535 -0.000216535,0.0003937 -0.000303149,0.000519685 -9.44881e-005,0.000129921 -0.000188976,0.000220472 -0.000279527,0.000283464 -9.05511e-005,5.90551e-005 -0.000212598,0.00011811 -0.00035433,0.000169291 -0.000149606,5.11811e-005 -0.000307086,9.44881e-005 -0.000476378,0.000129921 -0.000177165,3.1496e-005 -0.000350393,6.29921e-005 -0.000535433,8.66141e-005 -0.000185039,2.3622e-005 -0.000362204,3.1496e-005 -0.00053937,3.1496e-005 -0.000527559,0 -0.000944881,-6.69291e-005 -0.0012559,-0.000208661 -0.000299212,-0.000141732 -0.000503937,-0.000350393 -0.000606299,-0.000633858 -9.84251e-005,-0.000279527 -9.84251e-005,-0.000637795 1.5748e-005,-0.0010748 0.000110236,-0.00043307 0.000307086,-0.000940944 0.000598425,-0.00152756l0.0029685 -0.00594881 -0.0014252 0c-0.000110236,0 -0.000169291,-5.51181e-005 -0.000177165,-0.000177165 -1.1811e-005,-0.000122047 5.51181e-005,-0.00031496 0.000188976,-0.000586614 7.48031e-005,-0.000145669 0.000137795,-0.000263779 0.000212598,-0.000362204 6.69291e-005,-9.84251e-005 0.000129921,-0.000181102 0.000188976,-0.000244094 6.69291e-005,-6.29921e-005 0.000125984,-0.000110236 0.000188976,-0.000137795 6.29921e-005,-2.3622e-005 0.000125984,-3.5433e-005 0.000185039,-3.5433e-005l0.00141338 0 0.00120866 -0.00241732c2.3622e-005,-5.90551e-005 5.90551e-005,-0.000102362 0.000110236,-0.000145669 5.11811e-005,-4.72441e-005 0.000114173,-8.66141e-005 0.000204724,-0.000122047 9.05511e-005,-3.1496e-005 0.00019685,-5.90551e-005 0.000330708,-7.48031e-005 0.000122047,-1.1811e-005 0.000279527,-2.3622e-005 0.00046063,-2.3622e-005 0.000188976,0 0.000338582,1.1811e-005 0.000452756,2.3622e-005 0.000110236,1.5748e-005 0.00019685,4.3307e-005 0.000244094,7.48031e-005 5.11811e-005,3.5433e-005 7.48031e-005,7.48031e-005 8.26771e-005,0.000122047 1.1811e-005,4.3307e-005 0,8.66141e-005 -2.3622e-005,0.000145669l-0.00120866 0.00241732 0.00261417 0c5.51181e-005,0 0.000102362,1.1811e-005 0.000133858,3.5433e-005 3.1496e-005,2.7559e-005 4.72441e-005,7.48031e-005 4.72441e-005,0.000137795 7.87401e-006,6.29921e-005 -7.87401e-006,0.000145669 -4.72441e-005,0.000244094 -3.1496e-005,9.84251e-005 -8.26771e-005,0.000216535 -0.00015748,0.000362204 -0.000133858,0.000271653 -0.000263779,0.000464567 -0.000389763,0.000586614 -0.000133858,0.000122047 -0.000248031,0.000177165 -0.000362204,0.000177165l-0.00261417 0 -0.00283071 0.00567716c-0.000350393,0.000700787 -0.000511811,0.00123228 -0.000484252,0.00159055 2.7559e-005,0.00035433 0.000311023,0.000531496 0.000842519,0.000531496 0.000177165,0 0.000338582,-1.5748e-005 0.000492126,-4.72441e-005 0.000149606,-3.5433e-005 0.000295275,-7.48031e-005 0.000413385,-0.000110236 0.000125984,-3.937e-005 0.00023622,-7.08661e-005 0.000326771,-0.000106299 9.44881e-005,-3.5433e-005 0.000165354,-5.11811e-005 0.000228346,-5.11811e-005 3.937e-005,0 7.08661e-005,7.87401e-006 9.44881e-005,2.7559e-005 2.7559e-005,1.9685e-005 3.1496e-005,5.90551e-005 2.3622e-005,0.000110236 -3.937e-006,5.11811e-005 -2.3622e-005,0.000122047 -5.51181e-005,0.000212598 -3.1496e-005,9.44881e-005 -7.87401e-005,0.000200787 -0.000145669,0.000338582zm0.0215 -0.00445275c-0.000413385,0.000830708 -0.000901574,0.00159449 -0.0014685,0.0022874 -0.000562992,0.000700787 -0.00119291,0.00130315 -0.00188189,0.00180709 -0.000681102,0.000503937 -0.00142126,0.0008937 -0.00221653,0.00117716 -0.000787401,0.000283464 -0.00161811,0.000429133 -0.00247244,0.000429133 -0.000834645,0 -0.00150394,-0.000129921 -0.00200394,-0.000377952 -0.000492126,-0.000248031 -0.000834645,-0.000610236 -0.00101181,-0.00108661 -0.000173228,-0.000472441 -0.00019685,-0.00104724 -5.90551e-005,-0.00172834 0.000133858,-0.000673228 0.000417322,-0.00144882 0.000846456,-0.00230315 0.000413385,-0.000826771 0.000901574,-0.00159055 0.00146063,-0.0022874 0.000566929,-0.00069685 0.00119291,-0.00129921 0.00187401,-0.00180709 0.000685039,-0.000503937 0.00142126,-0.0008937 0.00220866,-0.00116929 0.000791338,-0.000283464 0.00161417,-0.000421259 0.00247638,-0.000421259 0.000842519,0 0.00150787,0.000122047 0.00200394,0.000374015 0.000496063,0.000248031 0.000838582,0.000610236 0.00101181,0.00108268 0.000181102,0.000476378 0.000200787,0.00105512 7.08661e-005,0.00173228 -0.000129921,0.000673228 -0.000413385,0.00143701 -0.000838582,0.00229134zm-0.00202362 0.000125984c0.000271653,-0.000551181 0.000476378,-0.00106693 0.000622047,-0.00155905 0.000145669,-0.000492126 0.000188976,-0.000917322 0.000145669,-0.00129134 -5.11811e-005,-0.000366141 -0.000220472,-0.00065748 -0.000511811,-0.000874015 -0.000295275,-0.000216535 -0.000740157,-0.000326771 -0.00133464,-0.000326771 -0.000551181,0 -0.00107087,0.000102362 -0.00156693,0.000299212 -0.000492126,0.000192913 -0.000956692,0.000472441 -0.00138583,0.000830708 -0.000440945,0.000358267 -0.000842519,0.000779527 -0.00120866,0.00127165 -0.000370078,0.000492126 -0.00069685,0.00101968 -0.000988188,0.0016063 -0.000279527,0.000555118 -0.000488189,0.00107874 -0.000633858,0.00156693 -0.000145669,0.000492126 -0.000185039,0.000917322 -0.000129921,0.00128346 5.11811e-005,0.000366141 0.000228346,0.00065748 0.000515748,0.000870078 0.000295275,0.000216535 0.000740157,0.000318897 0.00133071,0.000318897 0.000547244,0 0.00106693,-9.44881e-005 0.00155905,-0.000291338 0.0005,-0.000200787 0.000968503,-0.000472441 0.00139764,-0.000826771 0.000437007,-0.000350393 0.000834645,-0.000771653 0.00120079,-0.00126378 0.000362204,-0.000492126 0.000692913,-0.00102756 0.000988188,-0.00161417zm0.0339645 0.0032874c-5.90551e-005,0.00011811 -0.00011811,0.000224409 -0.000169291,0.00031496 -5.11811e-005,9.05511e-005 -0.000106299,0.000173228 -0.00015748,0.00023622 -5.11811e-005,6.69291e-005 -0.000106299,0.000133858 -0.000161417,0.000185039 -5.90551e-005,5.11811e-005 -0.000145669,0.00011811 -0.000255905,0.000192913 -0.000114173,7.48031e-005 -0.000330708,0.000185039 -0.000645669,0.000338582 -0.000318897,0.000153543 -0.000692913,0.000307086 -0.00112598,0.000456693 -0.00043307,0.000145669 -0.000901574,0.000271653 -0.00141338,0.000370078 -0.000519685,0.000106299 -0.00105118,0.00015748 -0.00159842,0.00015748 -0.000952755,0 -0.00173228,-0.00015748 -0.00233858,-0.000480315 -0.000602362,-0.00031496 -0.00102362,-0.000779527 -0.0012559,-0.0013937 -0.000224409,-0.000625984 -0.000259842,-0.00138583 -9.84251e-005,-0.00229527 0.000169291,-0.000905511 0.000543307,-0.00194882 0.00113386,-0.00313386 0.000606299,-0.0012126 0.00130315,-0.00229134 0.00209449,-0.00324409 0.000783464,-0.000948818 0.00162598,-0.00175197 0.00251968,-0.00241338 0.0008937,-0.00065748 0.0018189,-0.00116142 0.00277953,-0.00150787 0.000960629,-0.000346456 0.00191732,-0.000519685 0.00287401,-0.000519685 0.000421259,0 0.00081496,3.937e-005 0.00117323,0.00011811 0.000358267,7.87401e-005 0.000681102,0.000181102 0.000960629,0.000299212 0.000279527,0.000125984 0.000511811,0.000263779 0.000692913,0.000421259 0.000185039,0.00015748 0.000303149,0.000287401 0.000350393,0.000385826 5.11811e-005,0.000102362 8.26771e-005,0.000181102 8.26771e-005,0.000232283 3.937e-006,5.51181e-005 3.937e-006,0.00011811 -1.9685e-005,0.000188976 -1.5748e-005,7.08661e-005 -3.937e-005,0.00015748 -7.87401e-005,0.000251968 -3.937e-005,0.000102362 -9.05511e-005,0.000216535 -0.00015748,0.00035433 -7.48031e-005,0.000149606 -0.000145669,0.00027559 -0.000216535,0.000381889 -6.69291e-005,0.000102362 -0.000133858,0.000192913 -0.000200787,0.000267716 -6.69291e-005,7.08661e-005 -0.000125984,0.000122047 -0.000185039,0.00015748 -6.29921e-005,2.7559e-005 -0.000122047,5.11811e-005 -0.000177165,5.11811e-005 -0.000110236,0 -0.000216535,-7.48031e-005 -0.000330708,-0.000220472 -0.00011811,-0.000149606 -0.000279527,-0.000311023 -0.000488189,-0.000484252 -0.000208661,-0.000181102 -0.000488189,-0.000342519 -0.000842519,-0.000488189 -0.000350393,-0.000145669 -0.000822834,-0.000216535 -0.00142126,-0.000216535 -0.000649606,0 -0.00130315,0.000122047 -0.00196063,0.000389763 -0.000661417,0.000255905 -0.00130709,0.000637795 -0.00193307,0.00114173 -0.000633858,0.000503937 -0.00123228,0.00112598 -0.00179921,0.00184646 -0.000574803,0.000724409 -0.00109055,0.00155905 -0.00155905,0.00249212 -0.00046063,0.000929133 -0.000767716,0.00174803 -0.000925196,0.00245669 -0.000161417,0.000712598 -0.000169291,0.00130709 -3.5433e-005,0.0017874 0.000133858,0.000476378 0.000413385,0.000838582 0.000830708,0.00108268 0.000421259,0.000248031 0.00097244,0.000374015 0.00165748,0.000374015 0.000582677,0 0.00112598,-7.87401e-005 0.00162992,-0.000220472 0.000503937,-0.000137795 0.000956692,-0.000303149 0.00134646,-0.000480315 0.0003937,-0.000177165 0.000724409,-0.000334645 0.000992125,-0.000480315 0.000267716,-0.000141732 0.000456693,-0.000212598 0.000566929,-0.000212598 5.51181e-005,0 9.44881e-005,7.87401e-006 0.000122047,3.5433e-005 2.3622e-005,1.9685e-005 3.5433e-005,6.29921e-005 2.3622e-005,0.000129921 -7.87401e-006,6.29921e-005 -3.1496e-005,0.000149606 -7.87401e-005,0.000267716 -4.3307e-005,0.000110236 -0.000114173,0.000251968 -0.000200787,0.000425196zm0.0197441 -0.00771653c-8.26771e-005,0.000165354 -0.000153543,0.000303149 -0.000216535,0.000413385 -7.08661e-005,0.00011811 -0.000129921,0.000204724 -0.000177165,0.000267716 -5.90551e-005,6.69291e-005 -0.000110236,0.000114173 -0.00015748,0.000145669 -5.51181e-005,3.5433e-005 -0.000106299,5.11811e-005 -0.000169291,5.11811e-005 -6.29921e-005,0 -0.000129921,-1.5748e-005 -0.000192913,-5.11811e-005 -7.48031e-005,-3.1496e-005 -0.000153543,-6.29921e-005 -0.000244094,-9.84251e-005 -9.44881e-005,-3.1496e-005 -0.000200787,-6.69291e-005 -0.000318897,-9.84251e-005 -0.000125984,-2.7559e-005 -0.000263779,-4.72441e-005 -0.000421259,-4.72441e-005 -0.000185039,0 -0.000385826,3.5433e-005 -0.000610236,0.00011811 -0.000216535,7.48031e-005 -0.000468504,0.00019685 -0.000755905,0.000370078 -0.000287401,0.000177165 -0.000610236,0.000405511 -0.00097244,0.000692913 -0.000358267,0.000279527 -0.000779527,0.000633858 -0.00124409,0.00104724l-0.00334252 0.00669291c-3.1496e-005,5.90551e-005 -7.48031e-005,0.000110236 -0.000122047,0.000149606 -5.51181e-005,3.937e-005 -0.00011811,7.48031e-005 -0.000200787,0.000110236 -8.26771e-005,2.7559e-005 -0.000192913,5.11811e-005 -0.00031496,6.69291e-005 -0.000133858,1.1811e-005 -0.000291338,2.3622e-005 -0.000480315,2.3622e-005 -0.000177165,0 -0.000322834,-1.1811e-005 -0.000437007,-2.3622e-005 -0.00011811,-1.5748e-005 -0.00019685,-3.937e-005 -0.000251968,-6.69291e-005 -5.90551e-005,-3.5433e-005 -9.05511e-005,-7.08661e-005 -9.44881e-005,-0.000110236 -7.87401e-006,-3.937e-005 3.937e-006,-9.05511e-005 3.5433e-005,-0.000149606l0.00508267 -0.0101732c2.7559e-005,-6.29921e-005 6.29921e-005,-0.000110236 0.000110236,-0.000153543 4.3307e-005,-3.5433e-005 0.000106299,-7.48031e-005 0.000185039,-0.000114173 9.05511e-005,-3.5433e-005 0.000185039,-5.11811e-005 0.000295275,-6.29921e-005 0.000114173,-1.1811e-005 0.000255905,-1.5748e-005 0.000429133,-1.5748e-005 0.000165354,0 0.000303149,3.937e-006 0.000405511,1.5748e-005 0.000102362,1.1811e-005 0.000173228,2.7559e-005 0.000220472,6.29921e-005 3.937e-005,3.937e-005 6.69291e-005,7.87401e-005 7.48031e-005,0.000114173 3.937e-006,4.3307e-005 -7.87401e-006,9.05511e-005 -3.937e-005,0.000153543l-0.000740157 0.00148425c0.000484252,-0.000409448 0.000909448,-0.000744094 0.00128346,-0.000996062 0.000370078,-0.000255905 0.000704724,-0.00046063 0.000999999,-0.000606299 0.000287401,-0.000149606 0.000555118,-0.000248031 0.000795275,-0.000303149 0.000244094,-5.51181e-005 0.000476378,-8.66141e-005 0.000692913,-8.66141e-005 9.84251e-005,0 0.000208661,0 0.000326771,1.9685e-005 0.00011811,1.1811e-005 0.000232283,2.7559e-005 0.000358267,6.29921e-005 0.00011811,3.1496e-005 0.000224409,5.90551e-005 0.00031496,9.84251e-005 9.44881e-005,3.937e-005 0.000153543,7.48031e-005 0.000177165,0.000110236 2.7559e-005,3.937e-005 3.937e-005,7.08661e-005 3.5433e-005,0.000106299 0,3.937e-005 -7.87401e-006,8.26771e-005 -2.3622e-005,0.000133858 -1.1811e-005,5.51181e-005 -4.72441e-005,0.000133858 -9.44881e-005,0.000232283 -4.3307e-005,0.000102362 -0.000114173,0.00023622 -0.000200787,0.000413385zm0.0136772 0.00950393c-3.1496e-005,5.90551e-005 -7.08661e-005,0.000110236 -0.00011811,0.000149606 -4.3307e-005,3.937e-005 -0.000110236,7.48031e-005 -0.000192913,0.000110236 -8.26771e-005,2.7559e-005 -0.000181102,5.11811e-005 -0.000299212,6.69291e-005 -0.00011811,1.1811e-005 -0.000255905,2.3622e-005 -0.000417322,2.3622e-005 -0.000173228,0 -0.000307086,-1.1811e-005 -0.000413385,-2.3622e-005 -9.84251e-005,-1.5748e-005 -0.000169291,-3.937e-005 -0.000220472,-6.69291e-005 -5.11811e-005,-3.5433e-005 -7.48031e-005,-7.08661e-005 -7.87401e-005,-0.000110236 0,-3.937e-005 1.9685e-005,-9.05511e-005 4.3307e-005,-0.000149606l0.000673228 -0.00134646c-0.000897637,0.000641732 -0.00170472,0.0011063 -0.00242126,0.00140157 -0.000708661,0.000295275 -0.00135827,0.000444882 -0.00193307,0.000444882 -0.000681102,0 -0.00119685,-0.00011811 -0.00154724,-0.000342519 -0.000346456,-0.000228346 -0.000566929,-0.000531496 -0.000661417,-0.000925196 -9.44881e-005,-0.000385826 -7.08661e-005,-0.000834645 6.29921e-005,-0.00135433 0.000133858,-0.000515748 0.000385826,-0.00114173 0.000751968,-0.00187795l0.00308267 -0.00617322c3.1496e-005,-6.29921e-005 7.08661e-005,-0.000110236 0.00011811,-0.000153543 4.72441e-005,-3.5433e-005 0.000114173,-7.48031e-005 0.000204724,-0.000114173 9.44881e-005,-3.5433e-005 0.000200787,-5.11811e-005 0.000326771,-6.29921e-005 0.000129921,-1.1811e-005 0.000283464,-1.5748e-005 0.000464567,-1.5748e-005 0.000181102,0 0.000326771,3.937e-006 0.000440945,1.5748e-005 0.000114173,1.1811e-005 0.000200787,2.7559e-005 0.000255905,6.29921e-005 5.51181e-005,3.937e-005 8.26771e-005,7.87401e-005 9.44881e-005,0.000114173 1.1811e-005,4.3307e-005 0,9.05511e-005 -2.7559e-005,0.000153543l-0.00296063 0.00592125c-0.000295275,0.000594488 -0.000492126,0.00107087 -0.000586614,0.00143307 -9.44881e-005,0.000358267 -0.000114173,0.000661417 -5.90551e-005,0.000913385 4.72441e-005,0.000255905 0.000177165,0.000448819 0.000377952,0.000582677 0.000204724,0.000145669 0.000484252,0.000216535 0.000846456,0.000216535 0.000468504,0 0.00101575,-0.000169291 0.00164173,-0.000496063 0.000633858,-0.000334645 0.0013622,-0.000822834 0.00220472,-0.00146063l0.00355118 -0.00711023c3.1496e-005,-6.29921e-005 6.69291e-005,-0.000110236 0.00011811,-0.000153543 4.3307e-005,-3.5433e-005 0.000114173,-7.48031e-005 0.000208661,-0.000114173 9.05511e-005,-3.5433e-005 0.00019685,-5.11811e-005 0.00031496,-6.29921e-005 0.000125984,-1.1811e-005 0.000283464,-1.5748e-005 0.000472441,-1.5748e-005 0.000177165,0 0.000326771,3.937e-006 0.000437007,1.5748e-005 0.00011811,1.1811e-005 0.000200787,2.7559e-005 0.000251968,6.29921e-005 5.11811e-005,3.937e-005 8.26771e-005,7.87401e-005 9.84251e-005,0.000114173 1.5748e-005,4.3307e-005 3.937e-006,9.05511e-005 -2.7559e-005,0.000153543l-0.00507874 0.0101732zm0.0128937 0c-3.1496e-005,5.90551e-005 -7.08661e-005,0.000110236 -0.00011811,0.000149606 -5.90551e-005,3.937e-005 -0.000122047,7.48031e-005 -0.000200787,0.000110236 -8.66141e-005,2.7559e-005 -0.000192913,5.11811e-005 -0.000318897,6.69291e-005 -0.000129921,1.1811e-005 -0.000287401,2.3622e-005 -0.000476378,2.3622e-005 -0.000181102,0 -0.000326771,-1.1811e-005 -0.000440945,-2.3622e-005 -0.000114173,-1.5748e-005 -0.000200787,-3.937e-005 -0.000251968,-6.69291e-005 -5.90551e-005,-3.5433e-005 -9.05511e-005,-7.08661e-005 -9.44881e-005,-0.000110236 -7.87401e-006,-3.937e-005 3.937e-006,-9.05511e-005 3.5433e-005,-0.000149606l0.00507874 -0.0101732c2.7559e-005,-5.51181e-005 6.69291e-005,-0.000102362 0.00011811,-0.000145669 4.3307e-005,-4.3307e-005 0.000114173,-8.26771e-005 0.000200787,-0.000114173 8.66141e-005,-2.7559e-005 0.000192913,-5.11811e-005 0.000322834,-6.69291e-005 0.000129921,-1.5748e-005 0.000283464,-1.9685e-005 0.00046063,-1.9685e-005 0.000185039,0 0.000338582,3.937e-006 0.000456693,1.9685e-005 0.000110236,1.5748e-005 0.000192913,3.937e-005 0.000248031,6.69291e-005 5.11811e-005,3.1496e-005 7.87401e-005,7.08661e-005 8.66141e-005,0.000114173 1.1811e-005,4.3307e-005 0,9.05511e-005 -2.3622e-005,0.000145669l-0.00508267 0.0101732zm0.00700787 -0.0136102c-0.000216535,0.000440945 -0.000448819,0.000740157 -0.000688976,0.000897637 -0.000248031,0.00015748 -0.000594488,0.00023622 -0.00103543,0.00023622 -0.000440945,0 -0.00069685,-7.87401e-005 -0.000783464,-0.000232283 -8.26771e-005,-0.00015748 -1.9685e-005,-0.000444882 0.000192913,-0.000874015 0.000220472,-0.000440945 0.000448819,-0.00073622 0.000692913,-0.0008937 0.000248031,-0.00015748 0.000594488,-0.000240157 0.00103543,-0.000240157 0.000437007,0 0.00069685,7.87401e-005 0.000783464,0.000232283 8.66141e-005,0.000153543 1.9685e-005,0.000448819 -0.00019685,0.000874015zm0.0117913 0.0108425c-0.000259842,0.000519685 -0.000586614,0.000980314 -0.000984251,0.00138583 -0.000397637,0.000409448 -0.000842519,0.000751968 -0.00133858,0.0010315 -0.000484252,0.00027559 -0.00101575,0.000488189 -0.00157874,0.000629921 -0.000559055,0.000141732 -0.00112992,0.000220472 -0.00172047,0.000220472 -0.000358267,0 -0.000692913,-3.5433e-005 -0.000992125,-8.66141e-005 -0.000299212,-5.90551e-005 -0.000559055,-0.000133858 -0.000771653,-0.000220472 -0.000220472,-8.26771e-005 -0.0003937,-0.000173228 -0.000531496,-0.000267716 -0.000125984,-9.84251e-005 -0.000220472,-0.000177165 -0.000263779,-0.000255905 -4.72441e-005,-7.48031e-005 -5.11811e-005,-0.000181102 -2.7559e-005,-0.00031496 3.1496e-005,-0.000133858 0.000106299,-0.000322834 0.000224409,-0.000555118 6.69291e-005,-0.000141732 0.000137795,-0.000259842 0.000204724,-0.000362204 6.29921e-005,-9.44881e-005 0.00011811,-0.000173228 0.000173228,-0.00023622 5.11811e-005,-5.90551e-005 0.000110236,-0.000102362 0.000165354,-0.000129921 5.11811e-005,-2.7559e-005 0.000102362,-3.5433e-005 0.00015748,-3.5433e-005 8.26771e-005,0 0.000181102,4.3307e-005 0.000291338,0.000153543 0.000114173,9.84251e-005 0.000255905,0.000208661 0.000429133,0.000326771 0.000181102,0.000122047 0.000401574,0.00023622 0.000681102,0.000334645 0.000267716,0.000102362 0.00061811,0.00015748 0.00103543,0.00015748 0.000318897,0 0.000622047,-3.937e-005 0.000913385,-0.000102362 0.000287401,-7.48031e-005 0.000562992,-0.000173228 0.000818897,-0.000303149 0.000251968,-0.000129921 0.000480315,-0.000299212 0.000681102,-0.0005 0.000204724,-0.000204724 0.000377952,-0.000448819 0.000515748,-0.000728346 0.000141732,-0.000283464 0.000188976,-0.000527559 0.000141732,-0.000720472 -5.11811e-005,-0.00019685 -0.000161417,-0.000370078 -0.000322834,-0.000519685 -0.000165354,-0.000149606 -0.000374015,-0.000287401 -0.000614173,-0.000401574 -0.000240157,-0.000114173 -0.000492126,-0.000240157 -0.000748031,-0.000362204 -0.000255905,-0.000133858 -0.000496063,-0.000279527 -0.000724409,-0.000437007 -0.000220472,-0.000161417 -0.0003937,-0.000358267 -0.000519685,-0.000594488 -0.00011811,-0.000240157 -0.000177165,-0.000515748 -0.000161417,-0.000842519 1.1811e-005,-0.000318897 0.000129921,-0.000708661 0.000362204,-0.00116142 0.00019685,-0.000397637 0.000464567,-0.000779527 0.000803149,-0.00114173 0.000338582,-0.000370078 0.000724409,-0.000688976 0.00117323,-0.000964566 0.000444882,-0.000271653 0.000940944,-0.000492126 0.00148819,-0.000661417 0.000543307,-0.000161417 0.00112992,-0.000248031 0.00174803,-0.000248031 0.000267716,0 0.000527559,2.3622e-005 0.000779527,7.08661e-005 0.000248031,4.3307e-005 0.00046063,9.84251e-005 0.000645669,0.000169291 0.000188976,6.29921e-005 0.000338582,0.000137795 0.000452756,0.000216535 0.00011811,7.87401e-005 0.00019685,0.000145669 0.000244094,0.000212598 4.72441e-005,5.90551e-005 7.48031e-005,0.000110236 7.87401e-005,0.00015748 3.937e-006,4.72441e-005 -3.937e-006,9.44881e-005 -1.9685e-005,0.000153543 -1.1811e-005,5.51181e-005 -4.3307e-005,0.000122047 -7.08661e-005,0.000208661 -2.7559e-005,8.26771e-005 -7.48031e-005,0.000185039 -0.000133858,0.000303149 -6.29921e-005,0.000129921 -0.000129921,0.000240157 -0.000185039,0.000334645 -5.90551e-005,9.44881e-005 -0.000114173,0.000169291 -0.000169291,0.000228346 -5.51181e-005,5.90551e-005 -0.000106299,9.84251e-005 -0.000161417,0.000133858 -5.11811e-005,2.3622e-005 -9.84251e-005,3.937e-005 -0.000141732,3.937e-005 -7.08661e-005,0 -0.000145669,-3.937e-005 -0.00023622,-0.000125984 -9.05511e-005,-7.87401e-005 -0.000208661,-0.000169291 -0.000362204,-0.000267716 -0.00015748,-9.05511e-005 -0.000350393,-0.000181102 -0.000586614,-0.000263779 -0.000232283,-8.26771e-005 -0.000523622,-0.000125984 -0.000877952,-0.000125984 -0.00031496,0 -0.000610236,3.5433e-005 -0.0008937,0.000110236 -0.000271653,7.48031e-005 -0.000523622,0.000173228 -0.000748031,0.000303149 -0.000216535,0.000133858 -0.000413385,0.000291338 -0.000582677,0.000472441 -0.000169291,0.000181102 -0.000303149,0.000374015 -0.000413385,0.000582677 -0.000141732,0.000295275 -0.000192913,0.000543307 -0.000141732,0.000744094 5.11811e-005,0.000200787 0.000161417,0.000370078 0.000326771,0.000519685 0.000161417,0.000153543 0.000370078,0.000287401 0.000614173,0.000413385 0.000255905,0.00011811 0.000503937,0.000240157 0.000767716,0.000370078 0.000251968,0.000133858 0.000496063,0.000271653 0.000728346,0.00043307 0.00023622,0.00015748 0.000417322,0.000342519 0.000547244,0.000574803 0.000122047,0.000224409 0.000185039,0.000496063 0.000169291,0.000811023 -7.87401e-006,0.00031496 -0.000122047,0.00069685 -0.000338582,0.00113386zm0.0203071 -0.00275984c-0.000149606,0.000295275 -0.000326771,0.000503937 -0.00053937,0.000625984 -0.000204724,0.000125984 -0.000401574,0.000188976 -0.000590551,0.000188976l-0.00666929 0c-0.000279527,0.000562992 -0.000476378,0.00107087 -0.000594488,0.00152362 -0.000110236,0.000452756 -0.000114173,0.000838582 -1.1811e-005,0.00116142 0.000102362,0.000326771 0.000318897,0.00057874 0.000653543,0.000748031 0.000338582,0.000177165 0.000807086,0.000259842 0.00142126,0.000259842 0.000484252,0 0.000929133,-3.5433e-005 0.00134646,-0.00011811 0.000413385,-7.87401e-005 0.000787401,-0.000165354 0.00111024,-0.000267716 0.000318897,-9.44881e-005 0.000594488,-0.000185039 0.000811023,-0.000263779 0.000220472,-7.87401e-005 0.000370078,-0.00011811 0.000456693,-0.00011811 5.11811e-005,0 9.84251e-005,1.1811e-005 0.000122047,3.937e-005 2.7559e-005,2.3622e-005 4.3307e-005,6.29921e-005 3.5433e-005,0.00011811 -3.937e-006,5.51181e-005 -1.9685e-005,0.000129921 -5.51181e-005,0.000220472 -3.5433e-005,9.05511e-005 -8.66141e-005,0.000208661 -0.00015748,0.000342519 -4.72441e-005,9.84251e-005 -9.44881e-005,0.000185039 -0.000137795,0.000251968 -4.3307e-005,7.87401e-005 -8.26771e-005,0.000137795 -0.000122047,0.00019685 -4.3307e-005,5.51181e-005 -8.66141e-005,0.000106299 -0.000137795,0.000153543 -4.72441e-005,4.3307e-005 -0.000102362,9.05511e-005 -0.000161417,0.000129921 -6.29921e-005,4.3307e-005 -0.000220472,0.000110236 -0.000472441,0.000200787 -0.000244094,9.44881e-005 -0.000559055,0.000188976 -0.000929133,0.00027559 -0.000366141,9.05511e-005 -0.000783464,0.000173228 -0.00124016,0.000244094 -0.000464567,7.48031e-005 -0.000937007,0.000114173 -0.00142126,0.000114173 -0.000834645,0 -0.00150787,-0.000122047 -0.00202362,-0.000358267 -0.000507874,-0.000232283 -0.000862204,-0.00057874 -0.00106693,-0.00103543 -0.00019685,-0.000456693 -0.00023622,-0.00103543 -0.000106299,-0.00173228 0.000125984,-0.000688976 0.000417322,-0.00149606 0.000877952,-0.00241732 0.000437007,-0.000870078 0.000944881,-0.00165748 0.00151575,-0.00235433 0.000574803,-0.000692913 0.00119685,-0.0012874 0.00187008,-0.00177559 0.000665354,-0.000484252 0.0013622,-0.000858267 0.00209842,-0.00111811 0.000732283,-0.000259842 0.0014685,-0.000389763 0.00221653,-0.000389763 0.000799212,0 0.00141338,0.000125984 0.00184646,0.000385826 0.00043307,0.000251968 0.000720472,0.000602362 0.000866141,0.00103543 0.000149606,0.000429133 0.00015748,0.000937007 3.5433e-005,0.00152362 -0.00011811,0.000586614 -0.000346456,0.00120472 -0.000681102,0.00187008l-0.000165354 0.000338582zm-0.00160236 -0.000551181c0.000511811,-0.000980314 0.000685039,-0.00175197 0.0005,-0.00230708 -0.000173228,-0.000559055 -0.000708661,-0.000838582 -0.0016063,-0.000838582 -0.00046063,0 -0.000909448,9.05511e-005 -0.00133858,0.000263779 -0.00043307,0.000169291 -0.000838582,0.000397637 -0.0012126,0.000685039 -0.000377952,0.000287401 -0.000728346,0.000625984 -0.00104331,0.000999999 -0.00031496,0.000381889 -0.000590551,0.00077559 -0.000811023,0.00119685l0.00551181 0z"/>
   </g>
   <path id="_128675056" class="fil15" d="M2.68066 0.261996l0.0306456 0 -0.0332559 0.120614 0.11865 0 0.033248 -0.120614 0.031433 0 -0.0373267 0.135386c-0.00228346,0.00829527 -0.0109488,0.0150866 -0.0192441,0.0150866l-0.150551 0c-0.00829527,0 -0.0132087,-0.00679133 -0.0109252,-0.0150866l0.0373267 -0.135386zm0.399937 0l0.0298622 0 -0.0414882 0.150472 -0.0298582 0 0.0414842 -0.150472zm-0.201145 0l0.164453 0c0.00829921,0 0.0132165,0.00679133 0.0109291,0.0150866l-0.0167047 0.0605826c-0.0022874,0.00829527 -0.0109449,0.0150827 -0.0192441,0.0150827l-0.134598 0 -0.0164646 0.0597204 -0.0298543 0 0.0243701 -0.0883976 0.149685 0 0.00898818 -0.0326023 -0.149681 0 0.00812204 -0.0294724z"/>
   <polygon id="_187375704" class="fil16" points="3.1615,0.261996 3.19909,0.337228 3.12001,0.412464 3.12898,0.379917 3.17385,0.337228 3.15253,0.294539 "/>
   <polygon id="_187375728" class="fil17" points="3.13626,0.261996 3.17385,0.337228 3.09478,0.412464 "/>
   <g id="_187366128">
    <path id="_187362192" class="fil14" d="M2.63284 0.435948l0.00374015 0 -0.00463779 0.0168189c-0.000688976,0.00249212 -0.000625984,0.00442126 0.00019685,0.00577952 0.000822834,0.0013622 0.00233071,0.00204331 0.00451181,0.00204331 0.0021811,0 0.00404724,-0.000629921 0.00560629,-0.00188583 0.00155118,-0.00124409 0.00264567,-0.00301181 0.00327559,-0.00529133l0.00481496 -0.0174646 0.00374015 0 -0.00474409 0.0172086c-0.000925196,0.00334645 -0.00262598,0.00602362 -0.00509448,0.00803149 -0.00245275,0.00200394 -0.00527952,0.00300787 -0.00846062,0.00300787 -0.00324409,0 -0.00556692,-0.00101968 -0.00696456,-0.00305118 -0.00139764,-0.00203149 -0.00154331,-0.00503543 -0.000448819,-0.00899999l0.00446456 -0.0161968zm0.0277638 -0.00113779l0.0144961 0.0208149 0.005437 -0.0197126 0.00374015 0 -0.00789369 0.0286299 -0.0145275 -0.0207086 -0.00535826 0.0194409 -0.00374015 0 0.00784645 -0.0284645zm0.030185 0.00110236l0.00370078 0 -0.00754724 0.0273622 -0.00369685 0 0.0075433 -0.0273622zm0.0103583 0l0.0151614 0 -0.00102362 0.00372834 -0.0114724 0 -0.00188189 0.00683464 0.0114646 0 -0.00101968 0.00369291 -0.0114291 0 -0.00361417 0.0131063 -0.00372834 0 0.0075433 -0.0273622zm0.0204921 0l0.00369685 0 -0.00754724 0.0273622 -0.00369291 0 0.0075433 -0.0273622zm0.0103583 0l0.0151614 0 -0.00102756 0.00372834 -0.0114685 0 -0.00188189 0.00683464 0.0114646 0 -0.00101968 0.00369291 -0.0114685 0 -0.00259055 0.00940944 0.0114685 0 -0.00102362 0.00369685 -0.0151575 0 0.0075433 -0.0273622zm0.0205827 0l0.00663385 0c0.0052559,0 0.00878346,0.00138583 0.0105748,0.00416535 0.00180315,0.00277559 0.0022126,0.00594488 0.00122441,0.00951574 -0.000988188,0.00359055 -0.00319291,0.00677165 -0.00660236,0.00953542 -0.00341732,0.00276378 -0.00764566,0.00414567 -0.0126929,0.00414567l-0.00667716 0 0.00753936 -0.0273622zm0.00272441 0.00364567l-0.00551574 0.0200197 0.000216535 0c0.00277165,0 0.00490157,-0.000125984 0.00637401,-0.000374015 0.0014685,-0.000248031 0.00295275,-0.000799212 0.00444882,-0.00164173 0.00149606,-0.00085433 0.00280708,-0.00196457 0.00393307,-0.00336614 0.00113386,-0.00138976 0.00192126,-0.00293307 0.00238189,-0.00460236 0.000582677,-0.0021063 0.000515748,-0.00401181 -0.000204724,-0.00572047 -0.000716535,-0.00170472 -0.0018189,-0.00284252 -0.00331102,-0.00343307 -0.00149606,-0.000586614 -0.00363779,-0.000881889 -0.00642913,-0.000881889l-0.0018937 0z"/>
    <path id="_187368816" class="fil14" d="M2.98573 0.435913l0.00370078 0 -0.00754724 0.0273622 -0.00369685 0 0.0075433 -0.0273622zm0.0100118 -0.00110236l0.0144961 0.0208149 0.005437 -0.0197126 0.00373622 0 -0.00789369 0.0286299 -0.0145236 -0.0207086 -0.00535826 0.0194409 -0.00374015 0 0.00784645 -0.0284645zm0.0278228 0.00110236l0.0167323 0 -0.00102756 0.00372834 -0.00652755 0 -0.00651181 0.0236338 -0.00370078 0 0.00651968 -0.0236338 -0.00651574 0 0.0010315 -0.00372834zm0.0208897 0l0.0151614 0 -0.00102756 0.00372834 -0.0114685 0 -0.00188583 0.00683464 0.0114685 0 -0.00101968 0.00369291 -0.0114646 0 -0.00259449 0.00940944 0.0114685 0 -0.00101968 0.00369685 -0.0151614 0 0.0075433 -0.0273622zm0.0203897 0l0.00592519 0c0.00295669,0 0.0051496,0.000732283 0.00659842,0.00220079 0.00145275,0.00146457 0.00186614,0.00333858 0.00123622,0.00563779 -0.000511811,0.00183071 -0.00155905,0.00344882 -0.00314567,0.00485039 -0.00159055,0.00140157 -0.00373622,0.0023937 -0.00644488,0.00296063l0.00474015 0.0117126 -0.00427559 0 -0.0045 -0.0112559 -0.000834645 0 -0.00310236 0.0112559 -0.00374015 0 0.0075433 -0.0273622zm0.00282677 0.00330708l-0.00262992 0.00953542c0.00547637,0.000110236 0.00867322,-0.00148425 0.00958661,-0.00479527 0.000318897,-0.00115748 0.000263779,-0.00210236 -0.000177165,-0.00284645 -0.000440945,-0.00073622 -0.00116142,-0.00123622 -0.00216535,-0.0015 -0.000999999,-0.000263779 -0.00253543,-0.0003937 -0.00461417,-0.0003937zm0.0185315 -0.00330708l0.0151614 0 -0.0010315 0.00372834 -0.0114606 0 -0.00188583 0.00683464 0.0114646 0 -0.00101575 0.00369291 -0.0114291 0 -0.00361417 0.0131063 -0.00373228 0 0.0075433 -0.0273622zm0.0289882 -0.00105905l0.00509842 0.0284212 -0.00390945 0 -0.00127165 -0.00699999 -0.011622 0 -0.0050433 0.00699999 -0.00388582 0 0.0206338 -0.0284212zm-0.0023622 0.00857086l-0.00708267 0.00973228 0.00880708 0 -0.00172441 -0.00973228zm0.0387874 -0.00659055l-0.00116535 0.00422834c-0.0025433,-0.00144882 -0.00505905,-0.00216929 -0.00753936,-0.00216929 -0.0031811,0 -0.00614173,0.0010315 -0.00888188,0.00307874 -0.00274409,0.00205512 -0.00452756,0.00458661 -0.00535039,0.0075748 -0.000842519,0.00305118 -0.000429133,0.00559448 0.00123228,0.00763385 0.00166142,0.00204331 0.00417716,0.00306693 0.00752755,0.00306693 0.00243307,0 0.00522047,-0.000771653 0.0083622,-0.00230315l-0.0011811 0.00427559c-0.00283858,0.0013189 -0.00570472,0.00197638 -0.00859054,0.00197638 -0.00424803,0 -0.00747637,-0.00143307 -0.00968897,-0.00430708 -0.00221653,-0.00287008 -0.00276378,-0.0063307 -0.00164567,-0.0103858 0.00109842,-0.00398031 0.00351575,-0.00738976 0.0072559,-0.0102205 0.00373622,-0.00283464 0.00768897,-0.00425984 0.0118543,-0.00425984 0.00268504,0 0.0052874,0.000602362 0.00781102,0.00181102zm0.00465354 -0.000921259l0.0151575 0 -0.00102362 0.00372834 -0.0114685 0 -0.00188583 0.00683464 0.0114646 0 -0.00101575 0.00369291 -0.0114685 0 -0.00259055 0.00940944 0.0114685 0 -0.00102362 0.00369685 -0.0151614 0 0.00754724 -0.0273622z"/>
    <path id="_187350792" class="fil14" d="M2.79043 0.435815l0.00550393 0c0.0031063,0 0.00540551,0.000720472 0.00690944,0.0021811 0.00150394,0.0014685 0.00193307,0.00335826 0.00129134,0.00570078 -0.000645669,0.00234252 -0.00219685,0.00431496 -0.0046496,0.00590157 -0.00244488,0.00159055 -0.00571653,0.00236614 -0.00979527,0.00232283l-0.0031063 0.0112559 -0.00369685 0 0.0075433 -0.0273622zm0.00279921 0.00325984l-0.00264567 0.00958267c0.00281102,-2.7559e-005 0.00500787,-0.000429133 0.00657086,-0.00119291 0.00156299,-0.000771653 0.00258267,-0.00199606 0.00305118,-0.00368897 0.000346456,-0.00126772 0.000137795,-0.00237401 -0.000629921,-0.00330315 -0.000767716,-0.00093307 -0.00288582,-0.00139764 -0.00634645,-0.00139764zm0.0248031 -0.00431889l0.00509842 0.0284212 -0.00390945 0 -0.00127165 -0.00699999 -0.011622 0 -0.0050433 0.00699999 -0.00388582 0 0.0206338 -0.0284212zm-0.0023622 0.00857086l-0.00708267 0.00973228 0.00880708 0 -0.00172441 -0.00973228zm0.0136417 -0.0075118l0.00414173 0 0.00369291 0.0109961 0.00967322 -0.0109961 0.00414173 0 -0.013059 0.0148149 -0.00346063 0.0125472 -0.00373622 0 0.00344488 -0.0125039 -0.00483858 -0.0148583zm0.0483149 -0.00114567l-0.000389763 0.0285078 -0.0036496 0 0.000267716 -0.0174212 -0.0128858 0.0184764 -0.00268897 -0.0186102 -0.00941731 0.0175551 -0.0036496 0 0.0153386 -0.0285078 0.00294094 0.0204055 0.0141338 -0.0204055zm0.0102362 0.00114567l0.0151653 0 -0.0010315 0.00372834 -0.0114685 0 -0.00188189 0.00683464 0.0114685 0 -0.00101575 0.00369291 -0.0114685 0 -0.00259449 0.00940944 0.0114646 0 -0.00101575 0.00369685 -0.0151614 0 0.00753936 -0.0273622zm0.0191693 -0.00110236l0.0144961 0.0208149 0.00543307 -0.0197126 0.00374409 0 -0.00789369 0.0286299 -0.0145275 -0.0207086 -0.00535826 0.0194409 -0.00374409 0 0.00785039 -0.0284645zm0.0270945 0.00110236l0.0167283 0 -0.00102362 0.00372834 -0.00653149 0 -0.00651181 0.0236338 -0.00369685 0 0.00651968 -0.0236338 -0.00651574 0 0.0010315 -0.00372834zm0.0363346 0.00302362l-0.00369685 0.00242913c-0.000574803,-0.000834645 -0.00112992,-0.00144882 -0.00166535,-0.0018622 -0.000543307,-0.000405511 -0.00142913,-0.000610236 -0.00266142,-0.000610236 -0.00133858,0 -0.00251575,0.000303149 -0.00352756,0.000909448 -0.00100394,0.000606299 -0.00163779,0.0013937 -0.00190551,0.00235433 -0.000224409,0.000830708 -6.29921e-005,0.00156299 0.000488189,0.00220079 0.000559055,0.000633858 0.00161417,0.00133071 0.00316535,0.00208661 0.00155118,0.000748031 0.00273622,0.00145275 0.00353149,0.0021063 0.000803149,0.000653543 0.00140945,0.00137008 0.00182283,0.00215748 0.000417322,0.000791338 0.000653543,0.00161811 0.000724409,0.00249212 6.69291e-005,0.000870078 -3.5433e-005,0.00179527 -0.000303149,0.00276771 -0.000625984,0.00227559 -0.00199212,0.00421653 -0.00408661,0.00582283 -0.00209449,0.0016063 -0.00431889,0.00240551 -0.00666535,0.00240551 -0.00229134,0 -0.00414567,-0.000622047 -0.00555118,-0.00187401 -0.00140551,-0.0012559 -0.00224016,-0.00314173 -0.00249606,-0.00563385l0.00402362 -0.00106299c0.000515748,0.00307874 0.00217323,0.00462204 0.00498031,0.00462204 0.00136614,0 0.0026063,-0.000413385 0.00373228,-0.00122835 0.00112992,-0.000811023 0.00185827,-0.00184252 0.00220472,-0.00309055 0.000204724,-0.000748031 0.000177165,-0.00149606 -8.66141e-005,-0.00224409 -0.000267716,-0.000755905 -0.000685039,-0.00137008 -0.00124409,-0.00186614 -0.000574803,-0.000480315 -0.00153937,-0.00103937 -0.00290945,-0.00166142 -0.00136614,-0.000622047 -0.00238976,-0.00119685 -0.00306693,-0.00172047 -0.000685039,-0.000515748 -0.00122441,-0.00114173 -0.00162205,-0.00186614 -0.000405511,-0.000716535 -0.000645669,-0.00144488 -0.000728346,-0.00215354 -7.87401e-005,-0.000716535 -1.1811e-005,-0.00148031 0.000212598,-0.00230315 0.000543307,-0.00196063 0.0017874,-0.00362992 0.00374803,-0.00501181 0.00195669,-0.00138189 0.00406299,-0.00207874 0.00630314,-0.00207874 0.00149212,0 0.00290945,0.000322834 0.00426771,0.000968503 0.00135433,0.000641732 0.00235827,0.00162598 0.00301181,0.00294488z"/>
   </g>
   <g id="_105526640">
    <path id="_105528296" class="fil18" d="M3.60095 0.289823l-0.0354803 -0.0420472 0 -0.00343307 0.000385826 -0.162405 -0.185224 -0.000248031 -0.00015748 0.184271 0.167815 -7.87401e-006 0.0215433 0.0238819 0.0311181 -1.1811e-005zm-0.196661 -0.0473307l0.125539 0.000102362 -0.0323464 -0.0384527 0.0263976 0.000397637 0.0179134 0.0206142 0.000145669 -0.119516 -0.13763 -5.51181e-005 -1.9685e-005 0.136909zm0.0174094 -0.0169252l0.0162008 0 0 -0.0162047 -0.0162008 0 0 0.0162047zm0.0523661 -0.0341378l0 -0.0521614 -0.0179921 0 0 -0.0162008 0.0342913 0 -9.84251e-005 0.0348307 0.0342086 0 0 0.0162008 -0.0342086 0 3.937e-006 0.0347441 -0.0172323 0 0 0.0174685 -0.0168307 0 0 -0.0348819 0.0178583 0zm-0.0521692 -0.0521653l0.0162008 0 0 -0.0162008 -0.0162008 0 0 0.0162008zm-0.000515748 0.0173307l0.034937 0 0 0.0174212 -0.0181142 0 0 0.0174685 -0.0168228 0 0 -0.0348897zm0.0864172 -0.0173307l0.0162047 0 0 -0.0162008 -0.0162047 0 0 0.0162008z"/>
    <path id="_106547728" class="fil18" d="M3.71804 0.153464c0.00154724,-0.000751968 -0.00116142,-0.000370078 0.00287401,-0.00101575 0.000748031,-0.000114173 0.00290945,-0.000122047 0.0037559,-0.000137795 0.00255905,-2.3622e-005 0.00527165,7.87401e-005 0.00785432,7.87401e-005 0.00495275,0 0.00965747,-5.90551e-005 0.0144173,0.000244094l0.000228346 -0.0213661 -0.0263228 7.08661e-005c-0.0057874,-0.000633858 -0.00200394,-2.3622e-005 -0.00341732,-0.00190551 -0.00435826,-0.0144409 -0.00693306,-0.0167756 -0.0138464,-0.0262441l0.0442401 -3.1496e-005 -7.48031e-005 -0.0222756 -0.142894 -0.000488189 5.90551e-005 0.0229764c0.036311,-0.000913385 0.0768306,-0.00655511 0.0856692,0.0266693l-0.0851023 0.000440945 -0.000476378 0.0226614 0.0856456 -3.1496e-005c-0.00910629,0.0345197 -0.0496023,0.0295315 -0.0858543,0.0282126l0.000133858 0.023122 0.0340157 -0.000177165 0.0555787 0.0812716 0.0293346 -2.3622e-005c-0.00244882,-0.00662992 -0.0497086,-0.0694488 -0.0574763,-0.0827991 0.00727165,-0.00411417 0.0431496,-0.00394882 0.0516574,-0.0492519z"/>
    <path id="_106547752" class="fil19" d="M3.69406 0.0525157c0.00265748,-0.00344094 0.00203149,-0.00338582 0.00619685,-0.00525984 -0.00419291,-0.00983857 0.000901574,-0.00427559 0.00277953,-0.0157874 0.00379527,-0.0232834 -0.0203346,-0.0358779 -0.0390393,-0.0244212 -0.0165157,0.0101142 -0.0143149,0.0467441 0.0197401,0.0428504 0.0107638,-0.00122441 0.00247638,-0.000909448 0.0103228,0.00261811zm-0.0136457 -0.0124803c-0.00224016,-0.0112244 -0.00580708,-0.00210236 0.00409448,-0.011185l0.00554724 0.00374015c0.0043307,-0.0164331 -0.00992913,-0.024437 -0.0193976,-0.0162756 -0.00861023,0.00741338 -0.00553149,0.022996 0.0097559,0.0237205z"/>
    <path id="_106547920" class="fil20" d="M3.37957 0.0498504c0.00789369,-3.937e-005 0.027937,0.000909448 0.0339252,-0.00138189 0.00879527,-0.00335826 0.00999212,-0.0184291 -0.000700787,-0.0219134 0.000267716,-0.000244094 0.000720472,-0.00093307 0.000858267,-0.000685039 0.000925196,0.0016496 0.00560629,-0.00588582 0.00570472,-0.0100669 0.000381889,-0.0167795 -0.0210669,-0.012 -0.0397992,-0.012185l1.1811e-005 0.0462322zm0.0118976 -0.0290275l0.0155 -0.000169291c-0.000338582,-0.00917322 -0.00618503,-0.0071496 -0.0150197,-0.00664173l-0.000480315 0.00681102zm9.05511e-005 0.0182086c0.00613385,0.000547244 0.0117638,0.00102362 0.0161693,-0.00137795 0.000456693,-0.00856692 -0.0080433,-0.00648818 -0.0161417,-0.00584645l-2.7559e-005 0.0072244z"/>
    <path id="_106548136" class="fil20" d="M3.52683 0.0498504l0.011937 -0.000232283 9.84251e-005 -0.0153386c0.00731495,0.000106299 0.0073622,0.000763779 0.0134527,0.0152992l0.0136102 7.48031e-005c-0.00241732,-0.00602362 -0.0062559,-0.0108976 -0.00861023,-0.017311 0.00963385,-0.00325984 0.0119842,-0.0178701 0.00438582,-0.0247126 -0.00692125,-0.0062244 -0.024311,-0.00392913 -0.0349252,-0.00400787l5.11811e-005 0.0462283zm0.0119961 -0.0259449c0.00827558,-2.7559e-005 0.0157992,0.00198031 0.014563,-0.00811023 -0.00471653,-0.00252362 -0.00842125,-0.00195669 -0.0146575,-0.00196063l9.44881e-005 0.0100709z"/>
    <path id="_106548352" class="fil19" d="M3.70959 0.0492952l0.0119094 0.000307086 0.000110236 -0.0153701c0.00631496,0.000114173 0.00758267,-0.00130315 0.0134764,0.0154291l0.013626 0.000216535 -0.00900787 -0.017496c0.0104764,-0.00331102 0.0125433,-0.017996 0.00399606,-0.0250945 -0.00623622,-0.0051811 -0.0241732,-0.00403543 -0.0336693,-0.00347244l-0.000440945 0.0454803zm0.0118937 -0.0261496c0.00714173,0.00183858 0.0147716,0.00266929 0.0149212,-0.00594488 -0.00365748,-0.00415354 -0.0072874,-0.004 -0.0146535,-0.00298031l-0.000267716 0.00892519z"/>
    <path id="_106548544" class="fil20" d="M3.47371 0.0498504c0.0182165,-2.7559e-005 0.0115669,3.937e-006 0.0161693,-0.00645669l0.0155709 -0.000216535c0.0062874,0.00293307 -5.90551e-005,0.00317323 0.00648818,0.00666141l0.0111693 -0.000251968 -0.0148504 -0.0403071c-0.00207086,-0.00505118 -0.00035433,-0.00335826 -0.00411023,-0.00563779l-0.0116772 7.87401e-006c-0.00458661,0.003437 -0.0170079,0.039126 -0.0187598,0.0462007zm0.019 -0.0174724l0.0111693 0.000287401 -0.00516141 -0.0163504 -0.00600787 0.016063z"/>
    <path id="_106548736" class="fil20" d="M3.56817 0.0493464l0.0112362 0.000574803c0.0066496,-0.00370472 -0.000114173,-0.00399606 0.00648425,-0.00673228l0.0155787 7.87401e-005c0.00453149,0.00739763 0.000220472,0.00655905 0.0160354,0.0065748l-0.0169567 -0.0458464c-0.0178346,-0.000551181 -0.0147205,-0.00251968 -0.0192244,0.00996456 -0.00150394,0.00416141 -0.0031063,0.00823228 -0.00465748,0.012252 -0.00283858,0.0073622 -0.0060433,0.0157716 -0.00849606,0.0231338zm0.0187953 -0.0168464l0.0113858 5.90551e-005 -0.00513385 -0.0163189 -0.00625196 0.0162598z"/>
    <path id="_106548928" class="fil20" d="M3.42766 0.0498189l0.0111181 -0.000244094 -1.9685e-005 -0.0184921 0.0194173 0.000248031 3.937e-006 0.0185197 0.0114094 0.000271653 9.44881e-005 -0.0457716 -0.0107677 -6.29921e-005 -0.000389763 0.0165984c-0.00596062,0.00141338 -0.0143425,0.00173622 -0.0201929,-0.000295275l3.5433e-005 -0.016248 -0.0107323 -5.11811e-005 2.3622e-005 0.0455275z"/>
    <polygon id="_106549312" class="fil20" points="3.61422,0.00553149 3.61419,0.0138386 3.6268,0.0138898 3.62726,0.0498543 3.63928,0.0498149 3.63928,0.0139606 3.65231,0.0138071 3.65223,0.00368897 "/>
    <path id="_106549384" class="fil21" d="M3.71804 0.153464l0.0298071 -7.08661e-005 0.000216535 -0.0229842 -0.0306338 -0.000976377c0.00141338,0.00188189 -0.00237008,0.00127165 0.00341732,0.00190551l0.0263228 -7.08661e-005 -0.000228346 0.0213661c-0.00475984,-0.000303149 -0.00946456,-0.000244094 -0.0144173,-0.000244094 -0.00258267,0 -0.00529527,-0.000102362 -0.00785432,-7.87401e-005 -0.000846456,1.5748e-005 -0.00300787,2.3622e-005 -0.0037559,0.000137795 -0.00403543,0.000645669 -0.00132677,0.000263779 -0.00287401,0.00101575z"/>
   </g>
   <g>
    <path id="_128683048" class="fil22" d="M4.047 0.403149l-0.0181811 0 0 -0.0488818c0,-0.00526771 0.00023622,-0.0111024 0.000681102,-0.0174803l-0.000444882 0c-0.000952755,0.00501574 -0.00180709,0.0086181 -0.00256693,0.0108346l-0.0191378 0.0555275 -0.0150472 0 -0.0194803 -0.0549645c-0.000519685,-0.00148031 -0.00138189,-0.00529133 -0.00256693,-0.0113976l-0.000507874 0c0.000488189,0.00805117 0.000740157,0.0151102 0.000740157,0.0211968l0 0.0451653 -0.0165866 0 0 -0.081681 0.0269527 0 0.0167008 0.0484133c0.00132283,0.00387008 0.00229134,0.0077559 0.0028937,0.011685l0.000350393 0c0.00101181,-0.00453149 0.00210236,-0.00845669 0.00325197,-0.0117992l0.0166772 -0.0482992 0.0262716 0 0 0.081681zm0.0437834 -0.0816771l0 0.0142323 -0.00682283 0 0 0.0532165 0.00682283 0 0 0.0142323 -0.032063 0 0 -0.0142323 0.00682677 0 0 -0.0532165 -0.00682677 0 0 -0.0142323 0.032063 0zm0.0702913 0.0787834c-0.00594881,0.00287401 -0.013748,0.00431102 -0.0233543,0.00431102 -0.0125394,0 -0.0223779,-0.00367323 -0.0295512,-0.0110394 -0.00719684,-0.00737401 -0.0107716,-0.0171929 -0.0107716,-0.0294606 0,-0.013063 0.00402362,-0.0236614 0.0120905,-0.0317874 0.00807086,-0.00812991 0.0185512,-0.0121732 0.0314212,-0.0121732 0.00797243,0 0.0147008,0.000992125 0.0201653,0.00301575l0 0.0177126c-0.00546456,-0.00326771 -0.011685,-0.00490157 -0.018685,-0.00490157 -0.00766535,0 -0.0138661,0.00240945 -0.0185709,0.00723228 -0.00470472,0.00482283 -0.00705905,0.0113583 -0.00705905,0.0196023 0,0.00788976 0.00221653,0.0141929 0.00666929,0.0188779 0.00443307,0.00468504 0.0104213,0.00703936 0.0179488,0.00703936 0.00717322,0 0.013748,-0.00175197 0.0196968,-0.00525196l0 0.0168228zm0.0827716 0.0028937l-0.0211338 0 -0.0126968 -0.0210197c-0.000952755,-0.00159055 -0.00187008,-0.00301181 -0.00274409,-0.00427952 -0.000874015,-0.00124016 -0.00175197,-0.00231102 -0.00264567,-0.00320472 -0.000889763,-0.0008937 -0.00182677,-0.0015748 -0.00279527,-0.00205905 -0.00097244,-0.000472441 -0.00202362,-0.000700787 -0.00315354,-0.000700787l-0.00495669 0 0 0.0312638 -0.0184134 0 0 -0.081681 0.0291653 0c0.0198307,0 0.0297519,0.00740551 0.0297519,0.0222008 0,0.0028622 -0.000448819,0.00548425 -0.00132677,0.00789763 -0.000874015,0.00240945 -0.00209842,0.00458661 -0.00369291,0.00653149 -0.00159449,0.0019252 -0.00351968,0.00359449 -0.00577559,0.00499606 -0.00227165,0.00142126 -0.00478346,0.00250787 -0.00756299,0.00330708l0 0.00023622c0.00122441,0.000385826 0.00238976,0.000988188 0.00353937,0.00184252 0.00114567,0.00085433 0.00223622,0.00185433 0.00330708,0.00299606 0.00106693,0.00114961 0.00207874,0.00237401 0.00304724,0.00367716 0.000976377,0.00130315 0.00185039,0.00258267 0.0026496,0.00384645l0.015437 0.0241496zm-0.0501259 -0.0678976l0 0.0227323 0.00797243 0c0.00394882,0 0.0071181,-0.00114961 0.00950787,-0.00342126 0.00242913,-0.00231496 0.00365748,-0.00519685 0.00365748,-0.00859448 0,-0.00715747 -0.00427952,-0.0107165 -0.0128149,-0.0107165l-0.00832283 0zm0.0922755 0.0693149c-0.0117008,0 -0.0212283,-0.00380708 -0.0285984,-0.0114134 -0.00737007,-0.0076181 -0.0110433,-0.0175354 -0.0110433,-0.0297677 0,-0.0129094 0.00373228,-0.0233504 0.0112205,-0.0313189 0.00748031,-0.00797637 0.0173779,-0.0119606 0.0297244,-0.0119606 0.0116653,0 0.0210984,0.00381102 0.0282953,0.0114331 0.00718897,0.00764173 0.0107874,0.0177126 0.0107874,0.0301968 0,0.0128307 -0.00373228,0.0231771 -0.0112008,0.0310512 -0.00744488,0.00785432 -0.017185,0.0117795 -0.029185,0.0117795zm0.000799212 -0.0686338c-0.00645669,0 -0.0115866,0.00240945 -0.0153779,0.0072559 -0.00379527,0.00485826 -0.00570078,0.011252 -0.00570078,0.0192283 0,0.00808661 0.00190551,0.0144803 0.00570078,0.0192086 0.00379134,0.00470472 0.00876771,0.00705905 0.0149094,0.00705905 0.00635826,0 0.0113779,-0.00229527 0.0151102,-0.00686614 0.0037126,-0.00458661 0.00557874,-0.0109252 0.00557874,-0.0190512 0,-0.00848031 -0.00180709,-0.0150709 -0.00540157,-0.0197756 -0.00361811,-0.00470866 -0.00855511,-0.00705905 -0.0148189,-0.00705905z"/>
    <path id="_128683240" class="fil23" d="M4.41924 0.403181l-0.0200433 0 -0.00581496 -0.0181811 -0.0290512 0 -0.00575196 0.0181811 -0.0199527 0 0.0297519 -0.081681 0.0218149 0 0.0290472 0.081681zm-0.0300748 -0.0322952l-0.00877558 -0.0274567c-0.000637795,-0.00206299 -0.0011063,-0.00450787 -0.00137795,-0.00735039l-0.000444882 0c-0.00019685,0.0023937 -0.000661417,0.00476378 -0.00142126,0.0071181l-0.00888582 0.027689 0.0209055 0zm0.0976416 -0.0344173l-0.023311 0 0 0.0667125 -0.0184527 0 0 -0.0667125 -0.0231771 0 0 -0.0149685 0.0649409 0 0 0.0149685zm0.104083 0.0667125l-0.0181811 0 0 -0.0488858c0,-0.00526378 0.00023622,-0.0110984 0.000685039,-0.0174764l-0.000448819 0c-0.000952755,0.00501574 -0.00180709,0.00861417 -0.00256693,0.0108307l-0.0191378 0.0555314 -0.0150472 0 -0.0194803 -0.0549685c-0.000523622,-0.00147638 -0.00138189,-0.00529133 -0.00256693,-0.0113937l-0.000507874 0c0.000488189,0.00805117 0.000740157,0.0151063 0.000740157,0.0211929l0 0.0451693 -0.0165866 0 0 -0.081681 0.0269527 0 0.0167008 0.0484133c0.00132283,0.00387008 0.00229134,0.0077559 0.0028937,0.011685l0.000350393 0c0.00101181,-0.00453149 0.00210236,-0.00845669 0.00325197,-0.0118031l0.0166772 -0.0482952 0.0262716 0 0 0.081681z"/>
   </g>
  </g>
 </g>
</svg>
