<?xml version="1.0" encoding="UTF-8"?>
<!DOCTYPE svg PUBLIC "-//W3C//DTD SVG 1.1//EN" "http://www.w3.org/Graphics/SVG/1.1/DTD/svg11.dtd">
<!-- Creator: CorelDRAW -->
<svg xmlns="http://www.w3.org/2000/svg" xml:space="preserve" width="0.624992in" height="0.624992in" style="shape-rendering:geometricPrecision; text-rendering:geometricPrecision; image-rendering:optimizeQuality; fill-rule:evenodd; clip-rule:evenodd"
viewBox="0 0 0.0904205 0.0904205"
 xmlns:xlink="http://www.w3.org/1999/xlink">
 <defs>
  <style type="text/css">
   <![CDATA[
    .fil0 {fill:#2F4706}
    .fil1 {fill:white}
    .fil2 {fill:white;fill-rule:nonzero}
   ]]>
  </style>
 </defs>
 <g id="Layer_x0020_1">
  <metadata id="CorelCorpID_0Corel-Layer"/>
  <circle class="fil0" cx="0.0452103" cy="0.0452103" r="0.0452103"/>
  <g id="_82486144">
   <path id="_82486240" class="fil1" d="M0.0685946 0.0315795l0.00449403 0.00345567 0.00565199 0.00434764 -0.0043465 0.00565142 -0.016813 0.0218595 -0.00104519 0.00135903 0.00291969 -0.00887926 0.0124819 -0.0162281 -0.000369661 -0.000284223c-0.0015544,-0.00119556 -0.00184887,-0.00344542 -0.000652745,-0.00499982l0.000284223 -0.000369091 -0.00363054 -0.00279268 0.00102582 -0.00312019zm-0.0569147 0.0230169l0.0060433 0.0137908c0.0110716,-0.00732259 0.0155873,-0.00360832 0.0186431,-0.00565997l0.0023091 0.000759257 0.00971029 0.00319252 0.00677351 0.00222765 0.00222708 -0.00677351 0.00861384 -0.0261975 0.00222765 -0.00677351 -0.00677351 -0.00222765 -0.00971029 -0.00319252 -0.00677408 -0.00222708 -0.00222765 0.00677351 -0.00158914 0.00483407c-0.001502,-7.17677e-005 -0.00278356,-2.39226e-005 -0.00447466,6.55023e-005 -0.00234327,0.0001236 -0.00789103,0.00759713 -0.0101455,0.0106774 -0.00409873,0.0056013 -0.0091014,0.00905583 -0.0148531,0.010731zm0.0274284 0.00207272c0.00134308,-0.00129068 0.0036949,-0.00229486 0.00797875,-0.00238257 0.00380141,-0.000306437 0.00308544,-0.0082157 -0.000697172,-0.00829031 -0.00278584,0.000527436 -0.00494058,0.00057642 -0.00618683,-6.26544e-005l0.00548397 -0.0166769 0.000442568 0.000145814c0.00186311,0.000612304 0.00388799,-0.000410671 0.00450029,-0.00227378l0.000145814 -0.000442568 0.00971029 0.00319252 -0.000145814 0.000443137c-0.000611734,0.00186254 0.000410671,0.00388799 0.00227321,0.00450029l0.000443137 0.000145814 -0.00861384 0.0261969 -0.000443137 -0.000145814c-0.00186254,-0.000612304 -0.00388742,0.000410671 -0.00450029,0.00227321l-0.000145814 0.000443137 -0.00971029 -0.00319252 0.000146383 -0.000443137c0.000400988,-0.00122176 9.96774e-005,-0.00251358 -0.000681224,-0.00343061z"/>
   <path id="_82486168" class="fil2" d="M0.0512302 0.0331413l0.00562807 0.00185058 -3.9871e-006 1.19613e-005c-0.000499526,0.000402127 -0.000776345,0.000612304 -0.000830455,0.000633948l-0.0015037 -0.0004944c0.000126448,0.000309285 0.000170876,0.000651605 0.000131005,0.00102127l0.00160167 0.000526866c1.87963e-005,1.02525e-005 2.62009e-005,2.16442e-005 2.22138e-005,3.36055e-005 -0.000536549,0.000421493 -0.000806533,0.000628822 -0.000814507,0.000626544l-0.00104234 -0.00034289c-0.000113347,0.000270553 -0.00035713,0.000559902 -0.000726791,0.000869757 -0.000449403,0.000290488 -0.000838999,0.000445416 -0.0011705,0.000464781 -0.0006311,8.25898e-005 -0.00119727,4.04405e-005 -0.00169679,-0.0001236l-3.41751e-006 1.19613e-005c-1.367e-005,3.9871e-005 0.000674389,0.0017509 0.00206475,0.00513367l-0.00149174 -0.000490413c-0.00135618,-0.00328537 -0.00203285,-0.00493546 -0.00202886,-0.00494742l0.000255174 -0.000776914 2.16442e-005 -2.62009e-005c0.000184546,9.17032e-005 0.000410101,0.000181698 0.000669263,0.000266566 0.00123429,0.000406114 0.00213139,0.000256313 0.00269528,-0.000443707 8.48682e-005,-0.000102525 0.000148092,-0.000214734 0.000189672,-0.000340612l-0.00334745 -0.00110044c-1.59484e-005,-5.12627e-006 -2.10747e-005,-1.59484e-005 -1.6518e-005,-2.96184e-005 0.000548511,-0.000416936 0.000827038,-0.000624265 0.000835012,-0.000621987l0.00265655 0.000873744 2.84793e-006 -1.02525e-005c-5.18322e-005,-0.000359978 -0.000266566,-0.000696033 -0.000647618,-0.00101158 -0.000277958,-0.000204481 -0.000543384,-0.000346877 -0.000792863,-0.000428898l-0.00148548 -0.000488704 9.68295e-006 -3.0188e-005c0.00053484,-0.000414658 0.000808241,-0.000621417 0.000820203,-0.00061743z"/>
  </g>
 </g>
</svg>
