<?xml version="1.0" encoding="UTF-8"?>
<!DOCTYPE svg PUBLIC "-//W3C//DTD SVG 1.1//EN" "http://www.w3.org/Graphics/SVG/1.1/DTD/svg11.dtd">
<!-- Creator: CorelDRAW -->
<svg xmlns="http://www.w3.org/2000/svg" xml:space="preserve" width="0.624992in" height="0.624992in" style="shape-rendering:geometricPrecision; text-rendering:geometricPrecision; image-rendering:optimizeQuality; fill-rule:evenodd; clip-rule:evenodd"
viewBox="0 0 3.25555 3.25555"
 xmlns:xlink="http://www.w3.org/1999/xlink">
 <defs>
  <style type="text/css">
   <![CDATA[
    .fil0 {fill:#2F4706}
    .fil1 {fill:white}
   ]]>
  </style>
 </defs>
 <g id="Layer_x0020_1">
  <metadata id="CorelCorpID_0Corel-Layer"/>
  <circle class="fil0" cx="1.62778" cy="1.62778" r="1.62778"/>
  <path class="fil1" d="M2.27947 0.691847l-0.0121816 0.00406052 -0.00812104 0.00406052 -0.00812104 0.00406052 -0.0121816 0.00406052 -0.00406052 0.00406052 -0.0568473 0.0284236 -0.00406052 0 -0.00406052 0.00406052 -0.00812104 0.00406052 -0.00812104 0.00406052 -0.00406052 0.00406052 -0.00812104 0.00406052 -0.00812104 0.00406052 -0.0121816 0.00406052 -0.00810053 0.00406052 -0.00812104 0.00406052 -0.00814155 0.00406052 -0.00810053 0.00406052 -0.00812104 0.00406052 -0.00812104 0.00406052 -0.00406052 0.00406052 -0.0446657 0.0162421 -0.00406052 0 -0.00812104 0.00406052 -0.00812104 0.00406052 -0.0121816 0.00406052 -0.0121816 0.00406052 -0.0121816 0.00406052 -0.00812104 0.00406052 -0.0121816 0.00406052 -0.00812104 0.00406052 -0.0406052 0.0121816 -0.00406052 0 -0.0121816 0.00406052 -0.0162421 0.00406052 -0.0121816 0.00406052 -0.0162421 0.00406052 -0.0121816 0.00406052 -0.0406052 0.0121816 -0.00812104 0 -0.0203026 0.00406052 -0.0162421 0.00406052 -0.0162421 0.00406052 -0.00812104 0.00406052 -0.0365447 0.00812104 -0.0121816 0 -0.0162421 0.00406052 -0.0203026 0.00406052 -0.0162421 0.00406052 -0.0365447 0.00812104 -0.00406052 0 -0.0203026 0.00406052 -0.0162421 0.00406052 -0.0203026 0.00406052 -0.00812104 0.00406052 -0.0365447 0.00812104 -0.00406052 0 -0.0162421 0.00406052 -0.0162421 0.00406052 -0.0121816 0.00406052 -0.0121816 0.00406052 -0.0121816 0.00406052 -0.0446657 0.0162421 -0.00406052 0 -0.00812104 0.00406052 -0.00812104 0.00406052 -0.00812104 0.00406052 -0.00812104 0.00406052 -0.00812104 0.00406052 -0.00406052 0.00406052 -0.00812104 0.00406052 -0.00406052 0.00406052 -0.00812104 0.00406052 -0.00406052 0.00406052 -0.00406052 0.00406052 -0.00406052 0.00406052 -0.00406052 0.00406052 -0.00406052 0.00406052 -0.00406052 0.00406052 -0.00406052 0.00406052 -0.00406052 0.00406052 -0.00406052 0.00406052 -0.00406052 0.00812104 -0.00406052 0.00406052 -0.00406052 0.00812104 -0.00406052 0.00810053 -0.00406052 0.00814155 -0.00406052 0.00810053 -0.00406052 0.00812104 -0.00406052 0.00812104 -0.00406052 0.00406052 0 0.00406052 -0.0324842 0.0609078 -0.00406052 0.00406052 -0.00406052 0.00812104 -0.00406052 0.00812104 -0.00404001 0.00812104 -0.00406052 0.00812104 -0.00408103 0.00406052 -0.00406052 0.00812104 -0.00406052 0.00812104 -0.00404001 0.00812104 -0.00406052 0.00812104 -0.00406052 0.00812104 -0.00406052 0.00812104 -0.00406052 0.00812104 -0.00406052 0.00812104 -0.00406052 0.00406052 0 0.00406052 -0.0243631 0.0527868 -0.00406052 0.00406052 -0.00406052 0.00812104 -0.00406052 0.00812104 -0.00406052 0.00812104 -0.00406052 0.00812104 -0.00406052 0.0121816 -0.00406052 0.00812104 -0.00406052 0.00812104 -0.00406052 0.0121816 -0.00406052 0.0121816 0 0.00406052 0.0203026 0.00406052 0.0527868 0 0.0284031 0 0.0527868 0 0.0284236 0 0.0527868 0 0.0284236 0 0.0527868 0 0.00406052 -0.00406052 0.00406052 -0.00406052 0.00406052 -0.00812104 0.00406052 -0.00406052 0.00406052 -0.00406052 0.00406052 -0.00406052 0.00406052 -0.00812104 0.00406052 -0.00406052 0.00406052 -0.00406052 0.00406052 -0.00812104 0.00406052 -0.00406052 0.00406052 -0.00812104 0.00406052 -0.00406052 0.00406052 -0.00812104 0.00406052 -0.00406052 0.00406052 -0.00812104 0.00406052 -0.00406052 0.00406052 -0.00812104 0.00406052 -0.00812104 0.00406052 -0.00812104 0.00406052 -0.00812104 0 -0.00812104 0.00812104 0 0.0446657 -0.00406052 0.0324842 -0.00406052 0.00812104 0 0.0203026 -0.00406052 0.0203026 -0.00406052 0.0162421 -0.00406052 0.0365447 -0.00406052 0.00406052 0.00406052 0.00406052 0.00406052 0.00406052 0.00812104 0.00406052 0.00406052 0.00406052 0.00406052 0.00406052 0 0.0162421 0.0162421 0.00406052 0.00406052 0.00406052 0.00406052 0.00406052 0.00406052 0.00406052 0.00406052 0.00406052 0.00406052 0 0.00812104 -0.00406052 0.00406052 -0.00406052 0.00406052 -0.00406052 0.00406052 -0.00406052 0.00406052 -0.00406052 0.00406052 -0.00406052 0.00406052 -0.00406052 0.00406052 -0.00406052 0.00406052 -0.00406052 0.00406052 -0.00406052 0.00406052 -0.00406052 0.00406052 -0.00406052 0.00406052 -0.00406052 0.00406052 -0.00406052 0.00406052 -0.00406052 0.00406052 -0.00406052 0.00406052 -0.00406052 0.00406052 -0.00406052 0.00406052 -0.00406052 0.00406052 -0.00406052 0.00406052 -0.00406052 0.00406052 -0.00406052 0.00406052 -0.00406052 0.00406052 -0.00406052 0.00406052 -0.00406052 0.00406052 -0.00406052 0.00406052 -0.00406052 0.00406052 -0.00406052 0.00406052 -0.00406052 0.00406052 -0.00406052 0.00406052 -0.00406052 0.00406052 -0.00812104 0.00406052 -0.00406052 0.00406052 -0.00812104 0.00406052 -0.00812104 0.00406052 -0.00812104 0.00406052 -0.00812104 0.00406052 -0.00812104 0.00406052 -0.00812104 0.00406052 -0.00812104 0.00406052 -0.00812104 0.00406052 -0.00812104 0.00406052 -0.00812104 0.00406052 -0.00812104 0.00406052 -0.0527868 0.0243631 -0.00406052 0 -0.00406052 0.00406052 -0.00812104 0.00406052 -0.00812104 0.00406052 -0.00406052 0.00406052 -0.00812104 0.00406052 -0.00812104 0.00406052 -0.00812104 0.00406052 -0.00406052 0.00406052 -0.00812104 0.00406052 -0.00406052 0.00406052 -0.00812104 0.00406052 -0.00812104 0.00406052 -0.00406052 0.00406052 -0.00812104 0.00406052 -0.00406052 0.00406052 -0.00812104 0.00406052 -0.00406052 0.00406052 -0.00812104 0.00406052 -0.00406052 0.00406052 -0.00406052 0.00406052 -0.00812104 0.00406052 -0.00406052 0.00406052 -0.00406052 0.00406052 -0.00406052 0.00406052 -0.00406052 0.00406052 -0.00406052 0.00406052 -0.00406052 0.00406052 -0.00406052 0.00406052 -0.00406052 0.00406052 -0.00406052 0.00406052 -0.00406052 0.00406052 -0.00406052 0.00406052 -0.00406052 0.00406052 -0.00406052 0.00406052 -0.00406052 0.00406052 -0.00406052 0.00812104 -0.00406052 0.00406052 -0.00406052 0.00406052 -0.00406052 0.00812104 -0.00406052 0.00406052 -0.00406052 0.00812104 -0.00406052 0.00812104 -0.00406052 0.00406052 -0.00406052 0.00812104 -0.00406052 0.00812104 -0.00406052 0.0121816 -0.00406052 0.00812104 -0.00406052 0.0121816 0 0.00812104 -0.00406052 0.0284236 0.00406052 0.0324842 0.00406052 0.0121816 0.00812104 0.0203026 0.00406052 0.00812104 0.00406052 0.00406052 0.00406052 0.00812104 0.00406052 0.00406052 0.00406052 0.00406052 0.00406052 0.00406052 0.0162421 0.0121816 0.00406052 0.00406052 0.00812104 0.00406052 0.00812104 0.00406052 0.0121816 0.00406052 0.0243631 0.00406052 0.0527868 0 0.0324842 -0.00406052 0.0162421 0 0.0162421 -0.00406052 0.0162421 -0.00406052 0.0121816 -0.00406052 0.00812104 -0.00406052 0.0365447 -0.00812104 0.00406052 0 0.0121816 -0.00406052 0.0121816 -0.00406052 0.0121816 -0.00406052 0.0121816 -0.00406052 0.0121816 -0.00406052 0.0121816 -0.00406052 0.00406052 -0.00406052 0.0527868 -0.0243631 0.00406052 0 0.00406052 -0.00406052 0.00812104 -0.00406052 0.00812104 -0.00406052 0.00812104 -0.00406052 0.00406052 -0.00406052 0.00812104 -0.00406052 0.00812104 -0.00406052 0.00406052 -0.00406052 0.00812104 -0.00406052 0.00406052 -0.00406052 0.00812104 -0.00406052 0.00406052 -0.00406052 0.00812104 -0.00406052 0.00406052 -0.00406052 0.00812104 -0.00406052 0.00406052 -0.00406052 0.00812104 -0.00406052 0.00406052 -0.00406052 0.00812104 -0.00406052 0.00406052 -0.00406052 0.00812104 -0.00406052 0.00406052 -0.00406052 0.00406052 -0.00406052 0.0649683 -0.0365447 0.00406052 0 0.0121816 -0.00406052 0.0162421 -0.00406052 0.0203026 -0.00406052 0.0162421 -0.00406052 0.0365447 -0.00812104 0.0162421 0 0.0203026 -0.00406052 0.0162421 -0.00406052 0.0121816 -0.00406052 0.0365447 -0.00812104 0.00406052 0 0.0121816 -0.00406052 0.0121816 -0.00406052 0.0121816 -0.00406052 0.0121816 -0.00406052 0.00812104 -0.00406052 0.0121816 -0.00406052 0.00812104 -0.00406052 0.0527663 -0.0243631 0.00406052 0 0.00812104 -0.00406052 0.00812104 -0.00406052 0.00406052 -0.00406052 0.00812104 -0.00406052 0.00812104 -0.00406052 0.00406052 -0.00406052 0.00406052 -0.00406052 0.00812104 -0.00406052 0.00406052 -0.00406052 0.00406052 -0.00406052 0.00406052 -0.00406052 0.00812104 -0.00406052 0.00406052 -0.00406052 0.00406052 -0.00406052 0.00406052 -0.00406052 0.00406052 -0.00406052 0.00406052 -0.00812104 0.00406052 -0.00406052 0.00406052 -0.00406052 0.00406052 -0.00406052 0.00406052 -0.00812104 0.00406052 -0.00406052 0.00406052 -0.00812104 0.00406052 -0.00406052 0.00406052 -0.00812104 0.00406052 -0.00812104 0.00406052 -0.00812104 0.00406052 -0.00406052 0 -0.00406052 0.0243631 -0.0527868 0.00406052 -0.00406052 0.00406052 -0.00812104 0.00406052 -0.00812104 0.00406052 -0.00406052 0.00406052 -0.00812104 0.00406052 -0.00812104 0.00406052 -0.00406052 0.00406052 -0.00812104 0.00406052 -0.00406052 0.00406052 -0.00812104 0.00406052 -0.00406052 0.00406052 -0.00812104 0.00406052 -0.00406052 0.00406052 -0.00406052 0.00406052 -0.00812104 0.00406052 -0.00406052 0.00406052 -0.00406052 0.00406052 -0.00812104 0.00406052 -0.00406052 0.00406052 -0.00406052 0.00406052 -0.00406052 0.00406052 -0.00406052 0.00406052 -0.00812104 0.00406052 -0.00406052 0.00406052 -0.00406052 0.00406052 -0.00406052 0.00406052 -0.00406052 0.00406052 -0.00406052 0.00406052 -0.00406052 0.00406052 -0.00406052 0.00812104 -0.00406052 0.00406052 -0.00406052 0.00406052 -0.00406052 0.00406052 -0.00406052 0.00812104 -0.00406052 0.00406052 -0.00406052 0.00406052 -0.00406052 0.00812104 -0.00406052 0.00406052 -0.00406052 0.00812104 -0.00406052 0.00406052 -0.00406052 0.00812104 -0.00406052 0.00812104 -0.00406052 0.00812104 -0.00406052 0.00406052 -0.00406052 0.00812104 -0.00406052 0.00812104 -0.00406052 0.00812104 -0.00406052 0.00406052 -0.00406052 0.00406052 -0.00406052 0.0162421 -0.0162421 0.00406052 -0.00406052 0.00406052 -0.00812104 0.00406052 -0.0162421 0 -0.0365447 0 -0.0284236 0 -0.0162421 -0.00406052 -0.0202821 -0.00406052 -0.00812104 -0.00406052 -0.0243631 0 -0.00406052 -0.00406052 -0.0121816 -0.00406052 -0.0121816 -0.00406052 -0.0121816 -0.00812104 -0.0203026 0 -0.00406052 -0.00406052 -0.0121816 -0.00406052 -0.00812104 -0.00406052 -0.0121816 -0.0121816 -0.0203026 0 -0.00406052 -0.00406052 -0.0121816 -0.00406052 -0.00812104 -0.00406052 -0.00812104 -0.00406052 -0.00406052 -0.0121816 -0.0203026 0 -0.00406052 -0.00406052 -0.00812104 -0.00406052 -0.00812104 -0.00406052 -0.00812104 -0.00406052 -0.00406052 -0.0121816 -0.0162421 0 -0.00406052 -0.00406052 -0.00812104 -0.00406052 -0.00406052 -0.00406052 -0.00812104 -0.00406052 -0.00406052 -0.00406052 -0.00406052 -0.0121816 -0.0162421 0 -0.00406052 -0.00406052 -0.00406052 -0.00406052 -0.00406052 -0.00406052 -0.00406052 -0.00406052 -0.00812104 -0.00406052 -0.00406052 -0.0162421 -0.0162421 -0.00406052 -0.00406052 -0.00406052 -0.00406052 -0.00406052 -0.00406052 -0.00406052 -0.00406052 -0.00406052 -0.00406052 -0.00812104 -0.00406052 -0.0162421 -0.0121816 -0.00406052 -0.00406052 -0.00812104 -0.00406052 -0.00812104 -0.00406052 -0.0121816 -0.00406052 -0.0284236 0 -0.0203026 0 -0.0121816 0.00406052zm-0.203006 1.68914l-0.00406052 0.00406052 -0.00406052 0.00406052 -0.00406052 0.00406052 -0.00406052 0.00406052 -0.00406052 0.00406052 -0.00406052 0.00406052 -0.00406052 0.00406052 -0.00406052 0.00406052 -0.00406052 0.00406052 -0.00406052 0.00406052 -0.00406052 0.00406052 -0.00406052 0.00406052 -0.00812104 0.00406052 -0.0487263 0.00406052 -0.0284236 0 -0.0527868 0 -0.0284236 0 -0.0527868 0 -0.0284236 0 -0.0527868 0 -0.0284236 0 -0.0527868 0 -0.0284236 0 -0.0527868 0 -0.0284236 0 -0.0527868 0 -0.0284236 0 -0.0527868 0 -0.0284236 0 -0.0527868 0 -0.0284236 0 -0.0527868 0 -0.0284236 0 -0.0527663 0 -0.0284236 0 -0.0527868 0 -0.0284236 0 -0.0527868 0 -0.0284236 0 -0.0527868 0 -0.0284236 0 -0.0365447 -0.00406052 -0.0121816 0 -0.0203026 -0.00812104 -0.00406052 -0.00406052 -0.00406052 -0.00406052 -0.00406052 -0.00406052 -0.00406052 -0.00406052 -0.00406052 -0.00812104 -0.00406052 -0.00812104 -0.00812104 -0.0203026 0.00406052 -0.0527868 0.00406052 -0.00406052 0.00406052 -0.00406052 0.0527868 -0.00406052 0.0284236 0 0.0527868 0 0.0284236 0 0.0527868 0 0.0284236 0 0.0527868 0 0.0284236 0 0.0527663 0 0.0284236 0 0.0527868 0 0.0284236 0 0.0527868 0 0.0284236 0 0.0527868 0 0.0284236 0 0.0527868 0 0.0284236 0 0.0527868 0 0.0284236 0 0.0527868 0 0.0284236 0 0.0527868 0 0.0284236 0 0.0527868 0 0.0284236 0 0.0527868 0 0.0284236 0 0.0527868 0 0.0284236 0 0.0527868 0 0.0162421 0 0 0.0162421 -0.00406052 0.0487263 -0.00406052 0.00812104zm-1.2831 -0.848628l-0.0121816 0.00406052 -0.0121816 0.00406052 -0.00812104 0.00406052 -0.00812104 0.00406052 -0.00406052 0.00406052 -0.00812104 0.00406052 -0.00406052 0.00406052 -0.00406052 0.00406052 -0.0406052 0.0406052 -0.00406052 0.00406052 -0.00406052 0.00406052 -0.00406052 0.00812104 -0.00406052 0.00406052 -0.00406052 0.00812104 -0.00406052 0.00812104 -0.00406052 0.0121816 -0.00406052 0.0121816 -0.00406052 0.0162421 0 0.0121816 0 0.0284236 0 0.0527868 0 0.0284236 0 0.0527868 0 0.0284236 0 0.0527868 0 0.0284236 0 0.0527868 0 0.0284236 0 0.0527663 0 0.0284236 0 0.0527868 0 0.0284236 0 0.0527868 0 0.0284236 0 0.0527868 0 0.0284236 0 0.0406052 0.00406052 0.00812104 0.00406052 0.0203026 0.00406052 0.0121816 0.00406052 0.00812104 0.00406052 0.00812104 0.00406052 0.00406052 0.00406052 0.00406052 0.00812104 0.0162421 0.00406052 0.00406052 0.00406052 0.00406052 0.00406052 0.00406052 0.00406052 0.00406052 0.00406052 0.00406052 0.00406052 0.00406052 0.00406052 0.00406052 0.0162421 0.0121816 0.00406052 0.00406052 0.00812104 0.00406052 0.00406052 0.00406052 0.00812104 0.00406052 0.00812104 0 0.0203026 0.00812104 0.00406052 0.00406052 0.0162421 0.00406052 0.0243631 0 0.0284236 0 0.0527868 0 0.0284236 0 0.0527868 0 0.0284236 0 0.0527868 0 0.0284236 0 0.0527868 0 0.0284031 0 0.0527868 0 0.0284236 0 0.0527868 0 0.0284236 0 0.0527868 0 0.0284236 0 0.0527868 0 0.0284236 0 0.0527868 0 0.0284236 0 0.0527868 0 0.0284236 0 0.0527868 0 0.0284236 0 0.0527868 0 0.0284236 0 0.0527868 0 0.0284236 0 0.0527868 0 0.0284236 0 0.0527868 0 0.0365447 -0.00812104 0.00406052 0 0.00812104 -0.00406052 0.00812104 -0.00406052 0.00810053 -0.00406052 0.00406052 -0.00406052 0.00814155 -0.00406052 0.00404001 -0.00406052 0.00812104 -0.00406052 0.00406052 -0.00406052 0.00406052 -0.00406052 0.00406052 -0.00406052 0.00406052 -0.00406052 0.00406052 -0.00406052 0.00406052 -0.00406052 0.00406052 -0.00406052 0.00406052 -0.00406052 0.00406052 -0.00406052 0.00406052 -0.00812104 0.00406052 -0.00406052 0.00406052 -0.00812104 0.00406052 -0.00406052 0.00406052 -0.00812104 0.00406052 -0.00812104 0.00406052 -0.00812104 0 -0.00406052 0.00812104 -0.0365447 0 -0.0527868 0 -0.0284236 0 -0.0527868 0 -0.0284236 0 -0.0527868 0 -0.0284236 0 -0.0527868 0 -0.0284236 0 -0.0527663 0 -0.0284236 0 -0.0527868 0 -0.0284236 0 -0.0527868 0 -0.0284236 0 -0.0527868 0 -0.0284236 0 -0.0365447 -0.00406052 0 -0.00406052 0.00406052 -0.00812104 0.00406052 -0.00812104 0.00406052 -0.00406052 0.00406052 -0.0527868 0.0243631 -0.00404001 0 -0.00814155 0.00406052 -0.0121611 0.00406052 -0.00812104 0.00406052 -0.0121816 0.00406052 -0.00406052 0.00406052 0 0.0284236 0 0.0284236 0 0.0527868 0 0.0284236 0 0.0527868 0 0.0284236 0 0.0527868 0 0.0284031 0 0.0324842 -0.0324842 0 -0.0284236 0 -0.0527868 0 -0.0284236 0 -0.0527868 0 -0.0284236 0 -0.0527868 0 -0.0284236 0 -0.0527868 0 -0.0284236 0 -0.0527868 0 -0.0284236 0 -0.0527868 0 -0.0284236 0 -0.0527868 0 -0.0284236 0 -0.0527868 0 -0.0284236 0 -0.0527868 0 -0.0284236 0 -0.0527868 0 -0.0284236 0 -0.0527663 0 -0.0284236 0 -0.0527868 0 -0.0284236 0 -0.0527868 0 -0.0284236 0 -0.0527868 0 -0.0284236 0 -0.0527868 0 -0.0284236 0 -0.0203026 0 0 -0.0365242 0 -0.0284236 0 -0.0527868 0 -0.0284236 0 -0.0527868 0 -0.0284236 0 -0.0527868 0 -0.0284236 0 -0.0527868 0.00406052 -0.0324842 0.00406052 -0.0162421 0.00406052 -0.00812104 0.00406052 -0.00812104 0.00406052 -0.00406052 0.00406052 -0.00406052 0.00406052 -0.00406052 0.00812104 -0.00406052 0.00812104 -0.00406052 0.0162421 -0.00406052 0.0324842 -0.00406052 0.0527868 0 0.0284236 0 0.0527868 0 0.0284236 0 0.0527868 0 0.0284236 0 0.0527663 0 0.0284236 0 0.00812104 0 0.00406052 -0.00406052 0.00406052 -0.00406052 0.00406052 -0.00406052 0.00406052 -0.00406052 0.00406052 -0.00406052 0.00812104 -0.00406052 0.00406052 -0.00406052 0.00406052 -0.00406052 0.00406052 -0.00406052 0.00812104 -0.00406052 0.00406052 -0.00406052 0.00406052 -0.00406052 0.00812104 -0.00406052 0.00406052 -0.00406052 0.00812104 -0.00406052 0.00406052 -0.00406052 0.00812104 -0.00406052 0.00406052 -0.00406052 0.00812104 -0.00406052 0.00812104 -0.00406052 0.00406052 -0.00406052 0.00812104 -0.00406052 0.00812104 -0.00406052 0.00406052 -0.00406052 0.00812104 -0.00406052 0.00812104 -0.00406052 0.00406052 -0.00406052 0.0315408 -0.0179032 -0.00717769 -0.0023994 -0.0527868 0 -0.0284236 0 -0.0527868 0 -0.0284236 0 -0.0527868 0 -0.0284236 0 -0.0527663 0 -0.0284236 0 -0.0527868 0 -0.0284236 0 -0.0527868 0 -0.0284236 0 -0.0527868 0 -0.0284236 0 -0.0121816 0 -0.0162421 0.00406052z"/>
 </g>
</svg>
