<?xml version="1.0" encoding="UTF-8"?>
<!DOCTYPE svg PUBLIC "-//W3C//DTD SVG 1.1//EN" "http://www.w3.org/Graphics/SVG/1.1/DTD/svg11.dtd">
<!-- Creator: CorelDRAW -->
<svg xmlns="http://www.w3.org/2000/svg" xml:space="preserve" width="0.624992in" height="0.624992in" style="shape-rendering:geometricPrecision; text-rendering:geometricPrecision; image-rendering:optimizeQuality; fill-rule:evenodd; clip-rule:evenodd"
viewBox="0 0 0.256986 0.256986"
 xmlns:xlink="http://www.w3.org/1999/xlink">
 <defs>
  <style type="text/css">
   <![CDATA[
    .fil0 {fill:#2F4706}
    .fil1 {fill:white}
   ]]>
  </style>
 </defs>
 <g id="Layer_x0020_1">
  <metadata id="CorelCorpID_0Corel-Layer"/>
  <circle class="fil0" cx="0.128493" cy="0.128493" r="0.128493"/>
  <path class="fil1" d="M0.0878799 0.0605395l0.0249527 0 0 -0.00205754c0,-0.00880159 0.00652713,-0.0160038 0.0145064,-0.0160038l0.00276335 0c0.00797922,0 0.014508,0.00720218 0.014508,0.0160038l0 0.00205754 0.0251809 0c0.00205592,0 0.00373788,0.00168197 0.00373788,0.00373788l0 0.0174429c0,0.00205592 -0.00168197,0.00373788 -0.00373788,0.00373788l-0.0819113 0c-0.00205592,0 -0.00373788,-0.00168197 -0.00373788,-0.00373788l0 -0.0174429c0,-0.00205592 0.00168197,-0.00373788 0.00373788,-0.00373788zm-0.00539557 0.145261l0.00672463 0.00112347c-0.000867694,0.00246548 -0.00222751,0.00434009 -0.00409564,0.00562706 -0.00185842,0.00129345 -0.00419277,0.00193289 -0.00699497,0.00193289 -0.00443236,0 -0.00770888,-0.00144076 -0.00983764,-0.00434171 -0.00168035,-0.00231817 -0.00252376,-0.00524987 -0.00252376,-0.00878054 0,-0.00422677 0.00110566,-0.00753728 0.00331861,-0.0099283 0.00220323,-0.00239263 0.00499572,-0.00358895 0.00837098,-0.00358895 0.00379292,0 0.00678291,0.00125459 0.00897804,0.00376055 0.00218704,0.00250595 0.00323604,0.00634096 0.00314539,0.0115099l-0.016899 0c4.8565e-005,0.00199764 0.000589255,0.00355495 0.00163016,0.00466062 0.00104091,0.00111376 0.00234245,0.00167063 0.00389005,0.00167063 0.0010571,0 0.0019426,-0.000286533 0.00266298,-0.0008596 0.00072038,-0.000581161 0.00126916,-0.00150713 0.00163016,-0.00278601zm0.000385282 -0.00681528c-5.01838e-005,-0.00195717 -0.000548784,-0.00344002 -0.00150713,-0.00445664 -0.000958348,-0.00101501 -0.00213038,-0.00152332 -0.00350639,-0.00152332 -0.00147476,0 -0.00268726,0.00054069 -0.00364561,0.00161398 -0.000958348,0.00106519 -0.00143267,0.00252376 -0.00141648,0.00436599l0.0100756 0zm0.0123355 0.0149256l0 -0.0351837 0.00710343 0 0 0.0156217 0.0143509 -0.0156217 0.00955111 0 -0.0132453 0.013705 0.0139673 0.0214787 -0.00919173 0 -0.00966604 -0.0165137 -0.00576628 0.00588122 0 0.0106325 -0.00710343 0zm0.0446361 0l0 -0.0148107 -0.0128843 -0.020373 0.00833051 0 0.00828194 0.0139187 0.00810873 -0.0139187 0.0081832 0 -0.0129345 0.0204216 0 0.0147621 -0.00708563 0zm0.0460622 -0.0129345l0.00688004 0.00217895c-0.00105548,0.00384149 -0.00280867,0.00669225 -0.00526606,0.00856038 -0.00244929,0.00185842 -0.0055704,0.00279248 -0.00934714,0.00279248 -0.00466871,0 -0.00851182,-0.00159617 -0.011518,-0.00478365 -0.00300617,-0.00319396 -0.0045133,-0.00755994 -0.0045133,-0.0130899 0,-0.00585693 0.00151523,-0.0104026 0.0045392,-0.0136468 0.00302236,-0.00323604 0.00699497,-0.00485811 0.0119259,-0.00485811 0.00430124,0 0.00779791,0.00126916 0.0104852,0.00381721 0.00160588,0.00149904 0.0028022,0.0036618 0.00360514,0.00648018l-0.00703706 0.00167873c-0.000409564,-0.00182604 -0.00127726,-0.00326842 -0.0026047,-0.00432552 -0.00131935,-0.0010571 -0.00292523,-0.00157998 -0.00480955,-0.00157998 -0.0026047,0 -0.00472537,0.000932447 -0.00634744,0.00280867 -0.00162207,0.00186813 -0.0024331,0.00489859 -0.0024331,0.00909298 0,0.00444855 0.000794846,0.00761822 0.00240073,0.00950254 0.00159617,0.00189241 0.00367799,0.00283457 0.0062325,0.00283457 0.00189241,0 0.00351448,-0.000598968 0.0048743,-0.00180338 0.00135982,-0.0011947 0.00233436,-0.00308711 0.00293332,-0.00565944zm-0.0937611 -0.132893l0 0.00983117 0.0733849 0 0 -0.00983117 -0.0240138 -6.47533e-006c-0.00233921,1.13318e-005 -0.00342545,-0.00111538 -0.00325871,-0.00338012l0 -0.0062147c0,-0.00528063 -0.00391757,-0.00960129 -0.00870446,-0.00960129l-0.00165768 0c-0.0047885,0 -0.00870446,0.00432066 -0.00870446,0.00960129l0 0.00695612c0.000161883,0.00220971 -0.000927591,0.00309197 -0.00327166,0.00264679l-0.0237742 -1.61883e-006zm0.036809 -0.0120198c0.00136791,0 0.00247681,0.0011089 0.00247681,0.00247681 0,0.00136629 -0.0011089,0.00247519 -0.00247681,0.00247519 -0.00136629,0 -0.00247681,-0.0011089 -0.00247681,-0.00247519 0,-0.00136791 0.00111052,-0.00247681 0.00247681,-0.00247681zm0 -0.00443884c0.00381882,0 0.00691565,0.00309683 0.00691565,0.00691565 0,0.00381882 -0.00309683,0.00691565 -0.00691565,0.00691565 -0.00381882,0 -0.00691565,-0.00309683 -0.00691565,-0.00691565 0,-0.00381882 0.00309683,-0.00691565 0.00691565,-0.00691565zm-0.0704823 0.0192026l0.0229275 0 0 0.00685737 -0.0198873 0 0 0.0809303 0.133966 0 0 -0.0809303 -0.0193709 0 0 -0.00685737 0.0224111 0c0.00260308,0 0.00473346,0.00213038 0.00473346,0.00473185l0 0.0851813c0,0.00260308 -0.00213038,0.00473185 -0.00473346,0.00473185l-0.140047 0c-0.00260308,0 -0.00473346,-0.00212876 -0.00473346,-0.00473185l0 -0.0851813c0,-0.00260308 0.00213038,-0.00473185 0.00473346,-0.00473185zm0.0694511 0.0302916l0.0620693 0 0 0.00765869 -0.0620693 0 0 -0.00765869zm0 0.013493l0.0620693 0 0 0.00765869 -0.0620693 0 0 -0.00765869zm0 0.0139527l0.0620693 0 0 0.00765869 -0.0620693 0 0 -0.00765869zm0 0.0134946l0.0620693 0 0 0.00765869 -0.0620693 0 0 -0.00765869zm-0.0572208 0.0140401l0.0488321 0c0.00153303,0 0.00306283,-0.00127888 0.00278925,-0.00278763l-0.00262898 -0.0144724c-0.000160264,-0.00348534 -0.0107474,-0.00891329 -0.0177181,-0.0106309 -0.00329756,0.00596378 -0.00880159,0.0073754 -0.0126884,0 -0.00926619,0.00224046 -0.0183705,0.00773802 -0.018861,0.0106309l-0.00251405 0.0144707c-0.000262251,0.00151199 0.00125459,0.00278925 0.00278925,0.00278925zm0.0313875 -0.0597236c0.00874817,-0.000437085 0.00931961,0.00669711 0.00708725,0.0157156 -0.00201383,0.011484 -0.00686223,0.0171321 -0.0140596,0.0179464 -0.00748062,-0.00157512 -0.0135593,-0.00595406 -0.014631,-0.0203471 -0.00440808,-0.011832 0.0150746,-0.0219643 0.0216033,-0.0133149zm-0.00217733 0.0101501c0.00403737,-0.000200735 0.00310168,0.00508961 0.0020721,0.00925324 -0.000930828,0.00530006 -0.00316805,0.00790799 -0.0064899,0.00828356 -0.00345297,-0.000726856 -0.0062584,-0.00274878 -0.00675377,-0.00939246 -0.00254804,-0.00894405 0.00735759,-0.00471566 0.0111716,-0.00814434z"/>
 </g>
</svg>
