<?xml version="1.0" encoding="UTF-8"?>
<!DOCTYPE svg PUBLIC "-//W3C//DTD SVG 1.1//EN" "http://www.w3.org/Graphics/SVG/1.1/DTD/svg11.dtd">
<!-- Creator: CorelDRAW -->
<svg xmlns="http://www.w3.org/2000/svg" xml:space="preserve" width="0.624992in" height="0.624992in" style="shape-rendering:geometricPrecision; text-rendering:geometricPrecision; image-rendering:optimizeQuality; fill-rule:evenodd; clip-rule:evenodd"
viewBox="0 0 0.133773 0.133773"
 xmlns:xlink="http://www.w3.org/1999/xlink">
 <defs>
  <style type="text/css">
   <![CDATA[
    .fil0 {fill:#2F4706}
    .fil1 {fill:white}
   ]]>
  </style>
 </defs>
 <g id="Layer_x0020_1">
  <metadata id="CorelCorpID_0Corel-Layer"/>
  <circle class="fil0" cx="0.0668865" cy="0.0668865" r="0.0668865"/>
  <path class="fil1" d="M0.0904949 0.0261432l-0.00152356 0.000380889 -0.00152271 0.000380889 -0.00114267 0.000380889 -0.00152271 0.000380047 -0.00152356 0.000380889 -0.000760936 0.000380889 0 0.000380889 0.000380047 0.000380889 0.000380889 0.000380889 0.000380889 0.000380889 0.000380889 0.000380047 0.000380889 0.000380889 0.000380889 0.000380889 0 0.000380889 -0.000380889 0.000380889 -0.000380889 0.000380889 -0.000380889 0.000380889 -0.000380889 0.000380889 -0.000380889 0.000380889 -0.000380047 0.000380047 -0.000380889 0.000380889 -0.000380889 0.000380889 -0.000380889 0.000380889 -0.000380889 0.000380889 -0.000380889 0.000380889 -0.000380889 0.000380889 -0.000380047 0.000380047 -0.000380889 0.000380889 -0.000380889 0.000380889 -0.000380889 0.000380889 -0.000380889 0.000380889 -0.000380889 0.000380889 -0.000380889 0.000380889 -0.000380889 0.000380889 -0.000380889 0.000380047 -0.000380047 0.000380889 -0.000380889 0.000380889 -0.000380889 0.000380889 -0.000380889 0.000380889 -0.000380889 0.000380889 -0.000380889 0.000380889 -0.000380889 0.000380047 -0.000380047 0.000380889 -0.000380889 0.000380889 -0.000380889 0.000380889 -0.000380889 0.000380889 -0.000380889 0.000380889 -0.000380889 0.000380889 -0.000380889 0.000380889 -0.000380047 0.000380889 -0.000380889 0.000380047 -0.000380889 0.000380889 -0.000380889 0.000380889 -0.000380889 0.000380889 -0.000380889 0.000380889 -0.000380889 0.000380889 -0.000380889 0.000380889 -0.000380047 0.000380047 -0.000380889 0.000380889 -0.000380889 0.000380889 -0.000380889 0.000380889 -0.000380889 0.000380889 -0.000380889 0.000380889 -0.000380889 0.000380889 -0.000760936 0 -0.000380889 -0.000380889 -0.000380889 -0.000380889 -0.000380889 -0.000380889 -0.000380889 -0.000380889 -0.000380889 -0.000380889 -0.000380889 -0.000380889 -0.000380889 -0.000380047 -0.000380047 -0.000380889 -0.000380889 -0.000380889 -0.000380889 -0.000380889 -0.000380889 -0.000380889 -0.000380889 -0.000380889 -0.000380889 -0.000380889 -0.000380889 -0.000380047 -0.000380047 -0.000380889 -0.000380889 -0.000380889 -0.000380889 -0.000380889 -0.000380889 -0.000380889 -0.000380889 -0.000380889 -0.000380889 -0.000380889 -0.000380889 -0.000380889 -0.000380889 -0.000380889 -0.000380047 -0.000380047 -0.000380889 -0.000380889 -0.000380889 -0.000380889 -0.000380889 -0.000380889 -0.000380889 -0.000380889 -0.000380889 -0.000380889 -0.000761779 0 -0.000380047 0.000380889 -0.000380889 0.000380889 -0.000380889 0.000380889 -0.000380889 0.000380889 -0.000380889 0.000380889 -0.000380889 0.000380047 -0.000380889 0.000380889 -0.000380889 0.000380889 -0.000380047 0.000380889 -0.000380889 0.000380889 -0.000380889 0.000380889 -0.000380889 0.000380889 -0.000380889 0.000380889 -0.000380889 0.000380889 -0.000380889 0.000380047 -0.000380047 0.000380889 -0.000380889 0.000380889 -0.000380889 0.000380889 -0.000380889 0.000380889 -0.000380889 0.000380889 -0.000380889 0.000380889 -0.000380889 0.000380047 -0.000380889 0.000380889 -0.000380047 0.000380889 -0.000380889 0.000380889 -0.000380889 0.000380889 -0.000380889 0.000380889 -0.000380889 0.000380889 -0.000380889 0.000380889 -0.000380889 0.000380047 -0.000380889 0.000380889 -0.000380047 0.000380889 -0.000380889 0.000380889 -0.000380889 0.000380889 -0.000380889 0.000380889 -0.000380889 0.000380889 -0.000380889 0.000380047 -0.000380889 0.000380889 -0.000380889 0.000380889 -0.000380047 0.000380889 -0.000380889 0.000380889 -0.000380889 0.000380889 -0.000380889 0.000380889 -0.000380889 0.000380889 -0.000380889 0.000380889 -0.000380889 0.000380047 -0.000380047 0.000380889 -0.000380889 0.000380889 -0.000380889 0.000380889 -0.000380889 0.000380889 -0.000380889 0.000380889 -0.000380889 0.000380889 -0.000380889 0.000380047 -0.000380889 0.000380889 -0.000380047 0.000380889 -0.000380889 0.000380889 0 0.000380889 0.000380889 0.000380889 0.000380047 0.000380889 0.000380889 0.000380047 0.000380889 0.000380889 0.000380889 0.000761779 0.00114267 0 0.000380889 -0.000761779 0.000380047 -0.000380889 0.000380889 -0.000380047 0.000380889 -0.000380889 0.000380889 -0.000380889 0.000380889 -0.000380889 0.000380889 -0.000380889 0.000380889 -0.000380889 0.000380047 -0.000380889 0.000380889 -0.000380047 0.000380889 -0.000380889 0.000380889 -0.000380889 0.000380889 -0.000380889 0.000380889 -0.000380889 0.000380889 -0.000380889 0.000380889 -0.000380889 0.000380047 -0.000380047 0.000380889 -0.000380889 0.000380889 -0.000380889 0.000380889 -0.000380889 0.000380889 -0.000380889 0.000380889 -0.000380889 0.000380889 -0.000380889 0.000380889 -0.000380889 0.000380047 -0.000380889 0.000380889 -0.000380047 0.000380889 -0.000380889 0.000380889 -0.000380889 0.000380889 -0.000380889 0.000380889 -0.000380889 0.000380889 -0.000380889 0.000380889 -0.000380889 0.000380047 -0.000380047 0.000380889 -0.000380889 0.000380889 -0.000380889 0.000380889 -0.000380889 0.000380889 -0.000380889 0.000380889 -0.000380889 0.000380889 -0.000380889 0.000380047 -0.000380889 0.000380889 -0.000380047 0.000380889 -0.000380889 0.000380889 -0.000380889 0.000380889 -0.000380889 0.000380889 -0.000380889 0.000380889 -0.000380889 0.000380889 -0.000380889 0.000380047 -0.000380047 0.000761779 0 0.000380889 0.000380047 0.000380889 0.000380889 0.000380889 0.000380889 0.000380889 0.000380889 0.000380889 0.000380889 0.000380047 0.000380889 0.000380889 0.000380889 0.000380889 0.000380047 0.000380889 0.000380889 0.000380889 0.000380889 0.000380889 0.000380889 0.000380889 0.000380889 0.000380889 0.000380889 0.000380047 0.000380889 0.000380889 0.000380889 0.000380889 0.000380047 0.000380889 0.000380889 0.000380889 0.000380889 0.000380889 0.000380889 0.000380889 0.000380889 0.000380047 0.000380889 0.000380889 0.000380889 0.000380889 0.000380047 0.000380889 0.000380889 0.000380889 0.000380889 0.000380889 0.000380889 0.000380889 0.000380889 0.000380889 0.000380889 0.000760936 0 0.000380889 -0.000380889 0.000380889 -0.000380889 0.000380889 -0.000380889 0.000380889 -0.000380889 0.000380889 -0.000380889 0.000380889 -0.000380047 0.000380047 -0.000380889 0.000380889 -0.000380889 0.000380889 -0.000380889 0.000380889 -0.000380889 0.000380889 -0.000380889 0.000380889 -0.000380889 0.000380889 -0.000380047 0.000380889 -0.000380889 0.000380047 -0.000380889 0.000380889 -0.000380889 0.000380889 -0.000380889 0.000380889 -0.000380889 0.000380889 -0.000380889 0.000380889 -0.000380889 0.000380889 -0.000380047 0.000380047 -0.000380889 0.000380889 -0.000380889 0.000380889 -0.000380889 0.000380889 -0.000380889 0.000380889 -0.000380889 0.000380889 -0.000380889 0.000380889 -0.000380047 0.000380047 -0.000380889 0.000380889 -0.000380889 0.000380889 -0.000380889 0.000380889 -0.000380889 0.000380889 -0.000380889 0.000380889 -0.000380889 0.000380889 -0.000380889 0.000380889 -0.000380889 0.000380889 -0.000380047 0.000380047 -0.000380889 0.000380889 -0.000380889 0.000380889 -0.000380889 0.000380889 -0.000380889 0.000380889 -0.000380889 0.000380889 -0.000380889 0.000380889 -0.000380047 0.000380047 -0.000380889 0.000380889 -0.000380889 0.000380889 -0.000380889 0.000380889 -0.000380889 0.000380889 -0.000380889 0.000380889 -0.000380889 0.000380889 -0.000380889 0.000380889 -0.000380047 0.000380047 -0.000380889 0.000380889 -0.000380889 0.000380889 -0.000380889 0.000380889 -0.000380889 0.000380889 -0.000380889 0.000380889 0 0.000380889 0.000380889 0.000380047 0.000380889 0.000380889 0.000380889 0.000380889 0.000380889 0.000380889 0.000760936 0.00114267 0 0 -0.000380047 0 -0.000380889 0.000380889 -0.00152356 0.000380889 -0.00152271 0.000380047 -0.00114267 0.000380889 -0.00152271 0.000380889 -0.00152356 0.000380889 -0.00114183 0 -0.00152356 -0.00152271 0 -0.00114267 0.000380889zm-0.00837704 0.0818676l0.0205621 0 0 -0.0605437 -0.0205621 0 0 0.0605437zm-0.0255128 0l0.0205621 0 0 -0.0456932 -0.0205621 0 0 0.0456932zm-0.025512 0l0.0205621 0 0 -0.0304627 -0.0205621 0 0 0.0304627z"/>
 </g>
</svg>
