<?xml version="1.0" encoding="UTF-8"?>
<!DOCTYPE svg PUBLIC "-//W3C//DTD SVG 1.1//EN" "http://www.w3.org/Graphics/SVG/1.1/DTD/svg11.dtd">
<!-- Creator: CorelDRAW X7 -->
<svg xmlns="http://www.w3.org/2000/svg" xml:space="preserve" width="25.6234mm" height="9.0822mm" version="1.1" style="shape-rendering:geometricPrecision; text-rendering:geometricPrecision; image-rendering:optimizeQuality; fill-rule:evenodd; clip-rule:evenodd"
viewBox="0 0 75 26"
 xmlns:xlink="http://www.w3.org/1999/xlink">
 <defs>
  <style type="text/css">
   <![CDATA[
    .fil1 {fill:#008436}
    .fil0 {fill:#6F6E74}
    .fil2 {fill:#F47B28}
    .fil3 {fill:black;fill-rule:nonzero}
   ]]>
  </style>
 </defs>
 <g id="Layer_x0020_1">
  <metadata id="CorelCorpID_0Corel-Layer"/>
  <g id="_974403360">
   <path class="fil0" d="M7 0l4 0 -4 16 15 0 4 -16 5 0 -5 18c-1,1 -2,2 -3,2l-20 0c-1,0 -1,-1 -1,-2l5 -18zm52 0l4 0 -5 20 -4 0 5 -20zm-26 0l21 0c2,0 2,1 2,2l-2 8c-1,1 -2,2 -3,2l-17 0 -3 8 -3 0 3 -12 19 0 1 -4 -19 0 1 -4z"/>
   <g>
    <polygon class="fil1" points="70,0 75,10 64,20 "/>
    <polygon class="fil2" points="67,0 71,10 61,20 "/>
   </g>
   <g>
    <path class="fil3" d="M1 23l0 0 0 2c-1,0 -1,1 0,1 0,0 0,0 0,0 0,0 1,0 1,0 0,0 0,-1 0,-1l1 -2 0 0 0 2c0,0 -1,1 -1,1 0,0 -1,0 -1,0 0,0 -1,0 -1,0 0,0 0,-1 0,-1l1 -2zm3 0l2 2 1 -2 0 0 -1 3 -2 -2 0 2 -1 0 1 -3zm4 0l1 0 -1 3 -1 0 1 -3zm2 0l2 0 -1 0 -1 0 0 1 1 0 0 1 -1 0 -1 1 0 0 1 -3zm2 0l1 0 -1 3 -1 0 1 -3zm2 0l2 0 -1 0 -1 0 0 1 1 0 0 1 -1 0 -1 1 2 0 0 0 -2 0 1 -3zm2 0l1 0c1,0 1,0 2,0 0,1 0,1 0,2 0,0 -1,0 -1,1 -1,0 -1,0 -2,0l-1 0 1 -3zm1 0l-1 3 0 0c0,0 1,0 1,0 0,0 0,0 0,0 1,-1 1,-1 1,-1 0,0 0,0 0,0 0,-1 0,-1 0,-1 0,0 0,-1 0,-1 0,0 -1,0 -1,0l0 0z"/>
    <path class="fil3" d="M47 23l0 0 -1 3 0 0 1 -3zm1 0l2 2 1 -2 0 0 -1 3 -2 -2 0 2 -1 0 1 -3zm4 0l2 0 0 0 -1 0 -1 3 0 0 0 -3 0 0 0 0zm3 0l1 0 0 0 -1 0 0 1 1 0 0 1 -2 0 0 1 2 0 0 0 -2 0 1 -3zm2 0l1 0c0,0 1,0 1,0 0,0 0,0 0,1 0,0 0,0 0,0 -1,1 -1,1 -1,1l0 1 0 0 -1 -1 0 0 0 1 -1 0 1 -3zm1 0l-1 1c1,0 1,0 1,0 1,0 0,0 0,-1 0,0 0,0 0,0 0,0 0,0 0,0zm2 0l2 0 0 0 -2 0 0 1 2 0 -1 1 -1 0 -1 1 0 0 1 -3zm4 0l0 3 0 0 0 -1 -2 0 0 1 -1 0 3 -3zm-1 1l0 1 1 0 -1 -1zm6 -1l-1 0c0,0 0,0 -1,0 0,0 0,0 -1,1 0,0 0,0 0,1 -1,0 -1,0 0,1 0,0 0,0 1,0 0,0 0,0 1,0l0 0c-1,0 -1,0 -2,0 0,0 0,0 -1,0 0,0 0,-1 0,-1 0,-1 0,-1 1,-2 0,0 1,0 2,0 0,0 0,0 1,0zm0 0l2 0 0 0 -2 0 0 1 2 0 0 1 -2 0 0 1 1 0 0 0 -2 0 1 -3z"/>
    <path class="fil3" d="M21 23l1 0c0,0 1,0 1,0 0,0 0,0 0,1 0,0 0,0 -1,1 0,0 0,0 -1,0l0 1 -1 0 1 -3zm1 0l-1 1c1,0 1,0 1,0 0,0 1,0 1,0 0,0 0,-1 -1,-1 0,0 0,0 0,0zm3 0l1 3 -1 0 0 -1 -2 0 0 1 -1 0 3 -3zm0 1l-1 1 1 0 0 -1zm1 -1l1 0 0 1 2 -1 0 0 -1 2 -1 1 0 0 0 -1 -1 -2zm7 0l0 3 -1 0 0 -2 -1 2 -1 -2 -1 2 -1 0 2 -3 1 2 2 -2zm1 0l2 0 0 0 -2 0 0 1 2 0 0 1 -2 0 0 1 1 0 0 0 -2 0 1 -3zm3 0l1 2 1 -2 1 0 -1 3 -2 -2 -1 2 0 0 1 -3zm3 0l2 0 0 0 -1 0 -1 3 0 0 1 -3 -1 0 0 0zm5 0l-1 0c0,0 0,0 0,0 0,0 0,0 0,0 0,0 -1,0 -1,0 0,0 0,0 0,1 0,0 0,0 0,0 0,0 0,0 1,0 0,0 0,0 0,0 0,0 0,1 0,1 0,0 0,0 0,0 0,0 0,0 0,0 0,1 0,1 0,1 0,0 -1,0 -1,0 0,0 -1,0 -1,0 0,0 0,0 0,-1l0 0c0,1 1,1 1,1 0,0 0,0 1,0 0,0 0,0 0,-1 0,0 0,0 0,0 0,0 0,0 0,0 0,0 -1,0 -1,0 0,0 0,-1 0,-1 0,0 0,0 0,0 0,0 0,0 0,0 0,0 0,0 0,0 0,-1 0,-1 0,-1 0,0 1,0 1,0 0,0 0,0 0,0 1,0 1,0 1,0z"/>
   </g>
  </g>
 </g>
</svg>
